<?xml version="1.0" standalone="no"?>
<!DOCTYPE svg PUBLIC "-//W3C//DTD SVG 1.1//EN" "http://www.w3.org/Graphics/SVG/1.1/DTD/svg11.dtd" >
<svg xmlns="http://www.w3.org/2000/svg">
<metadata></metadata>
<defs>
<font id="brevia_mediumregular" horiz-adv-x="1175" >
<font-face units-per-em="2048" ascent="1638" descent="-410" />
<missing-glyph horiz-adv-x="655" />
<glyph horiz-adv-x="2048" />
<glyph horiz-adv-x="2048" />
<glyph unicode="&#xd;" horiz-adv-x="2048" />
<glyph unicode=" "  horiz-adv-x="655" />
<glyph unicode="&#x09;" horiz-adv-x="655" />
<glyph unicode="&#xa0;" horiz-adv-x="655" />
<glyph unicode="!" horiz-adv-x="669" d="M195 135q-1 53 10 87t35.5 49.5t49.5 20.5t64 5q30 0 51.5 -2.5t45 -12t38 -26.5t24.5 -47.5t11 -73.5q0 -51 -12 -83.5t-36.5 -47.5t-49.5 -19.5t-64 -4.5q-32 0 -53.5 2.5t-44.5 11.5t-37 25.5t-23 45.5t-9 70zM225 1247q4 166 148 166q84 0 121.5 -51t37.5 -154 q0 -78 -23 -199t-42 -191.5t-62 -220.5q-2 -8 -3.5 -12.5t-3 -11t-3.5 -12.5l-61 4q-6 91 -58.5 342t-50.5 340z" />
<glyph unicode="%" horiz-adv-x="1845" d="M131 1040q0 164 92.5 268.5t261.5 104.5t260 -104t91 -269q0 -164 -94.5 -268t-256.5 -104q-178 0 -266 101t-88 271zM319 1042q0 -48 6.5 -84t23.5 -69.5t51 -51.5t85 -18q160 0 160 223q0 220 -160 220q-51 0 -85 -17.5t-51 -51t-23.5 -69t-6.5 -82.5zM510 22 q-6 22 18 62q71 135 292.5 591t312.5 648q0 1 4.5 10t5 10.5t4.5 9.5t6 10t6 8t7 7.5t8.5 5.5t10.5 5t11.5 2.5t13.5 1.5h60q68 0 26 -82q-73 -140 -307.5 -622t-294.5 -623q-18 -41 -37 -53.5t-53 -12.5h-45q-43 0 -49 22zM1010 352q0 164 92.5 268.5t261.5 104.5 t259.5 -104t90.5 -269q0 -164 -94 -268t-256 -104q-178 0 -266 101t-88 271zM1198 354q0 -48 6.5 -84t23.5 -69.5t51 -51.5t85 -18q160 0 160 223q0 219 -160 219q-51 0 -85 -17.5t-51 -50.5t-23.5 -68.5t-6.5 -82.5z" />
<glyph unicode="*" horiz-adv-x="944" d="M115 1081q0 37 22 56t58.5 20t69.5 -3t69.5 -12t44.5 -9l10 10q-10 15 -28.5 38.5t-34 44t-32.5 44.5t-28 44.5t-17 39.5t-2 34.5t19 24.5l17 10q13 8 25.5 8t24.5 -7t22.5 -18.5t21 -28.5t19.5 -34.5t18.5 -39t16.5 -39t15.5 -38.5t14.5 -34h12q5 15 12 38t12 43 t12.5 44.5t15 42t18 36t21.5 26t26.5 11.5t32.5 -6l18 -8q24 -11 28.5 -34.5t-10.5 -56.5t-32 -61.5t-42.5 -66.5t-35.5 -55l8 -10q126 24 182 20q92 -7 92 -68q0 -22 -8 -36.5t-23.5 -21t-33.5 -9t-45 -0.5t-50 5t-56 7t-56 6l-2 -10q9 -12 41.5 -48.5t53.5 -64t41.5 -61.5 t18.5 -58.5t-28 -37.5l-16 -8q-26 -13 -54 6.5t-53.5 63.5t-42.5 80t-33 79h-16q-3 -16 -7 -34t-11 -42.5t-14.5 -46t-18 -44.5t-22 -38.5t-25 -27.5t-28.5 -12.5t-32 7.5l-14 9q-23 13 -26 38t13 60t32 62.5t42 66.5t33 51l-8 8q-8 0 -44 -7t-70.5 -10.5t-71.5 -2.5 t-59.5 17t-22.5 48z" />
<glyph unicode="+" horiz-adv-x="1249" d="M199 666v71q0 34 13 40.5t54 4.5q35 -2 266 -2v295q0 44 9.5 58t42.5 14h69q31 0 43.5 -17t10.5 -57q-2 -27 -2 -293q63 0 128.5 0.5t106 1t43.5 0.5q39 2 52.5 -8.5t13.5 -44.5v-70q0 -31 -14 -39t-52 -6q-23 2 -278 2v-297q1 -42 -9 -53.5t-43 -11.5h-71q-32 0 -42 17 t-8 59v286q-133 -2 -278 -2q-39 0 -47 8t-8 44z" />
<glyph unicode="," horiz-adv-x="698" d="M172 160q0 82 46.5 124t119.5 42q83 0 135.5 -58t52.5 -168t-21.5 -195.5t-56.5 -134.5t-75 -73.5t-82 -24.5q-37 0 -61 11t-32 27t-11 31.5t-1 26.5l2 11q7 2 18.5 6.5t40.5 23t51.5 41t41 63t18.5 87.5q-82 -7 -134 31t-52 129z" />
<glyph unicode="-" horiz-adv-x="917" d="M154 668v77q0 34 12.5 45t54.5 11q396 0 488 6q32 1 44.5 -17.5t12.5 -56.5l-2 -74q0 -34 -13 -44.5t-55 -10.5l-483 -4q-34 0 -46.5 15.5t-12.5 52.5z" />
<glyph unicode="." horiz-adv-x="632" d="M154 152q-1 56 9.5 92.5t35 53.5t50.5 22.5t66 5.5q38 0 63.5 -5.5t50.5 -22.5t37.5 -53.5t12.5 -92.5t-12 -91.5t-36 -52.5t-49.5 -22.5t-64.5 -5.5t-64.5 5.5t-50.5 22.5t-37 52.5t-11 91.5z" />
<glyph unicode="0" horiz-adv-x="1314" d="M125 696q0 154 32.5 282.5t97 226.5t170 153t243.5 55q111 0 199 -36t147.5 -99t98.5 -154.5t56.5 -197t18.5 -230.5q1 -152 -32 -280.5t-97.5 -226.5t-170.5 -153.5t-243 -55.5q-112 0 -200 35.5t-147.5 98.5t-99 154t-56.5 196.5t-17 231.5zM350 698q0 -83 9 -156.5 t30.5 -143.5t54.5 -120.5t85 -81t118 -30.5q81 0 144 44.5t100 120t55.5 168t18.5 197.5q0 109 -16.5 201.5t-51 168t-93.5 118.5t-138 43q-83 0 -145.5 -43t-99 -118.5t-54 -167.5t-17.5 -200z" />
<glyph unicode="1" horiz-adv-x="923" d="M109 1063q-37 63 16 92l450 238h84q27 0 43.5 -11.5t21.5 -29t7 -39t0 -41.5q-3 -45 -4 -557.5t2 -577.5q0 -6 2.5 -29t3 -32.5t-2.5 -27.5t-11 -26t-24 -15t-40 -7h-82q-27 0 -44 12t-22 30t-7 39.5t0 41.5q2 40 6.5 480t7.5 544l-305 -152q-50 -25 -78 25z" />
<glyph unicode="2" horiz-adv-x="1148" d="M121 193q52 55 133.5 130t148 134t139.5 134t123 140t82.5 141t32.5 148q0 88 -62.5 147.5t-166.5 59.5q-87 0 -175.5 -30t-133.5 -59l-45 -30q-21 18 -35 51q-16 36 -18.5 63.5t8 47t21.5 30t30 23.5q44 30 137 60t211 30q199 0 322.5 -99t132.5 -272q4 -77 -25 -159 t-74.5 -150t-114.5 -146t-128 -133.5t-134 -126.5t-114 -112v-18q92 0 295.5 2.5t222.5 5.5q36 3 52.5 -16t14.5 -56v-78q-2 -35 -14.5 -45t-58.5 -10h-727q-78 0 -78 70z" />
<glyph unicode="3" horiz-adv-x="1187" d="M107.5 158.5q0.5 19.5 5.5 50.5q5 23 16 41.5t19 25.5l8 7q7 -5 20.5 -13t56 -28t88 -35.5t113 -28t133.5 -12.5q143 0 214 68t71 176q0 91 -67.5 149.5t-196.5 58.5h-193q-35 0 -35 46v98q0 35 31 35h184q102 0 166 61t64 162q0 96 -60.5 151.5t-183.5 55.5 q-67 0 -129.5 -12t-104.5 -29.5t-74.5 -34.5t-47.5 -29l-15 -12q-20 16 -36 49q-46 95 26 152q39 32 146.5 67t238.5 35q122 0 212 -29t143 -81.5t78.5 -120.5t25.5 -152q0 -68 -21 -125t-51 -89t-60.5 -54.5t-51.5 -30.5l-21 -8v-12q5 -1 14.5 -2.5t35.5 -10.5t50 -22 t53.5 -38t50.5 -57t35.5 -81.5t14.5 -108.5q0 -178 -142 -294.5t-364 -116.5q-127 0 -234 31.5t-155 58.5q-22 13 -35 24t-24.5 28t-11 36.5z" />
<glyph unicode="4" horiz-adv-x="1294" d="M154 567q1 19 11.5 205.5t19 349.5t8.5 181q0 25 1.5 38.5t8 27t21 19t38.5 5.5h76q39 0 56.5 -21t15.5 -53q0 -15 -21.5 -319.5t-21.5 -366.5l399 2q2 82 2 387q0 24 0.5 33.5t4 27t10.5 24.5t22 13t37 6h67q85 0 82 -88q-1 -15 -3.5 -185t-2.5 -212h176q24 2 39 -12 t14 -43v-74q0 -31 -11 -42t-40 -9q-12 2 -180 2q0 -6 -1 -94t-1.5 -151t0.5 -89q0 -6 2.5 -29t2.5 -31.5t-3 -25.5t-11 -23.5t-23.5 -13t-39.5 -6.5h-73q-27 0 -43.5 11t-23 32t-7.5 37.5t0 42.5v336q-270 -6 -524 -6q-46 0 -66 28.5t-18 85.5z" />
<glyph unicode="5" horiz-adv-x="1208" d="M131 211q8 28 21.5 46t21.5 24q7 -5 20.5 -12.5t56.5 -27.5t88 -35t112.5 -27.5t132.5 -12.5q133 0 205.5 75t72.5 193q0 120 -97 184t-316 64q-45 0 -114 -5t-85 -5q-65 0 -60 78q5 75 11 481v21q0 31 0.5 45t3.5 34t10 28.5t19.5 18t32 12.5t48.5 3h607q38 0 50.5 -18 t12.5 -56v-68q0 -17 -5.5 -28.5t-13 -17.5t-25.5 -9t-31.5 -3.5t-43.5 -0.5h-8q-313 0 -446 -2q-1 -52 -5 -179.5t-4 -150.5q119 6 216 -1.5t185.5 -34.5t148.5 -75.5t95 -128t35 -186.5q0 -201 -133.5 -327.5t-365.5 -126.5q-228 0 -354.5 64.5t-98.5 166.5z" />
<glyph unicode="6" horiz-adv-x="1253" d="M125 616q0 123 23.5 237t74.5 216.5t124 178.5t179 120.5t232 44.5q104 0 182.5 -20t118.5 -45q64 -39 20 -134q-8 -18 -19.5 -33.5t-19.5 -21.5l-8 -6q-12 8 -35.5 20.5t-99 33t-154.5 20.5q-73 0 -136 -25t-107 -66.5t-78.5 -93t-55 -108t-30.5 -108t-10 -95.5h16 q5 6 14 15.5t41 34t68.5 43.5t96 34.5t124.5 15.5q89 0 169.5 -27.5t144 -79t101.5 -133.5t38 -183q0 -198 -140.5 -334.5t-349.5 -136.5q-245 0 -384.5 167t-139.5 469zM356 451q0 -138 84 -211.5t209 -73.5q131 0 201 80.5t70 204.5q0 128 -82.5 199t-204.5 73 q-60 1 -108.5 -16t-79.5 -44.5t-51.5 -64t-29 -73t-8.5 -74.5z" />
<glyph unicode="7" horiz-adv-x="1120" d="M117 1262l2 75q0 34 13.5 45t57.5 11h785q31 0 49 -20t18 -52l-2 -111q-20 -31 -91 -142.5t-107.5 -170t-103 -167t-107.5 -183t-89.5 -166t-80 -167t-49.5 -138.5q-21 -76 -70 -76h-106q-38 0 -53 17t-15 55q0 71 82 228t178 303.5t220.5 330.5t164.5 248v12 q-144 -4 -637 -4q-36 0 -48.5 17t-10.5 55z" />
<glyph unicode="8" horiz-adv-x="1269" d="M115 395q0 57 14.5 106.5t38 83t52 60.5t57 42.5t52 26t37.5 14.5l15 3v12q-8 2 -21.5 7.5t-47.5 28t-59.5 50.5t-47 80t-21.5 113q0 84 25.5 153t78 123t142.5 84t211 31q122 0 212 -28.5t143 -82t78.5 -123t25.5 -157.5q0 -61 -21 -112.5t-51.5 -81t-60.5 -50 t-51 -28.5l-21 -7v-12q11 -2 28.5 -7.5t62 -30t79 -58.5t62.5 -97.5t28 -142.5q0 -181 -143.5 -298t-370.5 -117q-240 0 -383 116t-143 299zM340 408q0 -242 301 -242q154 0 224.5 65t68.5 181q-2 105 -72.5 175t-220.5 70q-148 0 -224.5 -73t-76.5 -176zM410 1022 q0 -91 58.5 -152t172.5 -61q112 0 174 61.5t62 151.5t-61.5 147.5t-174.5 57.5q-115 0 -173 -57t-58 -148z" />
<glyph unicode="9" horiz-adv-x="1257" d="M117 952q-1 91 30 172.5t90 146.5t155 103.5t216 38.5q249 0 387 -177.5t138 -520.5q0 -109 -21.5 -212.5t-69 -199t-117 -167t-171.5 -114t-226 -42.5q-123 0 -201 24.5t-110 52.5q-49 41 -20 129q6 20 17.5 36t19.5 22l8 6l12 -9t36 -20.5t59.5 -25.5t82 -20t103.5 -9 q88 0 158 35.5t112.5 89.5t71 124t39 133.5t10.5 123.5h-17q-4 -6 -12 -17t-37 -38t-63.5 -48t-92.5 -38t-122 -17q-218 0 -341 115.5t-124 322.5zM336 948q0 -127 80 -200.5t190 -75.5q132 -1 208.5 83.5t76.5 192.5q0 133 -78 206t-207 73q-131 0 -200.5 -78t-69.5 -201z " />
<glyph unicode=":" horiz-adv-x="632" d="M162 143q-1 53 9 87.5t33 51t48 22t63 5.5q36 0 60.5 -5.5t48 -22t35.5 -51t12 -87.5q0 -52 -11 -86t-34 -50t-47.5 -21.5t-61.5 -5.5q-77 0 -116.5 32t-38.5 131zM162 981q-1 53 9 87.5t33 51t48 22t63 5.5q36 0 60.5 -5.5t48 -22t35.5 -51t12 -87.5q0 -52 -11.5 -86.5 t-34 -50.5t-47.5 -21.5t-61 -5.5q-37 0 -61.5 5.5t-48 21.5t-35 50.5t-10.5 86.5z" />
<glyph unicode=";" horiz-adv-x="632" d="M162 981q-1 53 9 87.5t33 51t48 22t63 5.5q36 0 60.5 -5.5t48 -22t35.5 -51t12 -87.5q0 -52 -11.5 -86.5t-34 -50.5t-47.5 -21.5t-61 -5.5q-37 0 -61.5 5.5t-48 21.5t-35 50.5t-10.5 86.5zM166 139q0 78 43.5 116t114.5 38q81 0 130.5 -53.5t49.5 -157.5t-20.5 -186 t-54 -129t-72 -71t-78.5 -24q-35 0 -58 10.5t-30.5 25t-10 29.5t-0.5 25l2 11q7 2 17.5 7t38.5 23t49.5 40t39 61t17.5 84q-79 -7 -128.5 28.5t-49.5 122.5z" />
<glyph unicode="&#x3c;" horiz-adv-x="1249" d="M240 508.5v14.5v16v53v14v12.5t0.5 9.5t1.5 9t3.5 8t6 8.5t9 8t12.5 10.5t16 12q74 50 302.5 223t264.5 203q44 37 65.5 36.5t45.5 -42.5l28 -51q11 -20 13 -34.5t-6.5 -28t-20 -23.5t-35.5 -27q-43 -28 -231.5 -162.5t-284.5 -206.5v-16q94 -70 282 -202.5t236 -164.5 q23 -17 35 -27.5t20.5 -24t6.5 -27.5t-13 -33l-28 -51q-24 -42 -45.5 -43t-65.5 36q-35 30 -265 203t-304 223q-11 7 -18 13.5t-12.5 10.5t-9 10.5t-5.5 8.5t-3 11t-1 10.5z" />
<glyph unicode="=" horiz-adv-x="1249" d="M264 893v68q0 34 13 40.5t55 4.5q30 -1 124.5 -1.5t187.5 0t181.5 1t92.5 0.5q40 2 52 -7.5t13 -44.5l2 -67q0 -30 -14.5 -38.5t-52.5 -6.5q-23 2 -147.5 2t-278.5 -1t-168 -1q-40 -1 -50 7.5t-10 43.5zM266 510q-1 34 12 40.5t56 4.5q31 -1 125.5 -1.5t187 0t181 1 t92.5 0.5q41 2 53 -7t12 -44v-68q0 -31 -13.5 -39t-51.5 -6q-23 2 -147.5 2t-278.5 -1t-168 -1q-39 -1 -47.5 7t-10.5 44z" />
<glyph unicode="&#x3e;" horiz-adv-x="1249" d="M239 109q-2 14 6.5 27.5t20.5 24t35 27.5q48 32 236 164.5t282 202.5v16q-96 72 -284.5 206.5t-231.5 162.5q-24 17 -35.5 27t-20 23.5t-6.5 28t13 34.5l29 51q24 42 45 42.5t65 -36.5q35 -30 264.5 -203t303.5 -223q11 -8 18 -14t12.5 -10t9 -10.5t5.5 -8.5t3 -10 t1 -9.5v-14v-15.5v-53v-14.5v-13t-0.5 -10t-2 -9.5t-3.5 -8t-5.5 -9t-9 -8.5t-12.5 -10.5t-16 -12q-75 -51 -305 -224t-265 -202q-44 -37 -65 -36t-45 43l-29 51q-11 19 -13 33z" />
<glyph unicode="?" horiz-adv-x="997" d="M134 1248q3 29 26 52q46 46 139 79.5t205 33.5q195 0 300 -89t105 -247q0 -68 -30.5 -134.5t-74.5 -118t-88 -97.5t-75.5 -90.5t-32.5 -79.5q-53 -29 -108 -29q-45 0 -72 26.5t-27 68.5q0 45 29 91.5t70.5 87t82.5 82t70 92t29 101.5q0 68 -44.5 109t-133.5 41 q-76 0 -150.5 -30.5t-111.5 -60.5l-37 -30l-13 13t-25.5 31.5t-26.5 46t-6 51.5zM340 135q-1 53 10 87t35.5 49.5t50 20.5t64.5 5q30 0 51.5 -2.5t45 -12t38 -26.5t24.5 -47.5t11 -73.5q0 -51 -12 -83.5t-36.5 -47.5t-49.5 -19.5t-64 -4.5q-40 0 -66 4.5t-51.5 19.5 t-38 47.5t-12.5 83.5z" />
<glyph unicode="A" horiz-adv-x="1376" d="M88 78q24 78 221.5 636t206.5 586q27 93 119 93h125q94 0 127 -101q9 -37 200 -606t201 -604q4 -17 4 -30q0 -52 -63 -52h-60q-22 0 -38 5t-25 15.5t-13.5 18t-9.5 22.5t-6 19q-2 4 -32.5 94.5t-59.5 161.5h-588q-17 -46 -40 -109t-34.5 -95.5t-15.5 -45.5 q-12 -46 -31.5 -66t-56.5 -20h-82q-31 0 -45 20q-8 12 -9 29q0 13 5 29zM444 500h492q-207 610 -238 727h-12q-47 -168 -242 -727z" />
<glyph unicode="B" horiz-adv-x="1341" d="M193 123q3 38 3 168v138.5v155.5q0 164 -1 317t-1.5 271t-0.5 123v11q0 25 1.5 36t10 25t29.5 19.5t57 5.5h381q128 0 224.5 -27t153.5 -76t85 -112t28 -140q0 -69 -26.5 -124.5t-64 -86t-75 -51t-63.5 -26.5l-27 -7v-12q7 -1 18.5 -2.5t44.5 -10.5t63.5 -22t67 -39 t63.5 -59.5t45 -85t18 -113.5q0 -181 -130 -290t-388 -109h-439q-22 0 -37.5 8.5t-23 18.5t-11.5 30.5t-4.5 31.5t-0.5 34zM414 645l2 -479h291q127 0 208.5 62t81.5 184q0 112 -79 172.5t-213 60.5h-291zM416 809h256q127 0 197.5 55t70.5 162q0 95 -73.5 148t-194.5 53 h-254z" />
<glyph unicode="C" horiz-adv-x="1314" d="M125 696q0 155 41 284.5t120 226.5t204.5 151.5t285.5 54.5q232 0 369 -90q21 -14 33 -33q10 -16 10 -42v-10q-2 -34 -31 -71q-12 -16 -24.5 -27t-18.5 -14l-6 -4q-4 4 -13 11t-39.5 25.5t-65.5 32t-92 25t-118 11.5q-108 0 -192 -41.5t-135 -114.5t-77 -167.5 t-26 -205.5q0 -150 49.5 -269.5t148 -191t230.5 -71.5q155 0 264 78q12 7 19.5 10.5t18 5t20 -6t18.5 -22.5l43 -71q10 -17 13.5 -26.5t0.5 -22.5t-18 -25q-50 -39 -146 -72.5t-233 -33.5q-161 0 -287 53.5t-205 150t-120 226.5t-41 286z" />
<glyph unicode="D" horiz-adv-x="1447" d="M190 1316.5q0 11.5 3 28t11 25.5t24 16t40 7h330q196 0 339 -51t227 -146t122 -219q35 -115 35 -258v-23q-2 -158 -40 -280t-120 -218t-224 -147t-339 -51h-326q-22 0 -37 8.5t-23 19t-12 30t-4.5 32t-0.5 33.5q2 46 2 229t-1 371t-2 358.5t-1 173.5q0 9 -1.5 29.5 t-1.5 32zM414 166h184q127 0 220 31t145.5 79t83.5 122t41 144q9 63 8 143v17q-1 89 -12.5 160.5t-44.5 142t-86.5 117.5t-143.5 76t-211 29h-182q-4 -165 -4 -499q0 -238 2 -562z" />
<glyph unicode="E" horiz-adv-x="1234" d="M189 1320q0 11 3 25q3 16 10.5 25.5t23.5 16t40 6.5h758q40 0 53 -18t13 -56v-59q0 -35 -16.5 -50.5t-53.5 -15.5h-600l-4 -412q473 0 524 2q24 2 39.5 -12t15.5 -43v-74q0 -31 -11 -41t-40 -10h-526l6 -405q506 0 598 6q35 3 51.5 -14.5t16.5 -53.5v-82q0 -34 -13 -44.5 t-55 -10.5h-743q-27 0 -44 11t-23.5 31.5t-8 38t-0.5 42.5q1 27 1 95q0 85 -2 236q-2 271 -5.5 533t-3.5 268q1 9 -1 29q-2 26 -3 36z" />
<glyph unicode="F" d="M195 1255q0 83 6 101q21 35 75 37h707q68 0 68 -78v-55q0 -47 -17.5 -58.5t-64.5 -11.5h-555l-2 -447h506q40 0 57.5 -10.5t17.5 -44.5v-72q0 -33 -12 -46.5t-41 -10.5q-34 4 -166 3.5t-362 -3.5q0 -90 1.5 -186.5t3 -160.5t1.5 -75t2 -32.5t2.5 -33t-2.5 -27.5t-10 -24 t-22 -14t-38 -6h-78q-51 0 -64 28q-11 24 -11 78v17q0 7 1 50t1 77q0 133 -1 375t-2 432.5t-1 197.5z" />
<glyph unicode="G" horiz-adv-x="1462" d="M125 696q0 207 75 367.5t225 255t355 94.5q113 0 208.5 -20t137 -38.5t72.5 -39.5q22 -14 35.5 -32.5t11.5 -52t-31 -71.5q-10 -14 -23 -25t-21 -16l-7 -4q-5 5 -15 12.5t-45 27t-75 34.5t-106 27t-138 12q-189 0 -311.5 -140.5t-122.5 -379.5q0 -133 32 -238.5 t87.5 -170.5t125.5 -98.5t150 -33.5q78 0 139.5 24t98.5 62t63 84t37 92t16.5 84t4.5 62v24h-301q-33 0 -33 41l-2 102q0 15 11.5 25t31.5 10h440q43 0 57 -14q11 -11 11 -43v-10q-12 -364 -12 -524q0 -66 2 -97q1 -8 1 -15q0 -73 -55 -73h-84q-59 0 -59 70q0 2 4 66 q2 49 2 70v9h-18q-2 -5 -5 -13.5t-17 -33t-32 -46.5t-50 -49t-70 -46.5t-94 -33t-119 -13.5q-110 0 -204.5 35.5t-164.5 100t-119.5 153t-74.5 197t-25 230.5z" />
<glyph unicode="H" horiz-adv-x="1566" d="M189 1316v7q0 10 2 22q3 16 10 25.5t23 16t40 6.5h82q27 0 44 -10.5t23.5 -31t8 -37.5t0.5 -42q-4 -29 -4 -496h727v479q0 10 -1.5 29.5t-2 32t2 28.5t10 25.5t23.5 16t40 6.5h83q26 0 42.5 -10.5t23 -31t8 -37.5t0.5 -42q-2 -64 -4 -558q-1 -165 -1 -283q0 -238 3 -294 q0 -9 2 -29q3 -26 3 -36t-3 -24q-3 -16 -10.5 -25.5t-23.5 -16t-40 -6.5h-81q-27 0 -44 11t-23.5 31.5t-8 38t-0.5 42.5q2 55 2 475h-729q0 -387 4 -461q0 -6 2.5 -29t3 -32.5t-2.5 -27.5t-11 -26t-24 -15t-40 -7h-82q-27 0 -44 11t-23.5 31.5t-8 38t-0.5 42.5q3 101 3 1132 q0 10 -1.5 29.5t-2.5 31.5z" />
<glyph unicode="I" horiz-adv-x="673" d="M213 1321q1 11 3 24q2 16 9.5 25.5t23.5 16t40 6.5h82q27 0 44 -10.5t23 -31t7.5 -37.5t0.5 -42q-2 -132 -2 -299q0 -146 2 -317q4 -368 8 -519q1 -8 2.5 -29.5t2.5 -31.5v-6q0 -9 -2 -22q-3 -17 -10.5 -25.5t-23.5 -15.5t-40 -7h-80q-27 0 -44 11t-23.5 31.5t-8 38 t-0.5 42.5q1 19 1 64q0 135 -5 505q-6 492 -6 563q1 9 -1 29q-2 28 -3 37z" />
<glyph unicode="J" horiz-adv-x="1048" d="M43 197q2 13 16 26l64 64q21 19 39 19t33 -19q106 -121 233 -121q216 0 225 272q4 150 6 290q2 111 2 195q0 21 -1 41q0 96 -1 167.5t-2.5 117.5t-1.5 51q-2 22 -1 39.5t6.5 29.5t21 18t43.5 6h82q22 0 37 -8t22.5 -18.5t11.5 -30t4.5 -31t0.5 -33.5q0 -223 -6 -832 q-1 -223 -121 -341.5t-328 -118.5q-72 0 -137 19t-110 48t-71 51.5t-42 42.5q-16 22 -22 33q-4 7 -4 16q0 4 1 7z" />
<glyph unicode="K" horiz-adv-x="1400" d="M188 123q5 169 5 1132q0 10 -1.5 29.5t-2.5 32t2 28.5t10 25.5t23 16t40 6.5h82q22 0 37 -8.5t22 -18t10.5 -30t4 -30.5t0.5 -34q-2 -29 -6 -488h243q25 32 85.5 117t115.5 163.5t118 168t73 104.5q21 29 38.5 42.5t45.5 13.5h124q31 0 45.5 -23.5t-2.5 -52.5 q-16 -21 -116 -152.5t-197 -263t-147 -207.5q25 -40 66.5 -98t87 -119t83.5 -111t74.5 -97.5t40.5 -53.5q25 -33 49.5 -41t79.5 -8q8 -38 8 -68q0 -50 -22 -76q-35 -42 -117 -42q-64 0 -104 25.5t-85 88.5l-358 520h-231q0 -440 2 -477q1 -30 2.5 -60.5t-15 -53.5t-53.5 -23 h-84q-27 0 -43.5 10.5t-23 32.5t-8 37t-1.5 43z" />
<glyph unicode="L" horiz-adv-x="1159" d="M188 1325q0 35 11 51.5t45 16.5h94q22 0 37 -8.5t22 -18t10.5 -30t4 -30.5t0.5 -34q0 -3 -0.5 -18.5t-1 -41t-0.5 -51.5q-2 -134 -2 -373v-126q0 -332 4 -463q518 0 575 6q34 4 51 -15.5t17 -56.5v-67q0 -36 -13 -51t-53 -15h-717q-22 0 -37 8.5t-23 19t-12 30t-4.5 32 t-0.5 33.5q0 7 1 64t1 102q0 440 -4 846q0 20 -5 190z" />
<glyph unicode="M" horiz-adv-x="1861" d="M162 94q8 75 51.5 631.5t46.5 587.5v10q1 10 2 15t3.5 15t7.5 15.5t12 12t18.5 9.5t26.5 3h168q67 0 86 -54l329 -905h15q307 827 334 907q8 23 25.5 35t32.5 14.5t38 2.5h170q16 0 28.5 -3.5t20 -12t12.5 -15t8 -21.5t4 -21.5t2 -25t1 -22.5q5 -63 42.5 -552t47.5 -607 l3 -27q3 -24 3 -31t-2 -19q-2 -14 -10.5 -20t-24.5 -11t-41 -5h-76q-24 0 -38.5 4.5t-21.5 18.5t-9 20.5t-3 31t-1 29.5q-1 10 -10 168t-18.5 323t-19.5 335.5t-14 228.5h-14q-24 -71 -171 -466t-153 -414q-23 -56 -67 -56h-166q-28 0 -48.5 17.5t-27.5 38.5 q-9 32 -155.5 427.5t-164.5 454.5h-10q-5 -130 -24 -564.5t-21 -496.5v-28t-0.5 -24t-4.5 -20t-10.5 -15t-19.5 -9.5t-32 -3.5h-84q-52 0 -66 24q-11 18 -11 48q0 10 1 22z" />
<glyph unicode="N" horiz-adv-x="1525" d="M190 123q1 38 1.5 168t0.5 294t-0.5 317t-1 271t-0.5 123q0 26 2 40t9.5 29t25 21.5t47.5 6.5h107l717 -926h14q-3 58 -5.5 428.5t-2.5 437.5q-2 27 12.5 43.5t63.5 16.5h80q21 0 36 -8.5t22 -18t10.5 -29.5t4 -31t0.5 -34q0 -10 -1 -188.5t-2 -370.5t-1 -369t2 -207 q0 -9 2 -29q3 -26 3 -36t-2 -24q-2 -16 -10 -25.5t-24 -16t-40 -6.5h-78q-73 0 -78 113q-1 29 -145.5 218.5t-321.5 411.5t-217 281h-19q0 -93 8.5 -474.5t10.5 -412.5q0 -9 2 -29.5t2.5 -32t-2.5 -28t-10.5 -25.5t-23.5 -15.5t-40 -6.5h-82q-27 0 -44 11t-24 31 q-6 20 -8 38q-1 10 0 24v19z" />
<glyph unicode="O" horiz-adv-x="1486" d="M125 696q0 154 38.5 282.5t113.5 226.5t195.5 153t275.5 55q145 0 262 -55t193 -151.5t117 -227t42 -283.5q0 -206 -70.5 -366.5t-212 -255t-334.5 -94.5q-155 0 -275 54t-194.5 151t-112.5 226t-38 285zM350 698q0 -87 12.5 -163t42 -144.5t74 -117.5t112.5 -78t154 -29 q103 0 180.5 44t122 120t66 168.5t21.5 199.5q0 88 -13 164t-42 144t-73.5 116.5t-111 76.5t-150.5 28q-85 0 -153 -28t-113 -76.5t-74.5 -116.5t-42 -144t-12.5 -164z" />
<glyph unicode="P" horiz-adv-x="1331" d="M189 1320q0 11 3 25q3 16 10.5 25.5t23.5 16t40 6.5h418q128 0 231.5 -37t171 -101.5t103.5 -151.5q35 -85 35 -183v-5q-1 -100 -36.5 -187.5t-101 -154t-166.5 -105t-225 -38.5h-278q0 -261 4 -293q0 -9 2 -29.5t3 -32t-2.5 -28t-11 -25.5t-23.5 -15.5t-40 -6.5h-82 q-27 0 -44 11t-23 31.5t-7.5 38t-0.5 42.5q1 38 1.5 163.5t0.5 283.5t-0.5 305.5t-1 261t-0.5 118.5q1 9 -1 29q-2 26 -3 36zM413 914q3 -232 3 -296v-22h268q155 0 234 81t81 224v7q-1 140 -77 228q-78 90 -236 91h-272q-3 -13 -2 -109q-1 -75 1 -204z" />
<glyph unicode="Q" horiz-adv-x="1497" d="M125 696q0 118 24.5 224t76 196.5t125 156.5t177.5 103t228 37q113 0 211.5 -35t170.5 -97.5t123.5 -147t77 -184.5t25.5 -208q0 -91 -18.5 -175t-48.5 -145t-66 -114t-72 -87.5t-66 -59.5t-49 -36l-18 -11q78 -108 181.5 -183t197.5 -75q5 -24 5 -46q0 -49 -25 -85 q-36 -52 -117 -52q-101 0 -220 105t-210 307h-17q-1 -4 -3.5 -11t-13 -25t-24.5 -32t-40 -25t-58 -11q-102 0 -202.5 54.5t-179 147.5t-127 228.5t-48.5 285.5zM352 696q0 -131 42 -237t110.5 -170.5t151 -98.5t169.5 -34q7 3 18 10t43.5 31.5t62 54.5t65.5 80t61.5 106.5 t43.5 136t18 166.5q0 73 -11.5 140t-39.5 131.5t-70.5 111t-109 75t-150.5 28.5q-88 0 -158 -28.5t-115.5 -77.5t-75.5 -118t-42.5 -144.5t-12.5 -162.5z" />
<glyph unicode="R" horiz-adv-x="1386" d="M193 123q2 68 2 1134v9q0 23 0.5 35.5t5 33t13.5 31t27.5 19t45.5 8.5h422q250 0 385 -126t135 -337q0 -155 -86.5 -264t-224.5 -158l229 -295q16 -22 36.5 -33t36.5 -12.5t48 -1.5q9 -38 9 -68q1 -48 -21 -74q-34 -44 -111 -44q-49 0 -86 17.5t-54.5 37t-46.5 59.5 l-262 379h-280q0 -10 -1 -103.5t-1 -172.5t2 -101q1 -11 1 -21q0 -37 -12 -54q-15 -21 -57 -21h-80q-22 0 -37 8.5t-22.5 18.5t-11 30.5t-4 31.5t-0.5 34zM410 1047.5q0 -124.5 1 -261t1 -149.5h299q128 0 209 78t81 215q0 56 -17 107t-51 94.5t-92 69.5t-132 26h-297 q-2 -55 -2 -179.5z" />
<glyph unicode="S" horiz-adv-x="1202" d="M104 1004q0 177 133.5 293t358.5 116q130 0 224.5 -26t146.5 -58q62 -40 62 -92q0 -28 -17 -59q-10 -18 -23.5 -33.5t-22.5 -22.5l-8 -6q-6 5 -17.5 12t-49.5 26.5t-77.5 34t-99 26.5t-118.5 12q-130 0 -197 -60t-67 -161q0 -37 18.5 -67t53 -51.5t69.5 -35.5t82 -27 l190 -51q188 -54 270.5 -147.5t82.5 -233.5q0 -189 -146.5 -301t-378.5 -112q-125 0 -224 25t-144 52q-72 45 -72 107q0 23 10 49q8 24 24 43.5t28 27.5l12 7q5 -5 15 -13.5t44.5 -30t74 -38t102.5 -30t130 -13.5q137 0 217 62t80 165q0 68 -61 119.5t-172 79.5l-197 51 q-336 88 -336 361z" />
<glyph unicode="T" horiz-adv-x="1200" d="M57 1260v77q0 34 12 45t54 10q434 -4 674 -3.5t286 3.5q5 0 9 1q27 0 39 -17t12 -48v-9l-2 -72q-2 -35 -13 -45t-53 -10l-370 -2q-3 -78 -4 -212q-1 -89 -1 -181v-92q0 -139 1.5 -261.5t2.5 -212.5t1 -94q0 -10 1.5 -29.5t2 -32t-2 -28t-10 -25t-23.5 -16t-40 -6.5h-82 q-27 0 -44 10.5t-23.5 31t-8 37.5t-0.5 42q3 45 5 478q2 309 1 479v114q-14 0 -109.5 0.5t-169 0.5t-83.5 -1q-34 -3 -48 14t-14 54z" />
<glyph unicode="U" horiz-adv-x="1464" d="M168 922q0 128 2 237q1 65 0 97v26v20.5v21t1 18t4 17.5t8 13.5t12.5 11.5t18.5 6t26 3h84q27 0 43.5 -6.5t23 -22t8 -28.5t0.5 -38q-4 -118 -4 -653q0 -115 17.5 -200t56.5 -149.5t105.5 -97t160.5 -32.5q179 0 253.5 120.5t74.5 362.5q0 128 1 276t2 247.5t1 109.5 q0 6 -0.5 23.5t0 24t2 19.5t6 18.5t12 13t19.5 10t29 2.5h84q51 1 65 -23q12 -20 12 -60v-12q-1 -21 -4.5 -308.5t-5.5 -342.5q-5 -128 -22 -224t-55 -183t-98 -141.5t-154.5 -86.5t-221.5 -32q-135 0 -233.5 31t-160.5 85t-100 140.5t-53 182.5t-18 226q-3 128 -3 240 q1 19 1 37z" />
<glyph unicode="V" horiz-adv-x="1339" d="M88 1311q-5 18 -5 33q0 49 62 49h62q18 0 32.5 -4.5t22.5 -9.5t15 -15.5t9 -16t6 -19t5 -15.5q31 -88 183 -565t177 -582h15q25 104 170 556.5t190 584.5q1 4 5 16.5t5 15.5t4 12.5t5 11.5t6 8.5t8 8t9.5 5.5t12 5t15 2t18.5 1h80q30 0 46 -21q9 -12 10 -30q0 -12 -5 -27 q-24 -78 -211 -636.5t-196 -586.5q-30 -92 -121 -92h-127q-101 0 -127 100q-10 37 -190.5 607t-190.5 604z" />
<glyph unicode="W" horiz-adv-x="2084" d="M94 1288q-4 23 -4 41q0 23 6 38q12 26 64 26h59q81 0 98 -84q24 -97 123.5 -526t130.5 -574h11q59 229 167 635t125 452q7 25 13 39t17 29.5t28.5 22t42.5 6.5h131q75 0 100 -97l291 -1095h10q34 141 136 589t116 513q10 50 26.5 70t63.5 20h86q39 0 53 -28q9 -17 9 -38 q0 -15 -4 -33q-20 -84 -160 -606t-147 -551q0 -2 -3.5 -17.5t-4.5 -19t-4.5 -17.5t-6 -19t-8 -16.5t-10.5 -16t-13 -12.5t-17 -11t-21 -5.5t-25 -2.5h-139q-82 0 -107 88q-37 116 -280 1075h-11q-269 -1026 -284 -1077q-10 -48 -36 -67t-69 -19h-143q-35 0 -58.5 21 t-30.5 37.5t-17 53.5l-1.5 3t-1 3t-0.5 3q-31 109 -161.5 609.5t-139.5 557.5z" />
<glyph unicode="X" horiz-adv-x="1286" d="M84 32q-2 8 -2 16q0 25 20 54q12 13 86 122.5t174 257.5t146 214l-410 609q-20 31 -8.5 59.5t41.5 28.5h102q53 0 89 -66q15 -21 147 -228.5t164 -252.5h10q51 67 171 254t147 237q14 27 35 41.5t61 14.5h94q37 0 49 -25q4 -9 4 -19q0 -19 -14 -44q-15 -27 -166 -249 t-248 -360q369 -543 408 -608q22 -31 11 -59.5t-46 -28.5h-102q-53 0 -89 66q-6 8 -131.5 211t-173.5 272h-12q-35 -47 -105.5 -155.5t-138 -216.5t-75.5 -120q-18 -28 -39 -42.5t-60 -14.5h-94q-36 0 -45 32z" />
<glyph unicode="Y" horiz-adv-x="1277" d="M53 1358q0 14 10 24q10 11 31 11h115q24 0 42 -11.5t25.5 -23t17.5 -31.5l3 -6q39 -73 182 -308t148 -243h14q56 85 186.5 304.5t151.5 262.5q14 29 34.5 42.5t69.5 13.5h93q31 0 46 -30q6 -13 6 -26q0 -16 -11 -32q-24 -31 -231 -359t-241 -377q1 -23 1 -214.5t2 -217.5 q1 -8 3 -29.5t3 -32t-2 -27.5t-10.5 -25.5t-23.5 -15.5t-40 -7h-82q-77 0 -77 101q0 10 1 22v450q-53 94 -239.5 395t-212.5 337q-6 10 -10 23q-5 16 -5 30z" />
<glyph unicode="Z" horiz-adv-x="1212" d="M104 70v123q46 56 349.5 456t398.5 529v12h-614q-35 0 -47.5 17t-12.5 55v75q0 34 14 45t58 11h788q31 0 49 -20t21 -52v-111l-748 -995v-16q584 0 639 6h10q60 0 60 -68v-82q0 -34 -13.5 -44.5t-58.5 -10.5h-817q-38 0 -55.5 16.5t-20.5 53.5z" />
<glyph unicode="^" horiz-adv-x="1245" d="M156 788q0 18 30 62q4 5 82 116t156 224.5t104 157.5q19 32 31.5 38.5t44.5 6.5h41q30 0 43.5 -8t32.5 -37q27 -43 103.5 -156t154.5 -226.5t80 -115.5q30 -44 30 -62t-34 -38l-54 -29q-15 -9 -26.5 -10.5t-21.5 5.5t-18.5 18.5t-21.5 33.5q-11 20 -290 444 q-34 -52 -103 -158t-122 -187t-64 -99q-25 -42 -41.5 -52t-48.5 5l-54 29q-34 20 -34 38z" />
<glyph unicode="_" horiz-adv-x="1024" d="M0 -106q0 32 14 40.5t54 8.5q772 -6 901 4q36 3 45.5 -8.5t9.5 -49.5v-28q0 -29 -12.5 -39t-50.5 -10l-906 -2q-31 0 -43 13.5t-12 49.5v21z" />
<glyph unicode="a" d="M104 322q0 160 110 253t294 93q90 0 177.5 -19t125.5 -35v119q0 109 -70 165t-184 56q-78 0 -157 -21.5t-118 -42.5l-40 -22q-4 5 -10.5 12.5t-19.5 31.5t-18.5 46t1 51t30.5 52q43 38 136.5 62t220.5 24q206 0 320 -112t114 -302q0 -39 -1 -197q-1 -105 -1 -187v-77 q0 -106 4 -157q1 -11 4 -29q2 -20 2 -30q0 -4 1 -7q0 -8 -1 -17q-1 -14 -8 -22t-19 -15.5t-33.5 -11t-52.5 -3.5q-106 0 -106 130q0 25 4 54h-10q-5 -7 -14.5 -19.5t-42.5 -44.5t-70.5 -56t-97 -44t-123.5 -20q-110 0 -190.5 47.5t-118.5 124t-38 170.5zM326 330 q0 -82 52 -128t138 -46q101 0 183.5 55.5t107.5 124.5v141q-30 11 -97 23t-141 12q-107 0 -175 -48.5t-68 -133.5z" />
<glyph unicode="b" horiz-adv-x="1247" d="M163 1392q1 22 10 35.5t30 20t59 6.5q74 0 103 -32q26 -29 27 -77q0 -5 -1 -10q-5 -78 -8 -344h18q106 156 320 156q205 0 314.5 -148t109.5 -417q0 -272 -153 -437t-396 -165q-101 0 -177.5 21t-123.5 55.5t-77 85.5t-41 105.5t-11 121.5q0 931 -2 972q-1 20 -1 36v15z M381 743q0 -313 4 -407q3 -74 53 -127t152 -53q155 0 243.5 109.5t88.5 316.5q0 194 -66.5 290.5t-187.5 96.5q-59 0 -111 -23t-86.5 -60t-56.5 -72.5t-33 -70.5z" />
<glyph unicode="c" horiz-adv-x="1114" d="M102 565q0 164 64 296t185.5 209t279.5 77q99 0 171.5 -21.5t111 -57.5t56 -75.5t17.5 -83.5q0 -80 -54 -113q-28 -17 -60 -17q-29 0 -60 14q4 18 4 34q0 53 -43 97.5t-133 44.5q-149 0 -233 -107.5t-84 -294.5q0 -196 79.5 -303.5t235.5 -107.5q76 0 148 23t107 46 l34 23q2 -1 6 -3.5t14.5 -11.5t18 -20.5t14 -30.5t6.5 -41q0 -62 -99.5 -111.5t-256.5 -49.5q-257 0 -393 151t-136 434z" />
<glyph unicode="d" horiz-adv-x="1253" d="M102 598q0 244 122.5 396.5t301.5 152.5q71 0 133.5 -25t101.5 -62t62.5 -70.5t32.5 -59.5h14q-3 248 -10 407q-2 34 0 52.5t11 35t29 23t54 6.5q136 0 136 -114v-7q-5 -76 -10 -517q-2 -170 -2 -312q0 -229 5 -389q0 -9 2.5 -27.5t3.5 -30.5t-0.5 -27t-9 -25t-20.5 -15 q-27 -10 -84 -10q-101 0 -101 115q0 31 7 69h-13q-4 -7 -11.5 -19.5t-37 -44.5t-65 -56t-96.5 -44t-130 -20q-187 0 -306.5 166t-119.5 452zM324 600q0 -208 74 -326t194 -118q115 0 196.5 95.5t81.5 250.5v180q-5 20 -17 50t-37.5 73t-58 78t-82 60.5t-104.5 25.5 q-108 0 -177.5 -90t-69.5 -279z" />
<glyph unicode="e" horiz-adv-x="1165" d="M102 569q0 165 59.5 295t177 206.5t275.5 76.5q103 0 188.5 -34.5t139.5 -92t83.5 -131t29.5 -154.5q0 -86 -14.5 -132.5t-36.5 -60.5t-60 -14h-627l-4 -6q0 -71 20 -135t58.5 -116.5t101.5 -83.5t142 -31q26 0 51.5 3t47.5 7.5t44.5 11.5t40 14t35.5 15t30.5 15t25.5 15 t19.5 12.5t13.5 9.5l7 5q35 -18 51 -61q11 -28 11 -52q0 -45 -39 -73q-42 -32 -132 -65t-206 -33q-138 0 -242 44.5t-166.5 124.5t-93.5 185.5t-31 234.5zM319 676h521q4 30 4 59q0 234 -234 234q-78 0 -137 -29.5t-90.5 -77t-46.5 -94t-17 -92.5z" />
<glyph unicode="f" horiz-adv-x="821" d="M88 911v62q0 41 37 47l129 27v100q0 59 17.5 111.5t54.5 97.5t102.5 71.5t153.5 26.5q81 0 188 -22q1 -7 2 -18q2 -7 2 -25v-13q-1 -28 -7 -49.5t-25 -39t-50 -17.5q-18 0 -54 3t-54 3q-48 0 -84.5 -30.5t-36.5 -98.5v-100q71 -2 125 -2t92 2q28 1 38.5 -7t8.5 -28 l-6 -103q-1 -23 -9.5 -32t-27.5 -9h-217q-1 -79 -1 -167v-89q1 -138 3 -304.5t2 -174.5q0 -9 1 -29t1 -31t-3 -27t-10 -24.5t-21.5 -15t-35.5 -6.5h-75q-27 0 -44 10.5t-23.5 31t-8 37.5t-0.5 42v751h-7q-7 0 -17.5 0.5t-24 0.5h-26t-25.5 -0.5t-21 -0.5q-24 -1 -33.5 8 t-9.5 31z" />
<glyph unicode="g" horiz-adv-x="1273" d="M129 748q0 61 16 116.5t54 108t94.5 90.5t144.5 61t197 23h491q1 -4 3.5 -10t6.5 -24.5t5 -35t-2.5 -37t-13 -35t-31 -24.5t-52.5 -10q-107 0 -176 14l-2 -10q3 -1 24 -9.5t32 -13t33 -16.5t35 -23.5t30.5 -30.5t27 -40t16.5 -50.5t7 -62.5q0 -164 -138.5 -254 t-359.5 -90q-149 0 -149 -76q0 -69 131 -69q13 0 107.5 3t123.5 3q173 0 267 -61.5t94 -178.5q0 -147 -130 -240.5t-386 -93.5q-230 0 -358 65t-128 189q0 44 19.5 79t48 54t56.5 31.5t47 16.5l20 4v10q-4 1 -11 3t-25 11.5t-31.5 23t-24.5 40t-11 59.5q0 44 19.5 79 t46.5 53t54.5 30t46.5 15l20 3v11q-6 1 -16.5 2.5t-40.5 10.5t-57 21t-60.5 36t-57.5 53.5t-40.5 75.5t-16.5 100zM338 748q0 -93 66 -145t178 -52q145 0 212.5 61.5t67.5 151.5q0 85 -60.5 146t-168.5 61q-62 0 -111 -9.5t-80.5 -27t-52.5 -38t-32 -47.5t-15 -50.5 t-4 -50.5zM346 -14q0 -144 283 -144q159 0 228 40.5t69 103.5q0 38 -31.5 66t-106.5 28q-39 0 -128.5 -3t-112.5 -3q-99 0 -141 14q-60 -48 -60 -102z" />
<glyph unicode="h" horiz-adv-x="1316" d="M174 80v19v24q4 78 4 174q4 258 4 1046q0 6 -1 26t-0.5 27t5.5 21.5t14.5 20t28.5 11t47 5.5q74 0 106 -30q29 -27 28 -81v-10q-7 -128 -11 -403h21q6 17 19 39.5t43 55.5t67.5 58.5t98 44.5t130.5 19q102 0 178.5 -35t121.5 -98t67 -142.5t22 -175.5q0 -71 -6 -266.5 t-6 -339.5q0 -5 0.5 -18.5t0 -19l-1.5 -16.5t-3.5 -16l-6.5 -13t-11.5 -11.5t-17.5 -8t-24 -6t-32 -1.5q-78 0 -104.5 28t-26.5 78q0 94 3 297t3 315q0 119 -53 195t-154 76q-55 0 -105.5 -22.5t-85 -53.5t-65 -72.5t-46.5 -71.5t-28 -59q-1 -80 -1 -163.5t0.5 -159.5 t0.5 -93q0 -119 2 -137q1 -27 1 -50v-21q-1 -30 -17.5 -48t-50.5 -18h-84q-27 0 -43.5 11t-23 32t-7.5 37z" />
<glyph unicode="i" horiz-adv-x="614" d="M186 1391v13q0 66 28 88q31 24 93 24t94 -24t35 -101q1 -76 -29.5 -99.5t-91.5 -23.5q-64 0 -95 23t-34 100zM190 80v19v24q5 98 5 174q4 258 4 719q0 6 -1 26t-0.5 27t5.5 21t14.5 20t28.5 11t47 5q77 0 105 -20q26 -19 26 -69v-11q-12 -258 -12 -752q0 -119 2 -137 q2 -31 2 -56v-15q-1 -30 -17.5 -48t-50.5 -18h-84q-27 0 -43.5 11t-23 32t-7.5 37z" />
<glyph unicode="j" horiz-adv-x="643" d="M2 -290v12v27q2 28 9 49.5t26 39t49 17.5q17 0 41 -3.5t43 -3.5q36 0 52.5 28t17.5 101q1 95 1 183q0 66 -1 128q-1 145 -5.5 387t-5.5 318q0 7 -1 29t-0.5 31.5t4 26.5t12 25t25 14.5t40.5 6.5q61 0 92.5 -14t39 -36t5.5 -62q-3 -126 -3 -250q0 -21 1 -42 q0 -144 2.5 -399.5t2.5 -345.5q0 -50 -5.5 -90t-23.5 -82t-47.5 -70.5t-80.5 -46.5t-120 -18q-79 0 -168 23q-1 7 -2 17zM211 1391v13q0 66 28 88q31 24 93 24t94 -24t35 -101q1 -76 -29.5 -99.5t-91.5 -23.5q-64 0 -95 23t-34 100z" />
<glyph unicode="k" horiz-adv-x="1292" d="M172 123q3 85 5.5 601.5t2.5 618.5q0 64 7 79q15 32 89 32q79 0 105.5 -32t26.5 -91q0 -195 -13 -399h19q32 87 131 151t233 64q167 0 274 -96t107 -250q0 -72 -28 -132.5t-67.5 -95.5t-79 -59.5t-67.5 -33.5l-28 -9q29 -65 241 -362q10 -15 22 -29t19 -20l7 -7 q-1 -3 -3 -8t-11.5 -17.5t-22.5 -22t-38 -17.5t-56 -8q-98 0 -152 73q-34 45 -129 232.5t-125 236.5l18 33q122 10 202.5 70t80.5 163q0 79 -60 134t-151 55q-76 0 -141 -42.5t-106.5 -110t-65 -150t-23.5 -164.5q0 -15 -1 -97q-1 -55 -1 -103q1 -24 1 -48q0 -68 3 -125 q0 -10 2.5 -29.5t3 -31.5t-2 -28t-9.5 -25.5t-22 -16t-39 -6.5h-82q-27 0 -44 11t-24 31q-6 20 -8 38q-1 10 0 24v19z" />
<glyph unicode="l" horiz-adv-x="663" d="M172 213q0 48 4 336.5t6 493.5q1 102 1 177.5t-1 122.5q-1 14 -1 27q-1 43 13 61q18 23 85 23q81 0 106 -31q22 -27 22 -74q0 -8 -1 -16q-7 -139 -17 -535q-7 -282 -7 -451q0 -67 1 -116q1 -39 11 -54.5t33 -16.5t62 2h7q39 0 41 -33l4 -63v-10q0 -16 -5 -26 q-7 -12 -28 -22q-68 -28 -158 -28q-178 0 -178 233z" />
<glyph unicode="m" horiz-adv-x="1949" d="M164 80v19v24q4 78 4 174q0 152 2 439t2 300q0 9 -1.5 26t-2 26.5t3.5 22.5t14 19.5t30 11.5t50 5q41 0 68.5 -12.5t40.5 -35t17.5 -44.5t4.5 -51q0 -1 -1 -25.5t-1 -48.5h13q5 20 14 40.5t33 54.5t56.5 59t89 44t126.5 19q263 0 342 -217h12q8 25 25.5 54.5t54.5 69.5 t103.5 66.5t150.5 26.5q106 0 183 -35t120 -98.5t62.5 -141.5t19.5 -176q0 -71 -6 -263.5t-6 -336.5q0 -6 0.5 -24t0 -24.5t-2.5 -20.5t-8.5 -20t-17 -13.5t-27.5 -10.5t-41 -3q-78 0 -104.5 30.5t-26.5 81.5q0 93 3 293.5t3 312.5q0 121 -47.5 196t-147.5 75 q-92 0 -160 -54t-110 -131q4 -58 4 -88q0 -71 -6 -266.5t-6 -339.5q0 -46 -15 -68t-57 -22h-80q-26 0 -43 7.5t-24 21.5t-9 26.5t-2 30.5q0 93 7.5 296.5t7.5 315.5q0 122 -45.5 196.5t-145.5 74.5q-191 0 -295 -256q-1 -52 -2.5 -147t-2.5 -168t-1 -124q0 -119 2 -137 q1 -27 1 -50v-21q-1 -30 -17.5 -48t-50.5 -18h-84q-27 0 -43.5 11t-23 32t-7.5 37z" />
<glyph unicode="n" horiz-adv-x="1306" d="M164 80v19v24q4 78 4 174q4 258 4 739q0 9 -1.5 26t-2 26.5t3.5 22.5t14 19.5t30 11.5t50 5q41 0 68.5 -12.5t40.5 -35t17.5 -44.5t4.5 -51q0 -1 -1 -25.5t-1 -48.5h15q7 18 19 39.5t41 55t65.5 59t96 44.5t128.5 19q105 0 183.5 -35t124 -98t67.5 -142.5t22 -175.5 q0 -71 -6 -266.5t-6 -339.5q0 -5 0.5 -18.5t0 -19l-1.5 -16.5t-3.5 -16l-6.5 -13t-11.5 -11.5t-17.5 -8t-24 -6t-32 -1.5q-78 0 -104.5 28t-26.5 78q0 94 6 297t6 315q0 118 -55.5 194.5t-157.5 76.5q-53 0 -102 -21t-83 -50.5t-64.5 -69t-47 -70t-29.5 -60.5 q-4 -290 -4 -424q0 -119 2 -137q1 -27 1 -50v-21q-1 -30 -17.5 -48t-50.5 -18h-84q-27 0 -43.5 11t-23 32t-7.5 37z" />
<glyph unicode="o" horiz-adv-x="1230" d="M104 569q2 123 34.5 226.5t94 183t159 124t220.5 44.5q124 0 223.5 -44.5t163 -123t96.5 -183.5q31 -99 31 -213v-14q-2 -171 -58 -302.5t-173 -210.5t-281 -79q-125 0 -223.5 45t-160.5 124q-64 80 -96 188q-31 101 -30 220v15zM326 569q0 -70 7 -127t26.5 -111.5 t51 -92t82.5 -60t119 -22.5q293 0 293 413q0 85 -15 154t-48 126t-91 88.5t-137 31.5q-69 0 -120.5 -21.5t-83 -57.5t-51 -89t-26.5 -108t-7 -124z" />
<glyph unicode="p" horiz-adv-x="1253" d="M164 -219q5 74 10 523q1 162 1 299q0 243 -5 409q0 9 -2.5 27.5t-3 30.5t1 27t9 25t20.5 15q27 10 84 10q101 0 101 -115q0 -30 -7 -69h12q4 7 11.5 19.5t37 44.5t65 56t96.5 44t130 20q187 0 306.5 -166.5t119.5 -452.5q0 -244 -122.5 -396t-301.5 -152 q-71 0 -133.5 24.5t-101.5 60.5t-62.5 69t-32.5 59h-14q3 -246 10 -406v-15q0 -45 -15 -60q-19 -19 -69 -19h-67q-45 0 -62 22q-16 20 -16 57v9zM383 444q5 -20 17 -50t37.5 -72.5t58 -78t82 -60.5t104.5 -25q108 0 178 90t70 278q0 208 -74 326.5t-194 118.5 q-116 0 -197.5 -100t-81.5 -271v-156z" />
<glyph unicode="q" horiz-adv-x="1236" d="M102 526q0 285 156 453t404 168q409 0 409 -354q0 -947 2 -988q1 -12 1 -22q0 -43 -10 -63q-13 -25 -50 -31q-94 -17 -115 -17q-37 0 -45 23t-8 96q0 12 1 55.5t3 129t4 171.5h-20q-15 -25 -39.5 -50.5t-62 -53.5t-91.5 -45.5t-115 -17.5q-207 0 -315.5 143.5 t-108.5 402.5zM326 528q0 -182 64 -276t179 -94q64 0 116 21.5t85 57t53 69t33 69.5q0 342 -4 436q-3 67 -58.5 112.5t-144.5 45.5q-149 0 -236 -114t-87 -327z" />
<glyph unicode="r" horiz-adv-x="974" d="M162 123q0 9 1 57t1 84q0 99 1 341.5t1 316.5v94q0 8 -0.5 28.5t0 28t2.5 23t8 22t16 15t26.5 11.5t39.5 3q75 0 98 -45t23 -172h14q33 107 113.5 162t173.5 55q233 0 233 -258q0 -83 -30 -113.5t-109 -30.5q-19 0 -31 1t-20 6t-12 8.5t-5.5 14t-1.5 17.5t0.5 24.5 t0.5 29.5q0 123 -97 123q-58 0 -109.5 -58.5t-79 -131t-34.5 -136.5q-4 -123 -4.5 -249.5t4.5 -256.5q0 -9 2 -29.5t2.5 -32t-2 -28t-10 -25.5t-23 -15.5t-39.5 -6.5h-77q-27 0 -43.5 10.5t-23 32.5t-8 37t-1.5 43z" />
<glyph unicode="s" horiz-adv-x="1089" d="M123 825q0 147 113 234.5t313 87.5q80 0 143.5 -9t101 -23t64 -31.5t36.5 -32.5t13 -29q3 -11 3 -23q0 -27 -12 -55q-18 -42 -42 -63q-5 4 -14 9.5t-39.5 21t-64 27t-84.5 21t-103 9.5q-35 0 -66.5 -5t-67.5 -18.5t-57.5 -44t-21.5 -74.5q0 -48 33 -78.5t104 -52.5 l172 -53q164 -52 237.5 -121t73.5 -194q0 -158 -119 -253t-343 -95q-95 0 -167 13.5t-111.5 36t-59 47.5t-21.5 52v12q0 34 14 67q17 38 31 46q5 -4 14.5 -10.5t41.5 -23.5t66.5 -30t86.5 -23.5t105 -10.5q49 0 91.5 8t80 24.5t59 47.5t21.5 73q0 55 -47.5 90.5t-135.5 63.5 l-170 55q-147 48 -209.5 117t-62.5 190z" />
<glyph unicode="t" horiz-adv-x="917" d="M74 1059q0 14 9.5 26.5t31.5 12.5q49 0 87 14t59.5 35t35.5 49.5t19 51.5t6 48q2 26 12.5 39t40.5 13h16.5h18.5t17 -1t17 -3t13.5 -6.5t12 -10.5t6 -15.5t1.5 -21.5q-4 -102 -4 -164q31 -3 132.5 -3t168.5 3h6q43 0 43 -39v-100q0 -39 -43 -39q-42 2 -120 2t-136 -1 l-57 -1q-8 -166 -8 -635q0 -88 24.5 -117.5t89.5 -29.5q16 0 32.5 2t34 6.5t27.5 7.5t29.5 9.5l22.5 7.5q33 9 48.5 1t18.5 -28l13 -70q5 -28 -1 -44t-30 -27q-44 -23 -111.5 -37t-130.5 -14q-156 0 -224 76q-66 72 -66 229v14q1 43 3.5 205t4.5 289.5t2 150.5h-121 q-29 0 -39 8t-10 33q0 9 -1 34.5t-1 39.5z" />
<glyph unicode="u" horiz-adv-x="1286" d="M150 430q0 71 6 266.5t6 339.5q0 4 -0.5 20.5t0 21.5t2 18t5.5 17.5t11 13t17 11.5t25.5 6t35.5 3q78 0 104.5 -28.5t26.5 -78.5q0 -94 -6 -297t-6 -315q0 -120 51 -195t152 -75q52 0 99.5 20t80 48.5t61.5 67t45 68.5t29 60q4 294 4 430q0 119 -2 137q-1 27 -1 50v21 q1 30 18 48t51 18h84q27 0 44 -11.5t22 -29.5q5 -17 7 -39q1 -11 1 -21.5t-1 -20.5q-4 -78 -4 -175q-4 -258 -4 -739q0 -8 2.5 -30.5t0.5 -32t-10 -23t-29.5 -19t-57.5 -5.5q-41 0 -68.5 12.5t-40.5 35t-17.5 44.5t-4.5 51q0 1 1 24.5t1 49.5h-14q-5 -17 -17.5 -40 t-40.5 -55.5t-64 -58.5t-93.5 -44.5t-124.5 -18.5q-105 0 -182 35t-120.5 98t-64 141.5t-20.5 175.5z" />
<glyph unicode="v" horiz-adv-x="1169" d="M59 1071q-1 4 -1 8q0 15 10 29q12 18 45 18h75q45 0 61 -15t29 -52q2 -7 3 -10q39 -108 150 -442.5t142 -450.5h15q32 115 140 442.5t151 448.5q8 23 12.5 32.5t14 23t24.5 18.5t37 5h102q35 0 41 -34q2 -10 2 -20q0 -23 -10 -46q-42 -119 -159 -433.5t-183 -479.5 q-24 -59 -42 -79q-31 -34 -81 -34h-115q-79 0 -116 98q-37 92 -93 246t-100.5 280t-90 254.5t-50.5 143.5q-10 29 -13 49z" />
<glyph unicode="w" horiz-adv-x="1867" d="M45 1081q1 14 5 22q4 9 16.5 16t33.5 7h72q73 0 98 -79q21 -65 118.5 -424t125.5 -467h10q17 59 119.5 456t112.5 432q12 43 31.5 62.5t66.5 19.5h150q68 0 94 -82l227 -886h10q15 48 65.5 231.5t109.5 397.5t71 257q5 21 10 33t14.5 25t26 18.5t41.5 5.5h92q37 0 43 -36 q2 -11 2 -22q0 -23 -10 -44q-29 -87 -155.5 -494t-128.5 -415q-7 -23 -14 -39t-21 -35.5t-37.5 -30t-54.5 -10.5h-117q-40 0 -70.5 18t-40.5 56q-7 29 -59 222t-104 393t-68 278h-12q-25 -120 -115 -459t-119 -436q-18 -72 -106 -72h-121q-53 0 -83 31t-40 69l-277 920 q-5 18 -8 30q-4 14 -4 31z" />
<glyph unicode="x" horiz-adv-x="1169" d="M90 1095q6 31 45 31h101q61 0 92 -59q16 -29 123 -182.5t129 -190.5h10q34 54 126 185.5t128 189.5q10 16 17.5 26t26.5 20.5t42 10.5h104q38 0 46 -30q2 -8 2 -16q0 -22 -15 -42q-1 -2 -138.5 -194t-193.5 -279q42 -68 124 -184.5t147 -207t69 -97.5q6 -13 6 -30 t-12.5 -31.5t-34.5 -14.5h-108q-58 0 -82 47q-22 39 -126 189.5t-128 193.5h-10q-23 -42 -127 -191t-127 -194t-86 -45h-103q-29 0 -42 24q-7 12 -7 25q0 12 6 25t77 106t160 210.5t126 174.5q-48 75 -180.5 244.5t-172.5 228.5q-15 20 -15 42q-1 7 1 15z" />
<glyph unicode="y" horiz-adv-x="1130" d="M44 1091q2 17 16.5 26t41.5 9h66q23 0 39.5 -4.5t25.5 -8.5t17.5 -17.5t11 -19.5t10.5 -27q3 -7 75 -196.5t140.5 -373.5t94.5 -262h12l237 830q11 42 29.5 60.5t69.5 18.5h88q42 0 50 -30q4 -11 4 -23q0 -21 -9 -47q-15 -56 -72.5 -239t-126 -401t-94.5 -302 q-30 -98 -63.5 -168.5t-81.5 -128t-113.5 -86.5t-149.5 -29q-147 0 -223 39q-29 13 -36 28.5t1 47.5l17 70q7 32 34 32q13 0 31 -8q70 -33 160 -33q80 0 126 57t85 195h-59q-44 0 -64.5 14.5t-34.5 53.5q-27 72 -183 459.5t-159 394.5q-8 21 -11 36q-2 11 -2 22v11z" />
<glyph unicode="z" horiz-adv-x="1007" d="M86 76v82q64 85 299 411t262 373q-27 1 -79 1h-58q-96 -1 -225 -3t-133 -2q-25 0 -38.5 12t-13.5 47v78q0 25 16 38t40 13h669q43 0 59.5 -19.5t18.5 -62.5v-63q-30 -37 -273 -373.5t-294 -414.5q73 0 274 2.5t209 3.5q27 4 46.5 -11t19.5 -63v-51q0 -27 -5 -43 t-17 -22.5t-20.5 -7.5t-26.5 -1h-7h-662q-61 0 -61 76z" />
<glyph unicode="|" horiz-adv-x="552" d="M195 -203q2 69 2 1604q0 44 13.5 59t47.5 15h33q35 0 52 -15.5t17 -58.5q0 -18 -3 -404.5t-5 -765t0 -434.5q1 -36 -11 -49.5t-42 -13.5h-59q-28 0 -37.5 14t-7.5 49z" />
<glyph unicode="~" horiz-adv-x="931" d="M43.5 596q-4.5 15 11.5 47q18 33 41 64t56 64.5t74.5 54t84.5 20.5q46 0 88.5 -17.5t74 -42.5t59 -50t53.5 -42.5t47 -17.5q22 0 40.5 10.5t26.5 19t21 29t14 21.5q18 21 42 22t46 -20l56 -56q23 -23 23.5 -38.5t-19.5 -47.5q-32 -51 -97 -96t-153 -45q-53 0 -103.5 25.5 t-83 56.5t-69 56.5t-64.5 25.5q-13 0 -25.5 -6t-21.5 -14t-20.5 -22.5t-17 -23t-15.5 -25t-12 -20.5q-11 -18 -25 -21t-27.5 3.5t-33.5 21.5l-39 29q-28 20 -32.5 35z" />
<glyph unicode="&#xa6;" horiz-adv-x="595" d="M215 336q0 43 39 43h84q21 0 30 -10.5t9 -34.5q0 -38 -0.5 -187t-0.5 -258t1 -131q3 -65 -58 -65h-55q-47 0 -47 67q0 447 -2 576zM217 860q1 44 1.5 130.5t0 161t-1 143t-0.5 69.5q0 40 12.5 55t44.5 15h45q30 0 46 -16t16 -56q0 -383 -2 -502q0 -43 -39 -43h-84 q-39 0 -39 43z" />
<glyph unicode="&#xa9;" horiz-adv-x="1937" d="M102 756q0 148 336 315l123 25h10l17 -17q-8 -14 -195 -73q-221 -124 -256 -293h-8q-15 0 -27 43zM156 356v74q0 199 317 492q56 41 88 41l10 -9v-8q-282 -261 -282 -473v-84q0 -106 123 -174v-18l-62 -17q-106 18 -150 60.5t-44 115.5zM315 1087q109 152 273 152 q125 -18 125 -51v-17l-107 17h-26q-143 0 -256 -101h-9zM606 639q12 233 72 233h8q27 -9 27 -51v-149q38 -190 221 -342q149 -82 256 -82h43q77 0 178 82h27l8 -25q-24 -78 -89 -158t-155 -135l-6 4q-86 -23 -163.5 -5.5t-143 64t-118 114.5t-89.5 145t-57 156.5t-19 148.5z M625 1305v16l149 43q102 0 123 -109l-16 -43h-35q0 78 -90 109h-51zM889 881v16l26 25q231 -117 416 -117h53q318 24 318 184l-8 66h8q93 -47 133 -166v-60q0 -134 -301 -174h-115q-203 0 -504 183zM969 1389v16l80 16q122 -9 122 -84q-38 -105 -141 -166h-35v17 q80 83 80 125v16q0 60 -71 60h-35zM1030 1055q0 20 133 41q185 63 248 159v41q-35 50 -61 50l-19 22l35 4q178 -34 178 -117q0 -154 -461 -225q-44 0 -53 25z" />
<glyph unicode="&#xaa;" horiz-adv-x="784" d="M98 956q-1 91 65.5 143t174.5 50q81 0 164 -25v54q0 51 -36 75.5t-99 24.5q-40 0 -83.5 -11t-67.5 -21l-23 -11l-6 7q-6 8 -14 22t-12.5 30.5t0 36t21.5 35.5q50 47 205 47q125 0 193.5 -61.5t70.5 -165.5q1 -37 0.5 -172t1.5 -150q0 -8 3.5 -26.5t2.5 -27t-7 -20 t-25.5 -16t-51.5 -4.5q-92 0 -77 107h-6q-2 -4 -6.5 -11.5t-22 -26t-37.5 -32.5t-54.5 -25.5t-72.5 -11.5q-91 0 -144.5 53t-56.5 133zM264 965q0 -35 25.5 -53.5t64.5 -18.5q53 0 94.5 29t49.5 63v47q-28 12 -109 12q-55 0 -90.5 -21t-34.5 -58z" />
<glyph unicode="&#xac;" horiz-adv-x="1228" d="M193 686v51q0 40 15.5 48t63.5 6q90 -3 370 -1.5t319 3.5q38 0 55.5 -14t17.5 -50v-350q2 -53 -7.5 -69t-47.5 -17l-72 -2q-33 0 -41 18.5t-8 69.5v248q-44 0 -301.5 -2t-294.5 -2q-47 0 -58 10t-11 53z" />
<glyph unicode="&#xad;" horiz-adv-x="917" d="M154 668v77q0 34 12.5 45t54.5 11q396 0 488 6q32 1 44.5 -17.5t12.5 -56.5l-2 -74q0 -34 -13 -44.5t-55 -10.5l-483 -4q-34 0 -46.5 15.5t-12.5 52.5z" />
<glyph unicode="&#xb0;" horiz-adv-x="966" d="M131 1040q0 164 92.5 268.5t261.5 104.5t260 -104t91 -269q0 -164 -94.5 -268t-256.5 -104q-178 0 -266 101t-88 271zM319 1042q0 -48 6.5 -84t23.5 -69.5t51 -51.5t85 -18q160 0 160 223q0 220 -160 220q-51 0 -85 -17.5t-51 -51t-23.5 -69t-6.5 -82.5z" />
<glyph unicode="&#xb1;" horiz-adv-x="1249" d="M199 891v72q0 34 13 40.5t54 4.5q35 -2 266 -2v294q0 44 9.5 58t42.5 14h69q31 0 43.5 -17t10.5 -57q-2 -27 -2 -292q63 0 128.5 0.5t106 1t43.5 0.5q39 2 52.5 -8.5t13.5 -45.5v-69q0 -31 -14 -39t-52 -6q-23 2 -278 2v-236q1 -42 -9 -53.5t-43 -11.5h-71 q-32 0 -42 16.5t-8 58.5v226q-133 -2 -278 -2q-39 0 -47 7.5t-8 43.5zM203 250v57q0 20 4 30.5t12.5 14.5t22.5 4.5t34 -0.5q81 -3 372 -1.5t327 3.5q44 2 58 -9t14 -48v-59q0 -33 -15.5 -41t-58.5 -6q-64 1 -188.5 0.5t-307 -1.5t-211.5 -1q-43 0 -53 9t-10 48z" />
<glyph unicode="&#xb2;" horiz-adv-x="602" d="M66 1026q32 25 90 66q40 28 61 44t54.5 45t51 50.5t31 50.5t13.5 57q0 24 -18 38t-52 14q-44 0 -90 -10.5t-70 -21.5l-24 -11q-11 10 -21 30q-13 27 -15 47t8 32t15.5 16t20.5 12q54 31 176 31q101 0 164.5 -44t64.5 -126q1 -21 -3 -41t-17 -40.5t-21.5 -34t-32 -36 t-33 -31.5t-39.5 -34.5t-38 -32.5l-59 -52v-8q93 0 192 6q26 3 38.5 -9t10.5 -34v-57q0 -22 -9.5 -28.5t-43.5 -6.5h-348q-55 0 -55 43q0 12 -1 38t-1 38z" />
<glyph unicode="&#xb3;" horiz-adv-x="636" d="M74.5 959q-10.5 20 1.5 57q4 13 10.5 25.5t11.5 18.5l4 7q11 -5 29.5 -13.5t73 -22t104.5 -13.5q54 0 81.5 20t27.5 54q0 58 -119 63h-78q-22 0 -22 27v63q0 23 18 23h76q46 0 72 18.5t26 48.5q0 29 -19.5 44.5t-68.5 15.5q-47 0 -93 -10.5t-68 -21.5l-23 -11 q-13 12 -23 30q-34 65 19 95q19 11 72.5 25t119.5 14q238 0 238 -173q0 -26 -9.5 -48.5t-23.5 -36t-28 -23t-24 -13.5l-9 -3v-7q5 0 13 -1t28.5 -9t36.5 -20.5t29 -39.5t13 -63q0 -77 -73 -128.5t-189 -51.5q-59 0 -113.5 10.5t-76.5 18.5q-34 11 -44.5 31z" />
<glyph unicode="&#xb9;" horiz-adv-x="493" d="M57 1358q-22 41 9 55l223 92h59q19 0 30.5 -8t15.5 -20t5.5 -26t-0.5 -26q-4 -69 -4 -147t2 -174t2 -150q0 -22 -11.5 -34.5t-43.5 -12.5h-61q-24 0 -37 13q-19 17 -15 63q9 106 13 365l-125 -39q-10 -6 -19 -3t-12.5 5t-7.5 8l-4 6z" />
<glyph unicode="&#xba;" horiz-adv-x="845" d="M109 1096q2 140 82 228.5t229 88.5q151 0 234 -89.5t81 -229.5q-3 -143 -84.5 -233.5t-230.5 -90.5q-150 0 -231.5 90.5t-79.5 235.5zM272 1096q0 -44 5.5 -76.5t20.5 -63t45.5 -47t76.5 -16.5t76.5 16.5t45.5 47t21 63t6 76.5q0 192 -149 192q-46 0 -76.5 -15 t-45.5 -43.5t-20.5 -59.5t-5.5 -74z" />
<glyph unicode="&#xc0;" horiz-adv-x="1376" d="M88 78q24 78 221.5 636t206.5 586q27 93 119 93h125q94 0 127 -101q9 -37 200 -606t201 -604q20 -82 -59 -82h-60q-22 0 -38 5t-25 15.5t-13.5 18t-9.5 22.5t-6 19q-2 4 -32.5 94.5t-59.5 161.5h-588q-17 -46 -40 -109t-34.5 -95.5t-15.5 -45.5q-12 -46 -31.5 -66 t-56.5 -20h-82q-31 0 -45.5 20.5t-3.5 57.5zM444 500h492q-207 610 -238 727h-12q-47 -168 -242 -727zM456.5 1702q-3.5 17 8.5 43l33 76q11 25 23 29t42 -13q86 -47 402 -205q42 -22 14 -76l-18 -34q-13 -25 -23.5 -29.5t-42.5 8.5l-412 174q-23 10 -26.5 27z" />
<glyph unicode="&#xc1;" horiz-adv-x="1376" d="M88 78q24 78 221.5 636t206.5 586q27 93 119 93h125q94 0 127 -101q9 -37 200 -606t201 -604q20 -82 -59 -82h-60q-22 0 -38 5t-25 15.5t-13.5 18t-9.5 22.5t-6 19q-2 4 -32.5 94.5t-59.5 161.5h-588q-17 -46 -40 -109t-34.5 -95.5t-15.5 -45.5q-12 -46 -31.5 -66 t-56.5 -20h-82q-31 0 -45.5 20.5t-3.5 57.5zM428 1556q-28 54 14 76q316 158 402 205q30 17 42 13t23 -29l33 -76q12 -26 8.5 -43t-26.5 -27l-412 -174q-32 -13 -42.5 -8.5t-23.5 29.5zM444 500h492q-207 610 -238 727h-12q-47 -168 -242 -727z" />
<glyph unicode="&#xc2;" horiz-adv-x="1376" d="M88 78q24 78 221.5 636t206.5 586q27 93 119 93h125q94 0 127 -101q9 -37 200 -606t201 -604q20 -82 -59 -82h-60q-22 0 -38 5t-25 15.5t-13.5 18t-9.5 22.5t-6 19q-2 4 -32.5 94.5t-59.5 161.5h-588q-17 -46 -40 -109t-34.5 -95.5t-15.5 -45.5q-12 -46 -31.5 -66 t-56.5 -20h-82q-31 0 -45.5 20.5t-3.5 57.5zM377 1597q-33 44 14 76q19 14 125 89t154 116q16 14 32 14q18 0 35 -14l279 -205q47 -32 14 -76l-26 -34q-2 -2 -6 -7.5t-5 -7.5t-4.5 -6t-5 -5t-5 -3t-6 -2t-6.5 -0.5t-8 1t-9 4l-11 5.5l-236 144q-33 -21 -124 -76.5 t-109 -67.5q-13 -8 -22 -10.5t-17 3t-12.5 10t-14.5 18.5zM444 500h492q-207 610 -238 727h-12q-47 -168 -242 -727z" />
<glyph unicode="&#xc3;" horiz-adv-x="1376" d="M88 78q24 78 221.5 636t206.5 586q27 93 119 93h125q94 0 127 -101q9 -37 200 -606t201 -604q20 -82 -59 -82h-60q-22 0 -38 5t-25 15.5t-13.5 18t-9.5 22.5t-6 19q-2 4 -32.5 94.5t-59.5 161.5h-588q-17 -46 -40 -109t-34.5 -95.5t-15.5 -45.5q-12 -46 -31.5 -66 t-56.5 -20h-82q-31 0 -45.5 20.5t-3.5 57.5zM373.5 1622.5q-3.5 13.5 7.5 40.5q31 63 83 112.5t116 49.5q42 0 82.5 -20.5t65 -45t51.5 -45t46 -20.5q23 0 40 9t23.5 17.5t16.5 24.5q12 18 31 19t37 -17l39 -41q18 -20 18.5 -33.5t-14.5 -42.5q-25 -44 -74 -80.5t-117 -36.5 q-40 0 -78.5 20t-63 43.5t-53 43.5t-50.5 20q-48 0 -86 -79q-6 -12 -13 -16.5t-16 -2t-17 7.5t-20 15l-31 26q-20 18 -23.5 31.5zM444 500h492q-207 610 -238 727h-12q-47 -168 -242 -727z" />
<glyph unicode="&#xc4;" horiz-adv-x="1376" d="M88 78q24 78 221.5 636t206.5 586q27 93 119 93h125q94 0 127 -101q9 -37 200 -606t201 -604q20 -82 -59 -82h-60q-22 0 -38 5t-25 15.5t-13.5 18t-9.5 22.5t-6 19q-2 4 -32.5 94.5t-59.5 161.5h-588q-17 -46 -40 -109t-34.5 -95.5t-15.5 -45.5q-12 -46 -31.5 -66 t-56.5 -20h-82q-31 0 -45.5 20.5t-3.5 57.5zM305 1626q-3 77 28 101t93 24t94 -24t35 -101q1 -76 -29.5 -99.5t-91.5 -23.5q-65 0 -96.5 23.5t-32.5 99.5zM444 500h492q-207 610 -238 727h-12q-47 -168 -242 -727zM846 1626q-3 77 28 101t93 24t94 -24t35 -101 q1 -76 -29.5 -99.5t-91.5 -23.5q-65 0 -96.5 23.5t-32.5 99.5z" />
<glyph unicode="&#xc5;" horiz-adv-x="1376" d="M88 78q24 78 221.5 636t206.5 586q27 93 119 93h125q94 0 127 -101q9 -37 200 -606t201 -604q20 -82 -59 -82h-60q-22 0 -38 5t-25 15.5t-13.5 18t-9.5 22.5t-6 19q-2 4 -32.5 94.5t-59.5 161.5h-588q-17 -46 -40 -109t-34.5 -95.5t-15.5 -45.5q-12 -46 -31.5 -66 t-56.5 -20h-82q-31 0 -45.5 20.5t-3.5 57.5zM399 1702q0 109 79 179.5t224 70.5t223.5 -69.5t78.5 -180.5q0 -108 -81.5 -178t-220.5 -70q-153 0 -228 68t-75 180zM444 500h492q-207 610 -238 727h-12q-47 -168 -242 -727zM561 1704q0 -54 29.5 -88.5t111.5 -34.5 q77 0 108.5 35t31.5 88q0 51 -31.5 85t-108.5 34q-82 0 -111.5 -33t-29.5 -86z" />
<glyph unicode="&#xc6;" horiz-adv-x="1824" d="M64 68.5q5 26.5 18 54.5q88 189 575 1167q24 50 57.5 76.5t98.5 26.5l797 -2q69 0 69 -76v-58q0 -68 -71 -65q-6 0 -260.5 1t-309.5 1l-6 -414q49 0 270.5 1t223.5 1q23 2 40 -14t17 -45v-61q1 -32 -12 -46t-41 -12q-25 2 -502 2q0 -26 1 -205t1 -204l582 2q67 3 67 -68 v-57q0 -44 -11.5 -59t-55.5 -15h-719q-22 0 -37 6.5t-22.5 14.5t-11.5 24.5t-4.5 27t-0.5 31.5v232h-409q-70 -148 -107 -240q-3 -7 -9 -25.5t-8.5 -24.5t-9.5 -18t-14 -16t-19.5 -8t-29.5 -4h-111q-25 0 -33 21t-3 47.5zM487 500h334q19 675 19 729h-15 q-45 -84 -164.5 -340.5t-173.5 -388.5z" />
<glyph unicode="&#xc7;" horiz-adv-x="1314" d="M125 696q0 155 41 284.5t120 226.5t204.5 151.5t285.5 54.5q232 0 369 -90q20 -14 32.5 -33t10 -52.5t-30.5 -70.5q-12 -16 -24.5 -27t-18.5 -14l-6 -4q-4 4 -13 11t-39.5 25.5t-65.5 32t-92 25t-118 11.5q-108 0 -192 -41.5t-135 -114.5t-77 -167.5t-26 -205.5 q0 -150 49.5 -269.5t148 -191t230.5 -71.5q155 0 264 78q12 7 19.5 10.5t18 5t20 -6t18.5 -22.5l43 -71q10 -17 13.5 -26.5t0.5 -22.5t-18 -25q-50 -39 -146 -72.5t-233 -33.5q-6 0 -18.5 1t-18.5 1q-7 -23 -11 -37.5t-1 -14.5q69 -5 106 -32t37 -86q0 -55 -60 -97.5 t-153 -42.5q-112 0 -112 72q0 18 6.5 34t12.5 22l7 7q35 -18 80 -18q90 0 90 47q0 24 -33.5 36.5t-70.5 12.5q-22 0 -14 29q4 16 28 76q-131 19 -232.5 79.5t-165.5 154t-97 212.5t-33 260z" />
<glyph unicode="&#xc8;" horiz-adv-x="1234" d="M189.5 1316.5q-0.5 12.5 2.5 28.5t10.5 25.5t23.5 16t40 6.5h758q40 0 53 -18t13 -56v-59q0 -35 -16.5 -50.5t-53.5 -15.5h-600l-4 -412q473 0 524 2q24 2 39.5 -12t15.5 -43v-74q0 -31 -11 -41t-40 -10h-526l6 -405q506 0 598 6q35 3 51.5 -14.5t16.5 -53.5v-82 q0 -34 -13 -44.5t-55 -10.5h-743q-27 0 -44 11t-23.5 31.5t-8 38t-0.5 42.5q2 60 -0.5 331t-6 533t-3.5 268q0 10 -1.5 29.5t-2 32zM372.5 1702q-3.5 17 8.5 43l33 76q11 25 23 29t42 -13q86 -47 402 -205q42 -22 14 -76l-18 -34q-13 -25 -23.5 -29.5t-42.5 8.5l-412 174 q-23 10 -26.5 27z" />
<glyph unicode="&#xc9;" horiz-adv-x="1234" d="M189.5 1316.5q-0.5 12.5 2.5 28.5t10.5 25.5t23.5 16t40 6.5h758q40 0 53 -18t13 -56v-59q0 -35 -16.5 -50.5t-53.5 -15.5h-600l-4 -412q473 0 524 2q24 2 39.5 -12t15.5 -43v-74q0 -31 -11 -41t-40 -10h-526l6 -405q506 0 598 6q35 3 51.5 -14.5t16.5 -53.5v-82 q0 -34 -13 -44.5t-55 -10.5h-743q-27 0 -44 11t-23.5 31.5t-8 38t-0.5 42.5q2 60 -0.5 331t-6 533t-3.5 268q0 10 -1.5 29.5t-2 32zM383 1556q-28 54 14 76q316 158 402 205q30 17 42 13t23 -29l33 -76q12 -26 8.5 -43t-26.5 -27l-412 -174q-32 -13 -42.5 -8.5t-23.5 29.5z " />
<glyph unicode="&#xca;" horiz-adv-x="1234" d="M189.5 1316.5q-0.5 12.5 2.5 28.5t10.5 25.5t23.5 16t40 6.5h758q40 0 53 -18t13 -56v-59q0 -35 -16.5 -50.5t-53.5 -15.5h-600l-4 -412q473 0 524 2q24 2 39.5 -12t15.5 -43v-74q0 -31 -11 -41t-40 -10h-526l6 -405q506 0 598 6q35 3 51.5 -14.5t16.5 -53.5v-82 q0 -34 -13 -44.5t-55 -10.5h-743q-27 0 -44 11t-23.5 31.5t-8 38t-0.5 42.5q2 60 -0.5 331t-6 533t-3.5 268q0 10 -1.5 29.5t-2 32zM317 1597q-32 43 15 76q17 13 123.5 88.5t154.5 116.5q16 14 33 14t35 -14l278 -205q47 -33 15 -76l-27 -34q-2 -3 -5.5 -8t-5 -7t-5 -5.5 l-5 -5t-4.5 -3.5t-6 -2.5t-6.5 -0.5t-7.5 1.5t-9 4l-11 5.5l-236 144q-33 -21 -124 -76.5t-109 -67.5q-13 -8 -22 -10.5t-17 3t-12.5 10t-14.5 18.5z" />
<glyph unicode="&#xcb;" horiz-adv-x="1234" d="M189.5 1316.5q-0.5 12.5 2.5 28.5t10.5 25.5t23.5 16t40 6.5h758q40 0 53 -18t13 -56v-59q0 -35 -16.5 -50.5t-53.5 -15.5h-600l-4 -412q473 0 524 2q24 2 39.5 -12t15.5 -43v-74q0 -31 -11 -41t-40 -10h-526l6 -405q506 0 598 6q35 3 51.5 -14.5t16.5 -53.5v-82 q0 -34 -13 -44.5t-55 -10.5h-743q-27 0 -44 11t-23.5 31.5t-8 38t-0.5 42.5q2 60 -0.5 331t-6 533t-3.5 268q0 10 -1.5 29.5t-2 32zM244 1626q-3 77 28 101t93 24t94 -24t35 -101q1 -76 -29.5 -99.5t-91.5 -23.5q-65 0 -96.5 23.5t-32.5 99.5zM784 1626q-3 77 28 101t93 24 t94 -24t35 -101q1 -76 -29.5 -99.5t-91.5 -23.5q-65 0 -96.5 23.5t-32.5 99.5z" />
<glyph unicode="&#xcc;" horiz-adv-x="665" d="M65.5 1702q-3.5 17 8.5 43l32 76q11 25 23.5 29t42.5 -13q97 -53 401 -205q43 -22 15 -76l-19 -34q-13 -25 -23 -29.5t-42 8.5l-412 174q-23 10 -26.5 27zM209.5 1316.5q-0.5 12.5 2 28.5t10 25.5t23.5 16t40 6.5h82q27 0 44 -10.5t23 -31t7.5 -37.5t0.5 -42 q-4 -248 -0.5 -616t7.5 -519q1 -8 3 -29.5t3 -32t-2 -27.5t-10.5 -25.5t-23.5 -15.5t-40 -7h-80q-27 0 -44 11t-23.5 31.5t-8 38t-0.5 42.5q2 77 -4 568.5t-6 563.5q0 10 -1.5 29.5t-2 32z" />
<glyph unicode="&#xcd;" horiz-adv-x="665" d="M55 1556q-28 54 15 76q304 152 401 205q30 17 42.5 13t23.5 -29l32 -76q12 -26 8.5 -43t-26.5 -27l-412 -174q-32 -13 -42 -8.5t-23 29.5zM209.5 1316.5q-0.5 12.5 2 28.5t10 25.5t23.5 16t40 6.5h82q27 0 44 -10.5t23 -31t7.5 -37.5t0.5 -42q-4 -248 -0.5 -616t7.5 -519 q1 -8 3 -29.5t3 -32t-2 -27.5t-10.5 -25.5t-23.5 -15.5t-40 -7h-80q-27 0 -44 11t-23.5 31.5t-8 38t-0.5 42.5q2 77 -4 568.5t-6 563.5q0 10 -1.5 29.5t-2 32z" />
<glyph unicode="&#xce;" horiz-adv-x="665" d="M-2 1597q-33 44 14 76q19 14 125 89t154 116q16 14 33 14q16 0 34 -14l279 -205q47 -32 14 -76l-26 -34q-2 -2 -6 -7.5t-5 -7.5t-4.5 -6t-5 -5t-5 -3t-6 -2t-6.5 -0.5t-8 1t-9 4l-11 5.5l-235 144q-34 -21 -125 -76.5t-109 -67.5q-13 -8 -21.5 -10.5t-17 3t-12 10 t-14.5 18.5zM209.5 1316.5q-0.5 12.5 2 28.5t10 25.5t23.5 16t40 6.5h82q27 0 44 -10.5t23 -31t7.5 -37.5t0.5 -42q-4 -248 -0.5 -616t7.5 -519q1 -8 3 -29.5t3 -32t-2 -27.5t-10.5 -25.5t-23.5 -15.5t-40 -7h-80q-27 0 -44 11t-23.5 31.5t-8 38t-0.5 42.5q2 77 -4 568.5 t-6 563.5q0 10 -1.5 29.5t-2 32z" />
<glyph unicode="&#xcf;" horiz-adv-x="665" d="M-70 1626q-3 77 28 101t93 24t94 -24t35 -101q1 -76 -29.5 -99.5t-91.5 -23.5q-65 0 -96.5 23.5t-32.5 99.5zM209.5 1316.5q-0.5 12.5 2 28.5t10 25.5t23.5 16t40 6.5h82q27 0 44 -10.5t23 -31t7.5 -37.5t0.5 -42q-4 -248 -0.5 -616t7.5 -519q1 -8 3 -29.5t3 -32 t-2 -27.5t-10.5 -25.5t-23.5 -15.5t-40 -7h-80q-27 0 -44 11t-23.5 31.5t-8 38t-0.5 42.5q2 77 -4 568.5t-6 563.5q0 10 -1.5 29.5t-2 32zM471 1626q-3 77 28 101t93 24t94 -24t35 -101q1 -76 -29.5 -99.5t-91.5 -23.5q-65 0 -96.5 23.5t-32.5 99.5z" />
<glyph unicode="&#xd1;" horiz-adv-x="1525" d="M190 123q1 38 1.5 168t0.5 294t-0.5 317t-1 271t-0.5 123q0 26 2 40t9.5 29t25 21.5t47.5 6.5h107l717 -926h14q-3 58 -5.5 428.5t-2.5 437.5q-2 27 12.5 43.5t63.5 16.5h80q21 0 36 -8.5t22 -18t10.5 -29.5t4 -31t0.5 -34q0 -10 -1 -188.5t-2 -370.5t-1 -369t2 -207 q0 -9 2 -29.5t2.5 -32t-2 -28t-10 -25.5t-23.5 -15.5t-40 -6.5h-78q-73 0 -78 113q-1 29 -145.5 218.5t-321.5 411.5t-217 281h-19q0 -93 8.5 -474.5t10.5 -412.5q0 -9 2 -29.5t2.5 -32t-2.5 -28t-10.5 -25.5t-23.5 -15.5t-40 -6.5h-82q-27 0 -44 11t-23.5 31.5t-8 38 t-0.5 42.5zM435 1622.5q-4 13.5 7 40.5q31 63 83 112.5t116 49.5q42 0 82.5 -20.5t65.5 -45t52 -45t46 -20.5q23 0 40 9t23.5 17.5t16.5 24.5q12 18 30.5 19t36.5 -17l39 -41q18 -20 18.5 -33.5t-14.5 -42.5q-25 -44 -73.5 -80.5t-116.5 -36.5q-40 0 -79 20t-63.5 43.5 t-53 43.5t-50.5 20q-48 0 -86 -79q-6 -12 -13 -16.5t-16 -2t-17 7.5t-20 15l-30 26q-20 18 -24 31.5z" />
<glyph unicode="&#xd2;" horiz-adv-x="1486" d="M125 696q0 154 38.5 282.5t113.5 226.5t195.5 153t275.5 55q145 0 262 -55t193 -151.5t117 -227t42 -283.5q0 -206 -70.5 -366.5t-212 -255t-334.5 -94.5q-155 0 -275 54t-194.5 151t-112.5 226t-38 285zM350 698q0 -87 12.5 -163t42 -144.5t74 -117.5t112.5 -78t154 -29 q103 0 180.5 44t122 120t66 168.5t21.5 199.5q0 88 -13 164t-42 144t-73.5 116.5t-111 76.5t-150.5 28q-85 0 -153 -28t-113 -76.5t-74.5 -116.5t-42 -144t-12.5 -164zM466.5 1702q-3.5 17 8.5 43l33 76q11 25 23 29t42 -13q86 -47 402 -205q42 -22 14 -76l-18 -34 q-13 -25 -23.5 -29.5t-42.5 8.5l-411 174q-24 10 -27.5 27z" />
<glyph unicode="&#xd3;" horiz-adv-x="1486" d="M125 696q0 154 38.5 282.5t113.5 226.5t195.5 153t275.5 55q145 0 262 -55t193 -151.5t117 -227t42 -283.5q0 -206 -70.5 -366.5t-212 -255t-334.5 -94.5q-155 0 -275 54t-194.5 151t-112.5 226t-38 285zM350 698q0 -87 12.5 -163t42 -144.5t74 -117.5t112.5 -78t154 -29 q103 0 180.5 44t122 120t66 168.5t21.5 199.5q0 88 -13 164t-42 144t-73.5 116.5t-111 76.5t-150.5 28q-85 0 -153 -28t-113 -76.5t-74.5 -116.5t-42 -144t-12.5 -164zM485 1556q-28 54 15 76q304 152 401 205q30 17 42.5 13t23.5 -29l32 -76q12 -26 8.5 -43t-26.5 -27 l-412 -174q-32 -13 -42 -8.5t-23 29.5z" />
<glyph unicode="&#xd4;" horiz-adv-x="1486" d="M125 696q0 154 38.5 282.5t113.5 226.5t195.5 153t275.5 55q145 0 262 -55t193 -151.5t117 -227t42 -283.5q0 -206 -70.5 -366.5t-212 -255t-334.5 -94.5q-155 0 -275 54t-194.5 151t-112.5 226t-38 285zM350 698q0 -87 12.5 -163t42 -144.5t74 -117.5t112.5 -78t154 -29 q103 0 180.5 44t122 120t66 168.5t21.5 199.5q0 88 -13 164t-42 144t-73.5 116.5t-111 76.5t-150.5 28q-85 0 -153 -28t-113 -76.5t-74.5 -116.5t-42 -144t-12.5 -164zM410 1597q-33 44 14 76q17 13 123.5 88.5t154.5 116.5q16 14 33 14t35 -14l279 -205q47 -32 14 -76 l-27 -34q-2 -3 -5.5 -8t-5 -7t-5 -5.5l-5 -5t-4.5 -3.5t-6 -2.5t-6.5 -0.5t-7.5 1.5t-9 4l-11 5.5l-236 144q-33 -21 -124 -76.5t-109 -67.5q-13 -8 -22 -10.5t-17 3t-12.5 10t-14.5 18.5z" />
<glyph unicode="&#xd5;" horiz-adv-x="1486" d="M125 696q0 154 38.5 282.5t113.5 226.5t195.5 153t275.5 55q145 0 262 -55t193 -151.5t117 -227t42 -283.5q0 -206 -70.5 -366.5t-212 -255t-334.5 -94.5q-155 0 -275 54t-194.5 151t-112.5 226t-38 285zM350 698q0 -87 12.5 -163t42 -144.5t74 -117.5t112.5 -78t154 -29 q103 0 180.5 44t122 120t66 168.5t21.5 199.5q0 88 -13 164t-42 144t-73.5 116.5t-111 76.5t-150.5 28q-85 0 -153 -28t-113 -76.5t-74.5 -116.5t-42 -144t-12.5 -164zM416.5 1622.5q-3.5 13.5 7.5 40.5q31 63 83 112.5t116 49.5q42 0 82.5 -20.5t65 -45t51.5 -45t46 -20.5 q23 0 40 9t23.5 17.5t16.5 24.5q12 18 31 19t37 -17l39 -41q18 -20 18.5 -33.5t-14.5 -42.5q-25 -44 -74 -80.5t-117 -36.5q-40 0 -78.5 20t-63 43.5t-53 43.5t-50.5 20q-48 0 -86 -79q-6 -12 -13 -16.5t-16 -2t-17 7.5t-20 15l-31 26q-20 18 -23.5 31.5z" />
<glyph unicode="&#xd6;" horiz-adv-x="1486" d="M125 696q0 154 38.5 282.5t113.5 226.5t195.5 153t275.5 55q145 0 262 -55t193 -151.5t117 -227t42 -283.5q0 -206 -70.5 -366.5t-212 -255t-334.5 -94.5q-155 0 -275 54t-194.5 151t-112.5 226t-38 285zM348 1626q-3 77 28 101t93 24t94 -24t35 -101q1 -76 -29.5 -99.5 t-91.5 -23.5q-65 0 -96.5 23.5t-32.5 99.5zM350 698q0 -87 12.5 -163t42 -144.5t74 -117.5t112.5 -78t154 -29q103 0 180.5 44t122 120t66 168.5t21.5 199.5q0 88 -13 164t-42 144t-73.5 116.5t-111 76.5t-150.5 28q-85 0 -153 -28t-113 -76.5t-74.5 -116.5t-42 -144 t-12.5 -164zM889 1626q-3 77 28 101t93 24t94 -24t35 -101q1 -76 -29.5 -99.5t-91.5 -23.5q-65 0 -96.5 23.5t-32.5 99.5z" />
<glyph unicode="&#xd7;" horiz-adv-x="1249" d="M236 972q-3 18 24 50l33 33q26 27 49 24t51 -37l228 -245q199 199 239 245q31 36 50 36.5t46 -29.5l33 -35q26 -31 21 -51.5t-39 -53.5q-4 -4 -59 -57.5t-107.5 -105t-65.5 -66.5l238 -248q33 -33 34 -52t-26 -48l-33 -35q-31 -29 -50 -24t-50 42l-227 244l-234 -244 q-35 -35 -51 -38t-45 24l-35 37q-49 49 12 104q12 10 111 109t125 127l-234 240q-35 36 -38 54z" />
<glyph unicode="&#xd8;" horiz-adv-x="1486" d="M125 696q0 154 38.5 282.5t113.5 226.5t195.5 153t275.5 55q185 0 321 -88l57 88q16 29 34 36.5t52 -7.5l39 -21q29 -14 33.5 -31t-16.5 -51q-6 -9 -34 -48.5t-46 -67.5q84 -96 128 -231.5t46 -295.5q0 -206 -70.5 -366.5t-212 -255t-334.5 -94.5q-204 0 -344 92 q-5 -6 -6 -2q-43 -74 -45 -78q-15 -28 -29 -39t-24.5 -9t-26.5 11l-45 25q-23 13 -31.5 21.5t-7 24t18.5 40.5l78 110q-158 192 -158 520zM350 698q0 -87 12.5 -163t42 -144.5t74 -117.5t112.5 -78t154 -29q103 0 180.5 44t122 120t66 168.5t21.5 199.5q0 88 -13 164 t-42 144t-73.5 116.5t-111 76.5t-150.5 28q-85 0 -153 -28t-113 -76.5t-74.5 -116.5t-42 -144t-12.5 -164z" />
<glyph unicode="&#xd9;" horiz-adv-x="1464" d="M167.5 922q0.5 128 2 237t0.5 123v20.5v21t1 18t4 17.5t8 13.5t12.5 11.5t18.5 6t26 3h84q27 0 43.5 -6.5t23 -22t8 -28.5t0.5 -38q-4 -118 -4 -653q0 -115 17.5 -200t56.5 -149.5t105.5 -97t160.5 -32.5q179 0 253.5 120.5t74.5 362.5q0 128 1 276t2 247.5t1 109.5 q0 6 -0.5 23.5t0 24t2 19.5t6 18.5t12 13t19.5 10t29 2.5h84q52 0 65.5 -23.5t11.5 -71.5q-1 -21 -4.5 -308.5t-5.5 -342.5q-5 -128 -22 -224t-55 -183t-98 -141.5t-154.5 -86.5t-221.5 -32q-135 0 -233.5 31t-160.5 85t-100 140.5t-53 182.5t-18 226q-3 149 -2.5 277z M470.5 1702q-3.5 17 8.5 43l33 76q11 25 23.5 29t42.5 -13q97 -53 401 -205q42 -22 14 -76l-18 -34q-13 -25 -23.5 -29.5t-42.5 8.5l-411 174q-24 10 -27.5 27z" />
<glyph unicode="&#xda;" horiz-adv-x="1464" d="M167.5 922q0.5 128 2 237t0.5 123v20.5v21t1 18t4 17.5t8 13.5t12.5 11.5t18.5 6t26 3h84q27 0 43.5 -6.5t23 -22t8 -28.5t0.5 -38q-4 -118 -4 -653q0 -115 17.5 -200t56.5 -149.5t105.5 -97t160.5 -32.5q179 0 253.5 120.5t74.5 362.5q0 128 1 276t2 247.5t1 109.5 q0 6 -0.5 23.5t0 24t2 19.5t6 18.5t12 13t19.5 10t29 2.5h84q52 0 65.5 -23.5t11.5 -71.5q-1 -21 -4.5 -308.5t-5.5 -342.5q-5 -128 -22 -224t-55 -183t-98 -141.5t-154.5 -86.5t-221.5 -32q-135 0 -233.5 31t-160.5 85t-100 140.5t-53 182.5t-18 226q-3 149 -2.5 277z M492 1556q-28 54 14 76q304 152 401 205q30 17 42.5 13t23.5 -29l33 -76q12 -26 8.5 -43t-27.5 -27l-412 -174q-32 -13 -42 -8.5t-23 29.5z" />
<glyph unicode="&#xdb;" horiz-adv-x="1464" d="M167.5 922q0.5 128 2 237t0.5 123v20.5v21t1 18t4 17.5t8 13.5t12.5 11.5t18.5 6t26 3h84q27 0 43.5 -6.5t23 -22t8 -28.5t0.5 -38q-4 -118 -4 -653q0 -115 17.5 -200t56.5 -149.5t105.5 -97t160.5 -32.5q179 0 253.5 120.5t74.5 362.5q0 128 1 276t2 247.5t1 109.5 q0 6 -0.5 23.5t0 24t2 19.5t6 18.5t12 13t19.5 10t29 2.5h84q52 0 65.5 -23.5t11.5 -71.5q-1 -21 -4.5 -308.5t-5.5 -342.5q-5 -128 -22 -224t-55 -183t-98 -141.5t-154.5 -86.5t-221.5 -32q-135 0 -233.5 31t-160.5 85t-100 140.5t-53 182.5t-18 226q-3 149 -2.5 277z M416 1597q-33 44 14 76q19 14 125 89t154 116q16 14 32 14q17 0 35 -14l279 -205q47 -32 14 -76l-27 -34q-2 -3 -5.5 -8t-5 -7t-5 -5.5l-5 -5t-4.5 -3.5t-6 -2.5t-6.5 -0.5t-7.5 1.5t-9 4l-11 5.5l-236 144q-33 -21 -124 -76.5t-109 -67.5q-13 -8 -22 -10.5t-17 3t-12.5 10 t-14.5 18.5z" />
<glyph unicode="&#xdc;" horiz-adv-x="1464" d="M167.5 922q0.5 128 2 237t0.5 123v20.5v21t1 18t4 17.5t8 13.5t12.5 11.5t18.5 6t26 3h84q27 0 43.5 -6.5t23 -22t8 -28.5t0.5 -38q-4 -118 -4 -653q0 -115 17.5 -200t56.5 -149.5t105.5 -97t160.5 -32.5q179 0 253.5 120.5t74.5 362.5q0 128 1 276t2 247.5t1 109.5 q0 6 -0.5 23.5t0 24t2 19.5t6 18.5t12 13t19.5 10t29 2.5h84q52 0 65.5 -23.5t11.5 -71.5q-1 -21 -4.5 -308.5t-5.5 -342.5q-5 -128 -22 -224t-55 -183t-98 -141.5t-154.5 -86.5t-221.5 -32q-135 0 -233.5 31t-160.5 85t-100 140.5t-53 182.5t-18 226q-3 149 -2.5 277z M350 1626q-3 77 28 101t93 24t94 -24t35 -101q1 -76 -29.5 -99.5t-91.5 -23.5q-65 0 -96.5 23.5t-32.5 99.5zM891 1626q-3 77 28 101t93 24t94 -24t35 -101q1 -76 -29.5 -99.5t-91.5 -23.5q-65 0 -96.5 23.5t-32.5 99.5z" />
<glyph unicode="&#xdd;" horiz-adv-x="1277" d="M53.5 1357q-0.5 15 9.5 25.5t31 10.5h115q24 0 42 -11.5t25.5 -23t17.5 -31.5l3 -6q39 -73 182 -308t148 -243h14q56 85 186.5 304.5t151.5 262.5q14 29 34.5 42.5t69.5 13.5h93q31 0 45.5 -30t-4.5 -58q-24 -31 -231 -359t-241 -377q1 -23 1 -214.5t2 -217.5 q1 -8 3 -29.5t3 -32t-2 -27.5t-10.5 -25.5t-23.5 -15.5t-40 -7h-82q-85 0 -76 123v450q-53 94 -239.5 395t-212.5 337q-6 10 -10 23.5t-4.5 28.5zM379 1556q-28 54 14 76q316 158 402 205q30 17 42 13t23 -29l33 -76q12 -26 8.5 -43t-27.5 -27l-411 -174q-32 -13 -42.5 -8.5 t-23.5 29.5z" />
<glyph unicode="&#xde;" horiz-adv-x="1280" d="M189 1316.5q-1 12.5 2 28.5t10 25.5t23 16t40 6.5h60q29 0 46.5 -7.5t25.5 -26.5t10 -38.5t2 -56.5v-58h256q238 0 375 -135t135 -342t-134 -346t-362 -139h-260q0 -75 4 -107q0 -6 2.5 -29t3 -32.5t-2.5 -27.5t-11 -26t-24 -15t-40 -7h-82q-27 0 -44 11t-23 31.5 t-7.5 38t-0.5 42.5q1 38 1.5 163.5t0.5 283.5t-0.5 305.5t-1 261t-0.5 118.5q0 10 -1.5 29.5t-2.5 32zM413 727q4 -289 3 -317h248q141 0 211.5 81t72.5 224q2 146 -67.5 235.5t-214.5 89.5h-252q-5 -24 -1 -313z" />
<glyph unicode="&#xdf;" horiz-adv-x="1245" d="M174 127q6 182 6 760q0 269 131 418t342 149q176 0 297 -102.5t121 -257.5q0 -71 -34.5 -147t-68.5 -133.5t-34 -84.5q0 -21 23 -49t56 -61t65.5 -74t55.5 -102.5t23 -131.5q0 -155 -110.5 -243t-282.5 -88q-226 0 -229 100q-2 74 45 115q71 -39 184 -39q80 0 126 44.5 t46 110.5q0 46 -23 90.5t-55 80t-64.5 69.5t-55.5 72.5t-23 74.5q0 44 33.5 117t67.5 149.5t34 129.5q0 79 -60 130.5t-155 51.5q-107 0 -175.5 -97.5t-68.5 -297.5q0 -272 8 -756q2 -76 -13.5 -100.5t-76.5 -24.5h-51q-57 0 -72 25.5t-12 101.5z" />
<glyph unicode="&#xe0;" d="M104 322q0 160 110 253t294 93q90 0 177.5 -19t125.5 -35v119q0 109 -70 165t-184 56q-78 0 -157 -21.5t-118 -42.5l-40 -22q-4 5 -10.5 12.5t-19.5 31.5t-18.5 46t1 51t30.5 52q43 38 136.5 62t220.5 24q206 0 320 -112t114 -302q0 -39 -1 -197t-0.5 -263.5t3.5 -157.5 q1 -11 3.5 -29.5t3 -29t-0.5 -24.5t-8 -22t-19 -15.5t-33.5 -11t-52.5 -3.5q-126 0 -102 184h-10q-5 -7 -14.5 -19.5t-42.5 -44.5t-70.5 -56t-97 -44t-123.5 -20q-110 0 -190.5 47.5t-118.5 124t-38 170.5zM326 330q0 -82 52 -128t138 -46q101 0 183.5 55.5t107.5 124.5v141 q-30 11 -97 23t-141 12q-107 0 -175 -48.5t-68 -133.5zM372.5 1442q-3.5 17 8.5 43l33 76q11 25 23 29t42 -13q86 -47 402 -205q42 -22 14 -76l-18 -34q-13 -25 -23.5 -29.5t-42.5 8.5l-412 174q-23 10 -26.5 27z" />
<glyph unicode="&#xe1;" d="M104 322q0 160 110 253t294 93q90 0 177.5 -19t125.5 -35v119q0 109 -70 165t-184 56q-78 0 -157 -21.5t-118 -42.5l-40 -22q-4 5 -10.5 12.5t-19.5 31.5t-18.5 46t1 51t30.5 52q43 38 136.5 62t220.5 24q206 0 320 -112t114 -302q0 -39 -1 -197t-0.5 -263.5t3.5 -157.5 q1 -11 3.5 -29.5t3 -29t-0.5 -24.5t-8 -22t-19 -15.5t-33.5 -11t-52.5 -3.5q-126 0 -102 184h-10q-5 -7 -14.5 -19.5t-42.5 -44.5t-70.5 -56t-97 -44t-123.5 -20q-110 0 -190.5 47.5t-118.5 124t-38 170.5zM326 330q0 -82 52 -128t138 -46q101 0 183.5 55.5t107.5 124.5v141 q-30 11 -97 23t-141 12q-107 0 -175 -48.5t-68 -133.5zM332 1296q-28 54 14 76q316 158 402 205q30 17 42 13t23 -29l33 -76q12 -26 8.5 -43t-27.5 -27l-411 -174q-32 -13 -42.5 -8.5t-23.5 29.5z" />
<glyph unicode="&#xe2;" d="M104 322q0 160 110 253t294 93q90 0 177.5 -19t125.5 -35v119q0 109 -70 165t-184 56q-78 0 -157 -21.5t-118 -42.5l-40 -22q-4 5 -10.5 12.5t-19.5 31.5t-18.5 46t1 51t30.5 52q43 38 136.5 62t220.5 24q206 0 320 -112t114 -302q0 -39 -1 -197t-0.5 -263.5t3.5 -157.5 q1 -11 3.5 -29.5t3 -29t-0.5 -24.5t-8 -22t-19 -15.5t-33.5 -11t-52.5 -3.5q-126 0 -102 184h-10q-5 -7 -14.5 -19.5t-42.5 -44.5t-70.5 -56t-97 -44t-123.5 -20q-110 0 -190.5 47.5t-118.5 124t-38 170.5zM262 1317q-33 44 14 76q21 16 126 89.5t153 114.5q17 15 33 15 t35 -15l278 -204q47 -32 14 -76l-26 -35q-19 -26 -28 -29q-14 -5 -38 9l-235 143q-34 -22 -125.5 -77t-108.5 -66t-29 -10t-17.5 7t-18.5 23zM326 330q0 -82 52 -128t138 -46q101 0 183.5 55.5t107.5 124.5v141q-30 11 -97 23t-141 12q-107 0 -175 -48.5t-68 -133.5z" />
<glyph unicode="&#xe3;" d="M104 322q0 160 110 253t294 93q90 0 177.5 -19t125.5 -35v119q0 109 -70 165t-184 56q-78 0 -157 -21.5t-118 -42.5l-40 -22q-4 5 -10.5 12.5t-19.5 31.5t-18.5 46t1 51t30.5 52q43 38 136.5 62t220.5 24q206 0 320 -112t114 -302q0 -39 -1 -197t-0.5 -263.5t3.5 -157.5 q1 -11 3.5 -29.5t3 -29t-0.5 -24.5t-8 -22t-19 -15.5t-33.5 -11t-52.5 -3.5q-126 0 -102 184h-10q-5 -7 -14.5 -19.5t-42.5 -44.5t-70.5 -56t-97 -44t-123.5 -20q-110 0 -190.5 47.5t-118.5 124t-38 170.5zM261 1350.5q-4 13.5 7 40.5q30 63 82.5 112t116.5 49 q42 0 82.5 -20.5t65.5 -45t52 -45t46 -20.5q23 0 40 9.5t23.5 18t16.5 24.5q12 18 30.5 19t36.5 -17l39 -41q18 -20 18.5 -33.5t-14.5 -42.5q-25 -44 -73.5 -80.5t-116.5 -36.5q-40 0 -79 20t-63.5 43.5t-53 43.5t-50.5 20q-47 0 -86 -80q-6 -12 -13 -16.5t-16 -2t-17 7.5 t-20 15l-30 27q-20 18 -24 31.5zM326 330q0 -82 52 -128t138 -46q101 0 183.5 55.5t107.5 124.5v141q-30 11 -97 23t-141 12q-107 0 -175 -48.5t-68 -133.5z" />
<glyph unicode="&#xe4;" d="M104 322q0 160 110 253t294 93q90 0 177.5 -19t125.5 -35v119q0 109 -70 165t-184 56q-78 0 -157 -21.5t-118 -42.5l-40 -22q-4 5 -10.5 12.5t-19.5 31.5t-18.5 46t1 51t30.5 52q43 38 136.5 62t220.5 24q206 0 320 -112t114 -302q0 -39 -1 -197t-0.5 -263.5t3.5 -157.5 q1 -11 3.5 -29.5t3 -29t-0.5 -24.5t-8 -22t-19 -15.5t-33.5 -11t-52.5 -3.5q-126 0 -102 184h-10q-5 -7 -14.5 -19.5t-42.5 -44.5t-70.5 -56t-97 -44t-123.5 -20q-110 0 -190.5 47.5t-118.5 124t-38 170.5zM207 1391q-3 77 28 101t93 24t94 -24t35 -101q1 -76 -29.5 -99.5 t-91.5 -23.5q-65 0 -96.5 23.5t-32.5 99.5zM326 330q0 -82 52 -128t138 -46q101 0 183.5 55.5t107.5 124.5v141q-30 11 -97 23t-141 12q-107 0 -175 -48.5t-68 -133.5zM748 1391q-3 77 27.5 101t92.5 24t94 -24t35 -101q1 -76 -29 -99.5t-91 -23.5q-65 0 -96.5 23.5 t-32.5 99.5z" />
<glyph unicode="&#xe5;" d="M104 322q0 160 110 253t294 93q90 0 177.5 -19t125.5 -35v119q0 109 -70 165t-184 56q-78 0 -157 -21.5t-118 -42.5l-40 -22q-4 5 -10.5 12.5t-19.5 31.5t-18.5 46t1 51t30.5 52q43 38 136.5 62t220.5 24q206 0 320 -112t114 -302q0 -39 -1 -197t-0.5 -263.5t3.5 -157.5 q1 -11 3.5 -29.5t3 -29t-0.5 -24.5t-8 -22t-19 -15.5t-33.5 -11t-52.5 -3.5q-126 0 -102 184h-10q-5 -7 -14.5 -19.5t-42.5 -44.5t-70.5 -56t-97 -44t-123.5 -20q-110 0 -190.5 47.5t-118.5 124t-38 170.5zM305 1522q0 109 79 179.5t224 70.5t223 -69.5t78 -180.5 q0 -109 -81 -178.5t-220 -69.5q-153 0 -228 68t-75 180zM326 330q0 -82 52 -128t138 -46q101 0 183.5 55.5t107.5 124.5v141q-30 11 -97 23t-141 12q-107 0 -175 -48.5t-68 -133.5zM467 1524q0 -54 29.5 -88.5t111.5 -34.5q77 0 108.5 35t31.5 88q0 118 -140 118 q-82 0 -111.5 -33t-29.5 -85z" />
<glyph unicode="&#xe6;" horiz-adv-x="1859" d="M104 322q0 160 108 253t288 93q87 0 170.5 -18.5t122.5 -35.5q6 54 6 119q0 221 -246 221q-76 0 -151 -21.5t-112 -42.5l-38 -22q-4 5 -10.5 12.5t-19.5 31.5t-18 46t1.5 51t30.5 52q42 39 130 62.5t212 23.5q123 0 219 -43.5t157 -122.5q130 166 355 166 q103 0 188 -34.5t139.5 -92t83.5 -131t29 -154.5q0 -86 -14.5 -132.5t-36.5 -60.5t-60 -14l-626 -4l-4 -6q0 -96 33.5 -176t108 -133t179.5 -53q26 0 51.5 3t47.5 7.5t44.5 11.5t40.5 14t35.5 15.5t30.5 15t26 14.5t19.5 12.5t13.5 9.5l7 5q35 -18 51 -61q31 -81 -29 -125 q-42 -32 -132 -65t-206 -33q-310 0 -442 217h-13q-5 -9 -16 -23.5t-50 -52t-84.5 -66t-121.5 -52t-160 -23.5q-160 0 -249 98t-89 244zM326 330q0 -82 50.5 -128t133.5 -46q98 0 177.5 55.5t103.5 124.5v141q-95 35 -230 35q-103 0 -169 -48.5t-66 -133.5zM1014 676h520 q4 30 4 59q0 234 -233 234q-78 0 -137 -29.5t-90.5 -77t-46.5 -94t-17 -92.5z" />
<glyph unicode="&#xe7;" horiz-adv-x="1114" d="M102 565q0 164 64 296t185.5 209t279.5 77q99 0 171.5 -21.5t111 -57.5t56 -75.5t17.5 -83.5q0 -80 -54 -113t-120 -3q4 18 4 34q0 53 -43 97.5t-133 44.5q-149 0 -233 -107.5t-84 -294.5q0 -196 79.5 -303.5t235.5 -107.5q76 0 148 23t107 46l34 23q2 -1 6 -3.5 t14.5 -11.5t18 -20.5t14 -30.5t6.5 -41q0 -62 -99.5 -111.5t-256.5 -49.5h-35q-7 -20 -11 -35t-1 -15q69 -5 106 -32t37 -86q0 -55 -60 -97.5t-153 -42.5q-113 0 -113 72q0 18 6.5 34t13.5 22l7 7q35 -18 80 -18q90 0 90 47q0 24 -33.5 36.5t-70.5 12.5q-23 0 -15 29 q2 9 29 76q-199 32 -302.5 179.5t-103.5 395.5z" />
<glyph unicode="&#xe8;" horiz-adv-x="1165" d="M102 569q0 165 59.5 295t177 206.5t275.5 76.5q103 0 188.5 -34.5t139.5 -92t83.5 -131t29.5 -154.5q0 -86 -14.5 -132.5t-36.5 -60.5t-60 -14h-627l-4 -6q0 -71 20 -135t58.5 -116.5t101.5 -83.5t142 -31q26 0 51.5 3t47.5 7.5t44.5 11.5t40 14t35.5 15t30.5 15t25.5 15 t19.5 12.5t13.5 9.5l7 5q35 -18 51 -61q31 -82 -28 -125q-42 -32 -132 -65t-206 -33q-138 0 -242 44.5t-166.5 124.5t-93.5 185.5t-31 234.5zM319 676h521q4 30 4 59q0 234 -234 234q-78 0 -137 -29.5t-90.5 -77t-46.5 -94t-17 -92.5zM353.5 1442q-3.5 17 8.5 43l33 76 q11 25 23.5 29t42.5 -13q97 -53 401 -205q43 -22 15 -76l-19 -34q-13 -25 -23 -29.5t-42 8.5l-412 174q-24 10 -27.5 27z" />
<glyph unicode="&#xe9;" horiz-adv-x="1165" d="M102 569q0 165 59.5 295t177 206.5t275.5 76.5q103 0 188.5 -34.5t139.5 -92t83.5 -131t29.5 -154.5q0 -86 -14.5 -132.5t-36.5 -60.5t-60 -14h-627l-4 -6q0 -71 20 -135t58.5 -116.5t101.5 -83.5t142 -31q26 0 51.5 3t47.5 7.5t44.5 11.5t40 14t35.5 15t30.5 15t25.5 15 t19.5 12.5t13.5 9.5l7 5q35 -18 51 -61q31 -82 -28 -125q-42 -32 -132 -65t-206 -33q-138 0 -242 44.5t-166.5 124.5t-93.5 185.5t-31 234.5zM319 676h521q4 30 4 59q0 234 -234 234q-78 0 -137 -29.5t-90.5 -77t-46.5 -94t-17 -92.5zM330 1296q-28 54 14 76 q304 152 401 205q30 17 42.5 13t23.5 -29l33 -76q12 -26 8.5 -43t-27.5 -27l-411 -174q-32 -13 -42.5 -8.5t-23.5 29.5z" />
<glyph unicode="&#xea;" horiz-adv-x="1165" d="M102 569q0 165 59.5 295t177 206.5t275.5 76.5q103 0 188.5 -34.5t139.5 -92t83.5 -131t29.5 -154.5q0 -86 -14.5 -132.5t-36.5 -60.5t-60 -14h-627l-4 -6q0 -71 20 -135t58.5 -116.5t101.5 -83.5t142 -31q26 0 51.5 3t47.5 7.5t44.5 11.5t40 14t35.5 15t30.5 15t25.5 15 t19.5 12.5t13.5 9.5l7 5q35 -18 51 -61q31 -82 -28 -125q-42 -32 -132 -65t-206 -33q-138 0 -242 44.5t-166.5 124.5t-93.5 185.5t-31 234.5zM285 1317q-33 44 14 76q21 16 126 89.5t153 114.5q17 15 32 15q16 0 35 -15l279 -204q47 -32 14 -76l-27 -35q-2 -2 -5.5 -7.5 t-5 -7.5t-5 -5.5t-5 -4.5t-5 -3.5t-6 -2.5h-6t-7.5 1.5t-9 4l-11 5.5l-236 143q-34 -21 -125 -76t-108 -67q-17 -11 -29 -10t-18 7t-19 23zM319 676h521q4 30 4 59q0 234 -234 234q-78 0 -137 -29.5t-90.5 -77t-46.5 -94t-17 -92.5z" />
<glyph unicode="&#xeb;" horiz-adv-x="1165" d="M102 569q0 165 59.5 295t177 206.5t275.5 76.5q103 0 188.5 -34.5t139.5 -92t83.5 -131t29.5 -154.5q0 -86 -14.5 -132.5t-36.5 -60.5t-60 -14h-627l-4 -6q0 -71 20 -135t58.5 -116.5t101.5 -83.5t142 -31q26 0 51.5 3t47.5 7.5t44.5 11.5t40 14t35.5 15t30.5 15t25.5 15 t19.5 12.5t13.5 9.5l7 5q35 -18 51 -61q31 -82 -28 -125q-42 -32 -132 -65t-206 -33q-138 0 -242 44.5t-166.5 124.5t-93.5 185.5t-31 234.5zM221 1391q-3 77 28 101t93 24t94 -24t35 -101q1 -76 -29.5 -99.5t-91.5 -23.5q-65 0 -96.5 23.5t-32.5 99.5zM319 676h521 q4 30 4 59q0 234 -234 234q-78 0 -137 -29.5t-90.5 -77t-46.5 -94t-17 -92.5zM762 1391q-3 77 28 101t93 24t94 -24t35 -101q1 -76 -29.5 -99.5t-91.5 -23.5q-65 0 -96.5 23.5t-32.5 99.5z" />
<glyph unicode="&#xec;" horiz-adv-x="610" d="M59.5 1442q-3.5 17 8.5 43l32 76q11 25 23.5 29t42.5 -13q97 -53 401 -205q43 -22 15 -76l-19 -34q-13 -25 -23 -29.5t-42 8.5l-412 174q-23 10 -26.5 27zM188 80.5q-1 16.5 0 42.5q5 98 5 174q4 258 4 719q0 6 -1 26t-0.5 27t5.5 21t14.5 20t28.5 11t47 5 q77 0 105.5 -20.5t25.5 -79.5q-12 -258 -12 -752q0 -119 2 -137q3 -41 2 -71.5t-17.5 -48t-50.5 -17.5h-84q-27 0 -43.5 11t-23 32t-7.5 37.5z" />
<glyph unicode="&#xed;" horiz-adv-x="610" d="M49 1296q-28 54 14 76q316 158 402 205q30 17 42 13t23 -29l33 -76q12 -26 8.5 -43t-26.5 -27l-412 -174q-32 -13 -42 -8.5t-23 29.5zM188 80.5q-1 16.5 0 42.5q5 98 5 174q4 258 4 719q0 6 -1 26t-0.5 27t5.5 21t14.5 20t28.5 11t47 5q77 0 105.5 -20.5t25.5 -79.5 q-12 -258 -12 -752q0 -119 2 -137q3 -41 2 -71.5t-17.5 -48t-50.5 -17.5h-84q-27 0 -43.5 11t-23 32t-7.5 37.5z" />
<glyph unicode="&#xee;" horiz-adv-x="610" d="M-16 1317q-33 44 14 76q19 15 124.5 89t153.5 115q17 15 33 15t35 -15l279 -204q47 -32 14 -76l-27 -35q-2 -2 -5.5 -7.5t-5 -7.5t-5 -5.5t-5 -4.5t-5 -3.5t-6 -2.5h-6t-7.5 1.5t-9 4l-11 5.5l-236 143q-34 -21 -125 -76t-108 -67q-17 -11 -29 -10t-18 7t-19 23z M188 80.5q-1 16.5 0 42.5q5 98 5 174q4 258 4 719q0 6 -1 26t-0.5 27t5.5 21t14.5 20t28.5 11t47 5q77 0 105.5 -20.5t25.5 -79.5q-12 -258 -12 -752q0 -119 2 -137q3 -41 2 -71.5t-17.5 -48t-50.5 -17.5h-84q-27 0 -43.5 11t-23 32t-7.5 37.5z" />
<glyph unicode="&#xef;" horiz-adv-x="610" d="M-90 1391q-3 77 28 101t93 24t94 -24t35 -101q1 -76 -29.5 -99.5t-91.5 -23.5q-65 0 -96.5 23.5t-32.5 99.5zM188 80.5q-1 16.5 0 42.5q5 98 5 174q4 258 4 719q0 6 -1 26t-0.5 27t5.5 21t14.5 20t28.5 11t47 5q77 0 105.5 -20.5t25.5 -79.5q-12 -258 -12 -752 q0 -119 2 -137q3 -41 2 -71.5t-17.5 -48t-50.5 -17.5h-84q-27 0 -43.5 11t-23 32t-7.5 37.5zM451 1391q-3 77 27.5 101t92.5 24t94 -24t35 -101q1 -76 -29 -99.5t-91 -23.5q-65 0 -96.5 23.5t-32.5 99.5z" />
<glyph unicode="&#xf0;" horiz-adv-x="1249" d="M111 451q0 101 37.5 183t101 133.5t144 79t169.5 27.5q65 0 124 -14.5t97.5 -36t67.5 -42.5t42 -35l13 -15h17q0 99 -47.5 218t-137.5 194q-8 -16 -26.5 -50t-28.5 -55q-21 -38 -35 -41.5t-47 15.5l-45 22q-11 6 -18 11t-9.5 11.5t-4 10t2 12.5t5.5 13t9.5 17t10.5 19 l47 86q-47 13 -94 13q-79 0 -151.5 -18.5t-104.5 -36.5l-33 -19q-29 20 -47 61q-44 95 20 134q40 25 119 45t183 20q99 0 200 -33l41 74q16 28 26 38.5t24.5 10.5t39.5 -14l47 -27q32 -19 32 -37t-25 -53q0 -1 -5 -7t-15 -21t-23 -37q142 -105 216 -290.5t74 -400.5 q0 -302 -139.5 -469t-384.5 -167q-209 0 -349 136.5t-140 334.5zM330 451q0 -124 69.5 -204.5t200.5 -80.5q125 0 209 73.5t84 211.5q0 38 -8.5 74.5t-29 73t-51.5 64t-79.5 44.5t-108.5 16q-122 -2 -204 -73t-82 -199z" />
<glyph unicode="&#xf1;" horiz-adv-x="1306" d="M164 80.5q-1 16.5 0 42.5q4 78 4 174q4 258 4 739q0 9 -1.5 26t-2 26.5t3.5 22.5t14 19.5t30 11.5t50 5q41 0 68.5 -12.5t40.5 -35t17.5 -44.5t4.5 -51q0 -1 -1 -25.5t-1 -48.5h15q7 18 19 39.5t41 55t65.5 59t96 44.5t128.5 19q105 0 183.5 -35t124 -98t67.5 -142.5 t22 -175.5q0 -71 -6 -266.5t-6 -339.5q0 -5 0.5 -18.5t0 -19l-1.5 -16.5t-3.5 -16l-6.5 -13t-11.5 -11.5t-17.5 -8t-24 -6t-32 -1.5q-78 0 -104.5 28t-26.5 78q0 94 6 297t6 315q0 118 -55.5 194.5t-157.5 76.5q-53 0 -102 -21t-83 -50.5t-64.5 -69t-47 -70t-29.5 -60.5 q-4 -290 -4 -424q0 -119 2 -137q2 -41 1 -71.5t-17.5 -48t-50.5 -17.5h-84q-27 0 -43.5 11t-23 32t-7.5 37.5zM367.5 1350.5q-3.5 13.5 7.5 40.5q31 63 82.5 112t115.5 49q42 0 82.5 -20.5t65.5 -45t52 -45t46 -20.5q23 0 40 9.5t23.5 18t16.5 24.5q12 18 31 19t37 -17 l39 -41q18 -20 18.5 -33.5t-14.5 -42.5q-25 -44 -74 -80.5t-117 -36.5q-40 0 -79 20t-63.5 43.5t-53 43.5t-50.5 20q-47 0 -86 -80q-8 -16 -18.5 -18.5t-20.5 3.5t-26 19l-31 27q-20 18 -23.5 31.5z" />
<glyph unicode="&#xf2;" horiz-adv-x="1230" d="M104 569q2 123 34.5 226.5t94 183t159 124t220.5 44.5q124 0 223.5 -44.5t163 -123t96.5 -183.5t31 -227q-2 -171 -58 -302.5t-173 -210.5t-281 -79q-125 0 -223.5 45t-161 124.5t-95 187t-30.5 235.5zM326 569q0 -70 7 -127t26.5 -111.5t51 -92t82.5 -60t119 -22.5 q293 0 293 413q0 85 -15 154t-48 126t-91 88.5t-137 31.5q-69 0 -120.5 -21.5t-83 -57.5t-51 -89t-26.5 -108t-7 -124zM341.5 1442q-3.5 17 8.5 43l33 76q11 25 23.5 29t42.5 -13q97 -53 401 -205q42 -22 14 -76l-18 -34q-13 -25 -23.5 -29.5t-42.5 8.5l-411 174 q-24 10 -27.5 27z" />
<glyph unicode="&#xf3;" horiz-adv-x="1230" d="M104 569q2 123 34.5 226.5t94 183t159 124t220.5 44.5q124 0 223.5 -44.5t163 -123t96.5 -183.5t31 -227q-2 -171 -58 -302.5t-173 -210.5t-281 -79q-125 0 -223.5 45t-161 124.5t-95 187t-30.5 235.5zM326 569q0 -70 7 -127t26.5 -111.5t51 -92t82.5 -60t119 -22.5 q293 0 293 413q0 85 -15 154t-48 126t-91 88.5t-137 31.5q-69 0 -120.5 -21.5t-83 -57.5t-51 -89t-26.5 -108t-7 -124zM358 1296q-28 54 15 76q304 152 401 205q30 17 42.5 13t23.5 -29l32 -76q12 -26 8.5 -43t-26.5 -27l-412 -174q-32 -13 -42 -8.5t-23 29.5z" />
<glyph unicode="&#xf4;" horiz-adv-x="1230" d="M104 569q2 123 34.5 226.5t94 183t159 124t220.5 44.5q124 0 223.5 -44.5t163 -123t96.5 -183.5t31 -227q-2 -171 -58 -302.5t-173 -210.5t-281 -79q-125 0 -223.5 45t-161 124.5t-95 187t-30.5 235.5zM283 1317q-33 44 14 76q19 15 124.5 89t153.5 115q17 15 33 15 t35 -15l279 -204q47 -32 14 -76l-27 -35q-2 -2 -5.5 -7.5t-5 -7.5t-5 -5.5t-5 -4.5t-5 -3.5t-6 -2.5h-6t-7.5 1.5t-9 4l-11 5.5l-236 143q-34 -21 -124.5 -76t-108.5 -67q-17 -11 -29 -10t-18 7t-19 23zM326 569q0 -70 7 -127t26.5 -111.5t51 -92t82.5 -60t119 -22.5 q293 0 293 413q0 85 -15 154t-48 126t-91 88.5t-137 31.5q-69 0 -120.5 -21.5t-83 -57.5t-51 -89t-26.5 -108t-7 -124z" />
<glyph unicode="&#xf5;" horiz-adv-x="1230" d="M104 569q2 123 34.5 226.5t94 183t159 124t220.5 44.5q124 0 223.5 -44.5t163 -123t96.5 -183.5t31 -227q-2 -171 -58 -302.5t-173 -210.5t-281 -79q-125 0 -223.5 45t-161 124.5t-95 187t-30.5 235.5zM285.5 1350.5q-3.5 13.5 7.5 40.5q30 63 82.5 112t116.5 49 q42 0 82.5 -20.5t65 -45t51.5 -45t46 -20.5q23 0 40 9.5t23.5 18t16.5 24.5q12 18 31 19t37 -17l39 -41q18 -20 18.5 -33.5t-14.5 -42.5q-25 -44 -74 -80.5t-117 -36.5q-40 0 -78.5 20t-63 43.5t-53 43.5t-50.5 20q-47 0 -86 -80q-6 -12 -13 -16.5t-16 -2t-17 7.5t-20 15 l-31 27q-20 18 -23.5 31.5zM326 569q0 -70 7 -127t26.5 -111.5t51 -92t82.5 -60t119 -22.5q293 0 293 413q0 85 -15 154t-48 126t-91 88.5t-137 31.5q-69 0 -120.5 -21.5t-83 -57.5t-51 -89t-26.5 -108t-7 -124z" />
<glyph unicode="&#xf6;" horiz-adv-x="1230" d="M104 569q2 123 34.5 226.5t94 183t159 124t220.5 44.5q124 0 223.5 -44.5t163 -123t96.5 -183.5t31 -227q-2 -171 -58 -302.5t-173 -210.5t-281 -79q-125 0 -223.5 45t-161 124.5t-95 187t-30.5 235.5zM227 1391q-3 77 28 101t93 24t94 -24t35 -101q1 -76 -29.5 -99.5 t-91.5 -23.5q-65 0 -96.5 23.5t-32.5 99.5zM326 569q0 -70 7 -127t26.5 -111.5t51 -92t82.5 -60t119 -22.5q293 0 293 413q0 85 -15 154t-48 126t-91 88.5t-137 31.5q-69 0 -120.5 -21.5t-83 -57.5t-51 -89t-26.5 -108t-7 -124zM768 1391q-3 77 28 101t93 24t94 -24t35 -101 q1 -76 -29.5 -99.5t-91.5 -23.5q-65 0 -96.5 23.5t-32.5 99.5z" />
<glyph unicode="&#xf7;" horiz-adv-x="1249" d="M201 676v51q-2 28 6.5 40.5t27 13.5t46.5 -1q94 -4 369.5 -2t320.5 4q49 2 63.5 -9t14.5 -54v-51q0 -36 -17 -46t-63 -8q-27 2 -173.5 2t-327 -1t-198.5 -1q-46 -1 -56.5 8.5t-12.5 53.5zM485 225q-3 98 35 130t115 32q33 0 57 -5.5t47 -21.5t35 -50t12 -85 q0 -97 -37.5 -128t-111.5 -31q-35 0 -59.5 5.5t-48 21t-34.5 48.5t-10 84zM485 1163q-3 98 35 130t115 32q33 0 57 -5.5t47 -21.5t35 -50t12 -85q0 -97 -37.5 -128t-111.5 -31q-35 0 -59.5 5.5t-48 21t-34.5 48.5t-10 84z" />
<glyph unicode="&#xf8;" horiz-adv-x="1230" d="M104 569q2 123 34.5 226.5t94 183t159 124t220.5 44.5q115 0 207 -39q10 17 26 40t19 28q11 19 21 28.5t26.5 12t36.5 -10.5l39 -20q30 -15 36 -31t-15 -51l-56 -78q87 -77 131.5 -195.5t42.5 -261.5q-2 -171 -58 -302.5t-173 -210.5t-281 -79q-152 0 -266 66l-29 -51 q-16 -28 -30 -39t-23.5 -9t-25.5 11l-45 25q-24 13 -32.5 21.5t-7 24t18.5 40.5l55 81q-128 155 -125 422zM326 569q0 -70 7 -127t26.5 -111.5t51 -92t82.5 -60t119 -22.5q293 0 293 413q0 85 -15 154t-48 126t-91 88.5t-137 31.5q-69 0 -120.5 -21.5t-83 -57.5t-51 -89 t-26.5 -108t-7 -124z" />
<glyph unicode="&#xf9;" horiz-adv-x="1286" d="M150 430q0 71 6 266.5t6 339.5q0 4 -0.5 20.5t0 21.5t2 18t5.5 17.5t11 13t17 11.5t25.5 6t35.5 3q78 0 104.5 -28.5t26.5 -78.5q0 -94 -6 -297t-6 -315q0 -120 51 -195t152 -75q52 0 99.5 20t80 48.5t61.5 67t45 68.5t29 60q4 294 4 430q0 119 -2 137q-2 41 -1 71.5 t18 48t51 17.5h84q27 0 44 -11.5t22 -29.5t7 -39.5t0 -41.5q-4 -78 -4 -175q-4 -258 -4 -739q0 -8 2.5 -30.5t0.5 -32t-10 -23t-29.5 -19t-57.5 -5.5q-41 0 -68.5 12.5t-40.5 35t-17.5 44.5t-4.5 51q0 1 1 24.5t1 49.5h-14q-5 -17 -17.5 -40t-40.5 -55.5t-64 -58.5 t-93.5 -44.5t-124.5 -18.5q-105 0 -182 35t-120.5 98t-64 141.5t-20.5 175.5zM376.5 1442q-3.5 17 8.5 43l33 76q11 25 23 29t42 -13q86 -47 402 -205q42 -22 14 -76l-18 -34q-13 -25 -23.5 -29.5t-42.5 8.5l-412 174q-23 10 -26.5 27z" />
<glyph unicode="&#xfa;" horiz-adv-x="1286" d="M150 430q0 71 6 266.5t6 339.5q0 4 -0.5 20.5t0 21.5t2 18t5.5 17.5t11 13t17 11.5t25.5 6t35.5 3q78 0 104.5 -28.5t26.5 -78.5q0 -94 -6 -297t-6 -315q0 -120 51 -195t152 -75q52 0 99.5 20t80 48.5t61.5 67t45 68.5t29 60q4 294 4 430q0 119 -2 137q-2 41 -1 71.5 t18 48t51 17.5h84q27 0 44 -11.5t22 -29.5t7 -39.5t0 -41.5q-4 -78 -4 -175q-4 -258 -4 -739q0 -8 2.5 -30.5t0.5 -32t-10 -23t-29.5 -19t-57.5 -5.5q-41 0 -68.5 12.5t-40.5 35t-17.5 44.5t-4.5 51q0 1 1 24.5t1 49.5h-14q-5 -17 -17.5 -40t-40.5 -55.5t-64 -58.5 t-93.5 -44.5t-124.5 -18.5q-105 0 -182 35t-120.5 98t-64 141.5t-20.5 175.5zM397 1296q-28 54 15 76q304 152 401 205q30 17 42.5 13t23.5 -29l32 -76q12 -26 8.5 -43t-26.5 -27l-412 -174q-32 -13 -42 -8.5t-23 29.5z" />
<glyph unicode="&#xfb;" horiz-adv-x="1286" d="M150 430q0 71 6 266.5t6 339.5q0 4 -0.5 20.5t0 21.5t2 18t5.5 17.5t11 13t17 11.5t25.5 6t35.5 3q78 0 104.5 -28.5t26.5 -78.5q0 -94 -6 -297t-6 -315q0 -120 51 -195t152 -75q52 0 99.5 20t80 48.5t61.5 67t45 68.5t29 60q4 294 4 430q0 119 -2 137q-2 41 -1 71.5 t18 48t51 17.5h84q27 0 44 -11.5t22 -29.5t7 -39.5t0 -41.5q-4 -78 -4 -175q-4 -258 -4 -739q0 -8 2.5 -30.5t0.5 -32t-10 -23t-29.5 -19t-57.5 -5.5q-41 0 -68.5 12.5t-40.5 35t-17.5 44.5t-4.5 51q0 1 1 24.5t1 49.5h-14q-5 -17 -17.5 -40t-40.5 -55.5t-64 -58.5 t-93.5 -44.5t-124.5 -18.5q-105 0 -182 35t-120.5 98t-64 141.5t-20.5 175.5zM319 1317q-32 43 15 76q19 15 124.5 89t153.5 115q17 15 33 15t35 -15l278 -204q47 -33 15 -76l-27 -35q-2 -2 -5.5 -7.5t-5 -7.5t-5 -5.5t-5 -4.5t-5 -3.5t-6 -2.5h-6t-7.5 1.5t-9 4l-11 5.5 l-236 143q-34 -21 -125 -76t-108 -67q-17 -11 -29 -10t-18 7t-19 23z" />
<glyph unicode="&#xfc;" horiz-adv-x="1286" d="M150 430q0 71 6 266.5t6 339.5q0 4 -0.5 20.5t0 21.5t2 18t5.5 17.5t11 13t17 11.5t25.5 6t35.5 3q78 0 104.5 -28.5t26.5 -78.5q0 -94 -6 -297t-6 -315q0 -120 51 -195t152 -75q52 0 99.5 20t80 48.5t61.5 67t45 68.5t29 60q4 294 4 430q0 119 -2 137q-2 41 -1 71.5 t18 48t51 17.5h84q27 0 44 -11.5t22 -29.5t7 -39.5t0 -41.5q-4 -78 -4 -175q-4 -258 -4 -739q0 -8 2.5 -30.5t0.5 -32t-10 -23t-29.5 -19t-57.5 -5.5q-41 0 -68.5 12.5t-40.5 35t-17.5 44.5t-4.5 51q0 1 1 24.5t1 49.5h-14q-5 -17 -17.5 -40t-40.5 -55.5t-64 -58.5 t-93.5 -44.5t-124.5 -18.5q-105 0 -182 35t-120.5 98t-64 141.5t-20.5 175.5zM248 1391q-3 77 28 101t93 24t94 -24t35 -101q1 -76 -29.5 -99.5t-91.5 -23.5q-65 0 -96.5 23.5t-32.5 99.5zM788 1391q-3 77 28 101t93 24t94 -24t35 -101q1 -76 -29 -99.5t-91 -23.5 q-65 0 -97 23.5t-33 99.5z" />
<glyph unicode="&#xfd;" horiz-adv-x="1130" d="M44.5 1091q1.5 17 16 26t41.5 9h66q23 0 39.5 -4.5t25.5 -8.5t17.5 -17.5t11 -19.5t10.5 -27q3 -7 75 -196.5t140.5 -373.5t94.5 -262h12l237 830q11 42 29.5 60.5t69.5 18.5h88q42 0 50.5 -29.5t-5.5 -70.5q-15 -56 -72.5 -239t-126 -401t-94.5 -302 q-30 -98 -63.5 -168.5t-81.5 -128t-113.5 -86.5t-149.5 -29q-147 0 -223 39q-29 13 -36 28.5t1 47.5l17 70q11 47 65 24q70 -33 160 -33q80 0 126 57t85 195h-59q-44 0 -64.5 14.5t-34.5 53.5q-27 72 -183 459.5t-159 394.5q-8 21 -11 36.5t-1.5 32.5zM303 1296 q-28 54 14 76q316 158 402 205q30 17 42 13t23 -29l33 -76q12 -26 8.5 -43t-26.5 -27l-412 -174q-32 -13 -42 -8.5t-23 29.5z" />
<glyph unicode="&#xfe;" horiz-adv-x="1269" d="M164 -219q5 71 10 676.5t-4 861.5q0 9 -2.5 27.5t-3 30.5t1 27t9 25t20.5 15q27 10 88 10q55 0 81.5 -32.5t26.5 -86.5q0 -129 -8 -381h12q3 8 10.5 21t35 46t62 58.5t94 46.5t128.5 21q187 0 306.5 -166.5t119.5 -452.5q0 -244 -122.5 -396t-301.5 -152 q-71 0 -133.5 24.5t-101.5 60.5t-62.5 69t-32.5 59h-14q3 -246 10 -406q3 -57 -15.5 -75.5t-68.5 -18.5h-67q-45 0 -62.5 22t-15.5 66zM383 444q5 -20 17 -50t37.5 -72.5t58 -78t82 -60.5t104.5 -25q108 0 178 90t70 278q0 208 -74 326.5t-194 118.5q-116 0 -197.5 -100 t-81.5 -271v-156z" />
<glyph unicode="&#xff;" horiz-adv-x="1130" d="M44.5 1091q1.5 17 16 26t41.5 9h66q23 0 39.5 -4.5t25.5 -8.5t17.5 -17.5t11 -19.5t10.5 -27q3 -7 75 -196.5t140.5 -373.5t94.5 -262h12l237 830q11 42 29.5 60.5t69.5 18.5h88q42 0 50.5 -29.5t-5.5 -70.5q-15 -56 -72.5 -239t-126 -401t-94.5 -302 q-30 -98 -63.5 -168.5t-81.5 -128t-113.5 -86.5t-149.5 -29q-147 0 -223 39q-29 13 -36 28.5t1 47.5l17 70q11 47 65 24q70 -33 160 -33q80 0 126 57t85 195h-59q-44 0 -64.5 14.5t-34.5 53.5q-27 72 -183 459.5t-159 394.5q-8 21 -11 36.5t-1.5 32.5zM156 1391 q-3 77 27.5 101t92.5 24t94.5 -24t35.5 -101q1 -76 -29.5 -99.5t-91.5 -23.5q-65 0 -96.5 23.5t-32.5 99.5zM696 1391q-3 77 28 101t93 24t94 -24t35 -101q1 -76 -29.5 -99.5t-91.5 -23.5q-65 0 -96.5 23.5t-32.5 99.5z" />
<glyph unicode="&#x152;" horiz-adv-x="1925" d="M125 696q0 153 36.5 282t108 226.5t185 153t258.5 55.5q49 0 98.5 -5t81 -10t37.5 -5h782q40 0 53 -18t13 -56v-59q0 -69 -72 -66q-5 0 -257.5 1t-309.5 1l2 -414h487q24 2 39.5 -12t15.5 -43v-70q0 -31 -11 -42t-40 -9q-25 2 -493 2q0 -30 3 -208.5t3 -200.5 q43 1 181 1.5t256 1t130 1.5q68 3 68 -68v-80q0 -34 -13 -44.5t-55 -10.5h-754q-2 0 -74.5 -10t-156.5 -10q-153 0 -270 54.5t-188.5 152t-107.5 226t-36 283.5zM350 702q0 -164 38 -281.5t123 -186t214 -68.5q56 0 103.5 7t67.5 15l19 7q3 219 2 442t-3 392l-3 169 q-65 29 -196 29q-121 0 -204.5 -68.5t-122 -184.5t-38.5 -272z" />
<glyph unicode="&#x153;" horiz-adv-x="2037" d="M104 569q2 123 34.5 226.5t94 183t159 124t220.5 44.5q154 0 265.5 -66t175.5 -184q65 118 175.5 184t258.5 66q103 0 188 -34.5t139.5 -92t83.5 -131t29 -154.5q0 -86 -14 -132.5t-36 -60.5t-60 -14h-627l-4 -6q0 -96 33.5 -177t108 -135t179.5 -54q26 0 51.5 3 t47.5 7.5t44.5 11.5t40.5 14t35.5 15.5t30.5 15t26 14.5t19.5 12.5t13.5 9.5l7 5q35 -18 51 -61q31 -81 -29 -125q-42 -32 -132 -65t-206 -33q-328 0 -458 247q-63 -119 -172.5 -184.5t-262.5 -65.5q-125 0 -223.5 45t-161 124.5t-95 187t-30.5 235.5zM326 569q0 -70 7 -127 t26.5 -111.5t51 -92t82.5 -60t119 -22.5q293 0 293 413q0 85 -15 154t-48 126t-91 88.5t-137 31.5q-69 0 -120.5 -21.5t-83 -57.5t-51 -89t-26.5 -108t-7 -124zM1192 676h520q4 30 4 59q0 234 -233 234q-78 0 -137 -29.5t-90.5 -77t-46.5 -94t-17 -92.5z" />
<glyph unicode="&#x178;" horiz-adv-x="1277" d="M53.5 1357q-0.5 15 9.5 25.5t31 10.5h115q24 0 42 -11.5t25.5 -23t17.5 -31.5l3 -6q39 -73 182 -308t148 -243h14q56 85 186.5 304.5t151.5 262.5q14 29 34.5 42.5t69.5 13.5h93q31 0 45.5 -30t-4.5 -58q-24 -31 -231 -359t-241 -377q1 -23 1 -214.5t2 -217.5 q1 -8 3 -29.5t3 -32t-2 -27.5t-10.5 -25.5t-23.5 -15.5t-40 -7h-82q-85 0 -76 123v450q-53 94 -239.5 395t-212.5 337q-6 10 -10 23.5t-4.5 28.5zM242 1626q-3 77 27.5 101t92.5 24t94.5 -24t35.5 -101q1 -76 -29.5 -99.5t-91.5 -23.5q-65 0 -96.5 23.5t-32.5 99.5z M782 1626q-3 77 28 101t93 24t94 -24t35 -101q1 -76 -29.5 -99.5t-91.5 -23.5q-65 0 -96.5 23.5t-32.5 99.5z" />
<glyph unicode="&#x2000;" horiz-adv-x="976" />
<glyph unicode="&#x2001;" horiz-adv-x="1952" />
<glyph unicode="&#x2002;" horiz-adv-x="976" />
<glyph unicode="&#x2003;" horiz-adv-x="1952" />
<glyph unicode="&#x2004;" horiz-adv-x="650" />
<glyph unicode="&#x2005;" horiz-adv-x="488" />
<glyph unicode="&#x2006;" horiz-adv-x="325" />
<glyph unicode="&#x2007;" horiz-adv-x="325" />
<glyph unicode="&#x2008;" horiz-adv-x="244" />
<glyph unicode="&#x2009;" horiz-adv-x="390" />
<glyph unicode="&#x200a;" horiz-adv-x="108" />
<glyph unicode="&#x2010;" horiz-adv-x="917" d="M154 668v77q0 34 12.5 45t54.5 11q396 0 488 6q32 1 44.5 -17.5t12.5 -56.5l-2 -74q0 -34 -13 -44.5t-55 -10.5l-483 -4q-34 0 -46.5 15.5t-12.5 52.5z" />
<glyph unicode="&#x2011;" horiz-adv-x="917" d="M154 668v77q0 34 12.5 45t54.5 11q396 0 488 6q32 1 44.5 -17.5t12.5 -56.5l-2 -74q0 -34 -13 -44.5t-55 -10.5l-483 -4q-34 0 -46.5 15.5t-12.5 52.5z" />
<glyph unicode="&#x2012;" horiz-adv-x="917" d="M154 668v77q0 34 12.5 45t54.5 11q396 0 488 6q32 1 44.5 -17.5t12.5 -56.5l-2 -74q0 -34 -13 -44.5t-55 -10.5l-483 -4q-34 0 -46.5 15.5t-12.5 52.5z" />
<glyph unicode="&#x2013;" horiz-adv-x="1329" d="M154 668v77q0 34 21 45t91 11q663 0 817 6q53 1 74 -17.5t21 -56.5l-3 -74q0 -34 -22 -44.5t-92 -10.5l-808 -4q-57 0 -78 15.5t-21 52.5z" />
<glyph unicode="&#x2014;" horiz-adv-x="2353" d="M154 668v77q0 34 42 45t182 11q1325 0 1633 6q107 1 149 -17.5t42 -56.5l-7 -74q0 -34 -43.5 -44.5t-183.5 -10.5l-1617 -4q-113 0 -155 15.5t-42 52.5z" />
<glyph unicode="&#x202f;" horiz-adv-x="390" />
<glyph unicode="&#x205f;" horiz-adv-x="488" />
<glyph unicode="&#xe000;" horiz-adv-x="1126" d="M0 0v1126h1126v-1126h-1126z" />
<glyph unicode="&#xfb01;" horiz-adv-x="1433" d="M88 911v62q0 41 37 47l129 27v100q0 59 17.5 111.5t54.5 97.5t102.5 71.5t153.5 26.5q81 0 188 -22l2.5 -17.5t1 -38.5t-6.5 -49.5t-25 -39t-50 -17.5q-18 0 -54 3t-54 3q-48 0 -84.5 -30.5t-36.5 -98.5v-100q141 -4 217 0q28 1 38.5 -7t8.5 -28l-6 -103q-1 -23 -9.5 -32 t-27.5 -9h-217q-2 -119 -1 -256.5t3 -304t2 -174.5q0 -9 1 -29t1 -31t-3 -27t-10 -24.5t-21.5 -15t-35.5 -6.5h-75q-27 0 -44 10.5t-23.5 31t-8 37.5t-0.5 42v751h-7q-7 0 -17.5 0.5t-24 0.5h-26t-25.5 -0.5t-21 -0.5q-24 -1 -33.5 8t-9.5 31zM1006 1391q-3 77 27.5 101 t92.5 24t94 -24t35 -101q1 -76 -29 -99.5t-91 -23.5q-64 0 -95 23t-34 100zM1010 81.5q-2 21.5 0 41.5q4 78 4 174q4 258 4 719q0 6 -1 26t-0.5 27t5.5 21t14.5 20t28.5 11t47 5q77 0 105.5 -20.5t25.5 -79.5q-12 -258 -12 -752q0 -119 2 -137q3 -41 2 -71.5t-17.5 -48 t-50.5 -17.5h-84q-27 0 -44 12t-22 30t-7 39.5z" />
<glyph unicode="&#xfb02;" horiz-adv-x="1482" d="M88 911v62q0 41 37 47l129 27v100q0 59 17.5 111.5t54.5 97.5t102.5 71.5t153.5 26.5q81 0 188 -22l2.5 -17.5t1 -38.5t-6.5 -49.5t-25 -39t-50 -17.5q-18 0 -54 3t-54 3q-48 0 -84.5 -30.5t-36.5 -98.5v-100q141 -4 217 0q28 1 38.5 -7t8.5 -28l-6 -103q-1 -23 -9.5 -32 t-27.5 -9h-217q-2 -119 -1 -256.5t3 -304t2 -174.5q0 -9 1 -29t1 -31t-3 -27t-10 -24.5t-21.5 -15t-35.5 -6.5h-75q-27 0 -44 10.5t-23.5 31t-8 37.5t-0.5 42v751h-7q-7 0 -17.5 0.5t-24 0.5h-26t-25.5 -0.5t-21 -0.5q-24 -1 -33.5 8t-9.5 31zM991 213q0 48 4 336.5t6 493.5 t0 300q-5 65 12.5 88t84.5 23q81 0 106 -31t21 -90q-7 -140 -17 -535.5t-6 -566.5q1 -39 11.5 -54.5t33.5 -16.5t62 2q44 3 47 -33l4 -63q2 -24 -5 -36.5t-28 -21.5q-68 -28 -158 -28q-178 0 -178 233z" />
</font>
</defs>
</svg>
