<?xml version="1.0" standalone="no"?>
<!DOCTYPE svg PUBLIC "-//W3C//DTD SVG 1.1//EN" "http://www.w3.org/Graphics/SVG/1.1/DTD/svg11.dtd" >
<svg xmlns="http://www.w3.org/2000/svg">
<metadata></metadata>
<defs>
<font id="brevia_lightregular" horiz-adv-x="946" >
<font-face units-per-em="2048" ascent="1638" descent="-410" />
<missing-glyph horiz-adv-x="729" />
<glyph horiz-adv-x="2048" />
<glyph horiz-adv-x="2048" />
<glyph unicode="&#xd;" horiz-adv-x="2048" />
<glyph unicode=" "  horiz-adv-x="729" />
<glyph unicode="&#x09;" horiz-adv-x="729" />
<glyph unicode="&#xa0;" horiz-adv-x="729" />
<glyph unicode="!" horiz-adv-x="649" d="M238 100q-1 43 6.5 70t26 39.5t36.5 16t47 3.5q30 0 49 -3.5t38.5 -16t29 -39.5t10.5 -70q0 -40 -8.5 -65.5t-27 -36.5t-36.5 -14.5t-47 -3.5q-63 0 -93.5 22t-30.5 98zM311 1329q0 48 16.5 66t49.5 18q14 0 23.5 -3t20.5 -13.5t17 -36t6 -64.5q2 -129 -41 -735l-61 -2 q-2 43 -9.5 178.5t-12 225.5t-7.5 199t-2 167z" />
<glyph unicode="#" horiz-adv-x="1359" d="M152 387v23q0 30 5 35.5t27 5.5h138l118 587h-155q-20 0 -24.5 5t-4.5 28v25q0 11 2 17.5t7.5 9t9.5 3t16 0.5h172q8 46 19 102.5t18 92.5t8 41q5 31 41 31h18q23 0 30.5 -7t4.5 -26l-47 -234q57 -2 124.5 -2t148.5 1t122 1q12 54 29.5 144t17.5 92q6 31 37 31h29 q17 0 24.5 -8.5t4.5 -22.5q-8 -50 -26.5 -135.5t-21.5 -100.5h138q23 2 33 -5t10 -29v-25q0 -20 -7 -26.5t-26 -6.5h-168l-117 -581h170q20 2 25.5 -4t5.5 -29v-39q0 -18 -6 -21.5t-27 -3.5l-188 2q-23 -121 -66 -319q-4 -25 -13.5 -32t-35.5 -7h-10q-23 0 -29 8.5t0 36.5 l60 311h-398q-56 -292 -65 -319q-7 -37 -49 -37h-7q-23 0 -31 10t-3 35l61 311l-119 -2q-23 0 -26.5 4.5t-3.5 28.5zM416 451h397l119 583h-400z" />
<glyph unicode="$" horiz-adv-x="1118" d="M109 1040q0 70 28.5 135t79.5 116.5t129 83.5t170 36v141q0 33 43 33q17 -1 27 -11.5t12 -21.5q0 -4 -0.5 -26t-1 -53.5t-0.5 -59.5q95 -4 160 -22.5t125 -53.5q30 -17 46 -42.5t5 -53.5q-5 -15 -17 -25.5t-21 -13.5l-9 -4q-5 5 -13.5 12.5t-40 27.5t-66.5 35t-92 27.5 t-118 12.5q-163 0 -247.5 -78t-84.5 -199q0 -53 20.5 -94t60.5 -68.5t75 -43t86 -31.5l225 -68q158 -47 241 -141.5t79 -231.5q-7 -166 -117.5 -262t-294.5 -114v-230q0 -17 -7 -24t-30 -7h-16q-24 0 -30.5 10.5t-4.5 28.5q2 9 2 222q-101 0 -187 30t-130 66q-26 21 -35 38 t-8 46q1 21 13 36t24 20l12 5q4 -6 12.5 -15.5t40 -34t68 -43.5t97.5 -34.5t128 -15.5q159 0 253.5 77t94.5 205q0 91 -66 161t-178 104l-223 67q-53 16 -96.5 34.5t-86.5 48t-71.5 65.5t-46.5 86.5t-18 111.5z" />
<glyph unicode="%" horiz-adv-x="1814" d="M152 1040q-5 163 84 268t251 105q161 0 247 -103.5t89 -269.5q5 -163 -86 -267.5t-243 -104.5q-174 0 -256.5 99.5t-85.5 272.5zM256 1042q0 -57 12 -105.5t37.5 -91t73.5 -67t113 -24.5q60 0 105 24.5t70 67t36.5 91.5t11.5 105q0 55 -12 103.5t-37.5 90.5t-71 66.5 t-105.5 24.5q-65 0 -112.5 -24.5t-72.5 -66.5t-36.5 -90t-11.5 -104zM529 28q4 14 20 44q75 144 293.5 615.5t294.5 645.5q18 44 34 54q9 6 21 6h39q51 0 14 -72q-50 -99 -279.5 -592t-314.5 -680q-14 -32 -27.5 -40.5t-41.5 -8.5h-17q-24 0 -32 7t-4 21zM989 352 q-3 163 86.5 268t251.5 105q161 0 247 -103.5t89 -269.5q5 -163 -86.5 -267.5t-243.5 -104.5q-174 0 -256.5 99t-87.5 273zM1096 354q0 -45 7 -84.5t23.5 -77.5t42.5 -65.5t67.5 -44t94.5 -16.5q60 0 105 24.5t70 67t36.5 91.5t11.5 105q0 55 -12 103.5t-37.5 90.5t-71 66.5 t-106.5 24.5q-65 0 -111.5 -24.5t-71.5 -66.5t-36.5 -90t-11.5 -104z" />
<glyph unicode="(" horiz-adv-x="745" d="M182 629q0 113 24.5 223.5t64 194.5t82 155t85.5 120.5t68 75t35 32.5q34 25 63 0l14 -15q7 -7 8 -19t-14 -32l-3 -3q-132 -115 -218 -291q-98 -204 -98 -439q0 -84 13 -164t33.5 -143t49 -122.5t55.5 -101.5t57 -81t50.5 -60.5t39 -39.5t19.5 -19q13 -9 15.5 -26.5 t-15.5 -39.5l-14 -14q-8 -8 -15.5 -11.5t-14.5 -1.5t-11 4.5t-11 8.5t-9 8q-13 9 -46.5 45t-88 112t-102 166.5t-82 219t-34.5 258.5z" />
<glyph unicode=")" horiz-adv-x="745" d="M127 -109q53 53 58 59q190 208 247 476q21 101 21 205q0 113 -23 218.5t-56 179t-75 140t-75.5 103t-61.5 65t-29 29.5q-24 33 -2 51l21 21q25 22 65 -15q16 -14 45.5 -46t85 -109.5t101 -165t80 -216t34.5 -257.5q0 -93 -19 -186.5t-46 -166t-67 -145.5t-71.5 -119.5 t-70.5 -93.5t-52 -61t-28 -29l-5 -5l-5 -5t-5 -4.5t-6.5 -4t-6.5 -2t-7.5 -0.5t-8 2t-9 4.5t-9.5 8.5l-20 20q-25 24 0 49z" />
<glyph unicode="*" horiz-adv-x="968" d="M141 1085q0 27 21.5 40t58 13.5t71.5 -2.5t74.5 -8.5t55.5 -5.5l4 6q-10 15 -27.5 38t-34 44.5t-35 46t-31.5 46.5t-21 41.5t-6 35t16 23.5l6 4q23 15 48 -0.5t48 -55t39 -75t35 -81.5q2 -7 4 -11t4 -9.5t4 -9.5h10q5 13 17 55t23 74t27 67t36 51t41 9l12 -4 q23 -8 24 -32.5t-15.5 -60t-36.5 -68.5t-44 -71t-32 -55l6 -6q18 0 60 4.5t76.5 6.5t70.5 0.5t56.5 -14.5t20.5 -38q0 -23 -19 -34t-53 -11t-68 3.5t-76 9.5t-64 6l-4 -8q6 -9 23 -29t34 -40.5t36.5 -46t34 -49t24 -45t8.5 -38.5t-15 -25l-10 -6q-25 -15 -66.5 33.5 t-72.5 107t-45 97.5h-13q-4 -31 -32.5 -94t-67.5 -112t-64 -34l-10 6q-13 8 -14.5 24t6.5 37t20.5 44t29.5 48t31.5 46.5t28.5 41t19 29.5l-6 9q-17 0 -57 -4t-75 -6.5t-70.5 -1.5t-57 12t-21.5 32z" />
<glyph unicode="," horiz-adv-x="702" d="M216 -274l1 6q8 0 21 1.5t45.5 15.5t58 38.5t46 78.5t20.5 128q-87 -12 -129.5 16t-42.5 101q0 50 32.5 79t83.5 29q66 0 104 -46.5t38 -141.5q0 -78 -14.5 -141.5t-37 -103t-52 -66t-56.5 -37.5t-53 -11q-22 0 -37 6t-20 15t-7 18t-1 15z" />
<glyph unicode="-" d="M182 682v27q0 20 6.5 26t28.5 6h520q17 0 23 -9.5t6 -31.5v-22q0 -20 -6.5 -26.5t-28.5 -6.5h-518q-19 0 -25 7.5t-6 29.5z" />
<glyph unicode="." horiz-adv-x="616" d="M184 102q-1 42 7 68.5t26.5 38.5t38.5 16t51 4q63 0 94.5 -24.5t30.5 -102.5q0 -42 -8.5 -67.5t-27.5 -37t-37.5 -14.5t-49.5 -3t-50 3t-38.5 14.5t-28.5 37.5t-8 67z" />
<glyph unicode="/" horiz-adv-x="729" d="M94 80q37 92 125 357.5t180 553t111 342.5q2 4 6.5 19t8 21t14.5 13t28 7h15q28 0 35 -13t-5 -57q-82 -239 -227.5 -680.5t-183.5 -585.5q-5 -21 -11.5 -33.5t-17.5 -17t-17.5 -5.5t-21.5 -1h-12q-60 0 -27 80z" />
<glyph unicode="0" horiz-adv-x="1314" d="M150 696q0 154 31 282.5t92.5 226.5t162.5 153t232 55q103 0 185.5 -36t139.5 -99.5t95.5 -154t56 -197t18.5 -230.5q2 -150 -31 -279.5t-97 -227t-164 -153.5t-226 -56q-130 0 -227 54t-154.5 152t-85.5 225.5t-28 284.5zM266 698q0 -120 21.5 -227t65 -197t119.5 -143 t175 -53t177 51.5t126.5 138.5t73.5 196.5t25 231.5q-1 126 -24 235.5t-68 196.5t-119 137t-170 50q-81 0 -148.5 -33t-114 -90t-78 -136t-46.5 -168.5t-15 -189.5z" />
<glyph unicode="1" horiz-adv-x="903" d="M109 1111.5q5 15.5 20 23.5l459 258h43q6 0 11.5 -1t9 -3t6 -4t4 -6.5t2.5 -6.5t1.5 -9t0.5 -9v-10.5v-10.5q-2 -83 -1 -329.5t3 -583t2 -338.5q0 -5 1.5 -26t0.5 -29.5t-10 -17.5t-27 -9h-35q-14 0 -22.5 6t-12 19t-4 22.5t-0.5 26.5q0 12 -1.5 538t1.5 648l-366 -209 q-48 -24 -72 14l-8 10q-11 21 -6 36.5z" />
<glyph unicode="2" horiz-adv-x="1153" d="M143 43v74q74 80 189 188t199.5 188.5t167 172.5t127 182.5t44.5 177.5q0 131 -85 209t-248 78q-54 0 -108.5 -13t-94 -31.5t-71.5 -36.5t-48 -31l-16 -13q-19 11 -29 29q-26 47 25 86q25 18 61 38.5t118 46t163 25.5q204 0 326 -102.5t122 -284.5q0 -80 -40 -170 t-100 -167.5t-143 -164t-156 -152t-152.5 -138.5t-119.5 -117v-17q667 0 674 2q36 3 33 -43v-26q-2 -21 -7.5 -27t-29.5 -6h-760q-22 0 -31.5 10t-9.5 33z" />
<glyph unicode="3" horiz-adv-x="1193" d="M131 170q3 16 13 28t19 16l9 3q6 -6 18 -15t51.5 -32.5t83 -41.5t110.5 -33t136 -15q96 0 168.5 25t114.5 69t62.5 98t21.5 119q0 111 -77.5 191t-217.5 80h-240q-18 0 -18 28v51q0 8 6 14.5t15 6.5h221q113 0 191.5 75.5t78.5 202.5q0 124 -85.5 198.5t-236.5 74.5 q-74 0 -140 -13.5t-106.5 -33t-70.5 -39.5t-42 -33l-13 -14q-17 8 -29 28q-30 44 16 90q42 40 148.5 77.5t232.5 37.5q115 0 202.5 -30.5t138 -83t75.5 -116t25 -136.5q0 -75 -23.5 -136t-56.5 -94t-66 -55.5t-56 -29.5l-24 -7v-12q6 -1 15.5 -3.5t37.5 -13.5t53.5 -25 t56.5 -41t53 -59t37.5 -81t15.5 -105q0 -177 -136 -291t-348 -114q-138 0 -246.5 37.5t-152.5 72.5q-48 33 -41 80z" />
<glyph unicode="4" horiz-adv-x="1273" d="M180 553q1 39 20 406.5t19 379.5q0 21 1 30t9 16.5t25 7.5h41q39 0 35 -45q0 -11 -22.5 -351t-22.5 -401h536q1 27 0.5 106.5t-1 155t-0.5 141.5l-1 66q0 18 0.5 24.5t3.5 17.5t11 15t22 4h27q23 0 36.5 -14t12.5 -37v-479h219q11 2 19.5 -7.5t7.5 -27.5v-33 q0 -19 -5.5 -25.5t-19.5 -6.5q-8 2 -221 2v-420q0 -3 1.5 -12t1.5 -13t0.5 -11.5t-0.5 -11.5t-2 -9.5t-4 -8.5t-7 -6t-10.5 -4.5t-14.5 -1.5h-39q-26 0 -32.5 20.5t-4.5 53.5q0 10 0.5 210t-0.5 214q-48 0 -313 -1t-285 -1q-25 0 -34.5 12.5t-8.5 44.5z" />
<glyph unicode="5" horiz-adv-x="1210" d="M154.5 185.5q10.5 24.5 38.5 33.5q5 -6 14.5 -15t45.5 -33t78.5 -42.5t114.5 -33.5t152 -15q166 0 255 94.5t91 241.5q2 153 -116.5 241t-378.5 88q-51 0 -119 -7t-78 -7q-17 0 -29 13t-12 38q0 1 3 98t6 225t3 204q0 42 17.5 63t66.5 21h631q19 0 25 -10.5t6 -34.5v-19 q0 -26 -14.5 -31.5t-57.5 -5.5h-563q-1 -67 -5.5 -244.5t-4.5 -203.5q94 9 185.5 4t173.5 -18t151 -46.5t119.5 -80.5t79 -120.5t28.5 -166.5q0 -192 -125 -314t-338 -122q-186 0 -300 47.5t-140 99.5q-14 34 -3.5 58.5z" />
<glyph unicode="6" horiz-adv-x="1263" d="M150 641q0 119 25 231t77 210.5t124 172t173 116t219 42.5q158 0 270 -53q64 -30 35 -86q-6 -12 -14 -21t-13 -11l-4 -3q-12 8 -34.5 20.5t-94 33t-145.5 20.5q-97 0 -180 -35t-143 -96.5t-103.5 -145t-64.5 -181t-21 -202.5h16q4 9 12.5 24t41 53t73 67t111.5 53t152 24 q68 0 133 -16t124 -50.5t103 -84.5t70 -123t26 -160q0 -195 -134.5 -327.5t-321.5 -132.5q-245 0 -378.5 170.5t-133.5 490.5zM289 432q-1 -162 108 -257t265 -95q158 0 248.5 105t90.5 255q0 67 -20 122t-54 93t-80 64.5t-96.5 38.5t-105.5 12q-88 0 -158.5 -30t-112.5 -80 t-63.5 -108.5t-21.5 -119.5z" />
<glyph unicode="7" horiz-adv-x="1110" d="M131 1335l2 25q2 21 7.5 27t27.5 6h809q17 0 28 -12t11 -31v-58q-154 -252 -370.5 -649t-313.5 -610q-7 -16 -18 -24t-16.5 -8.5t-16.5 -0.5h-41q-21 0 -30 17.5t-1 35.5q62 142 186.5 368t295.5 519t198 340v12h-727q-34 0 -31 43z" />
<glyph unicode="8" horiz-adv-x="1253" d="M131 391q-1 56 14 105.5t39.5 83t54 61t59.5 44t54.5 27.5t39.5 15l16 4v12q-9 4 -23 11t-50.5 34t-64 59t-50.5 86t-23 114q0 71 28 136t81 116.5t137.5 82.5t189.5 31q89 0 162.5 -20.5t124 -55t85 -81.5t50.5 -99.5t16 -109.5q0 -60 -22.5 -113.5t-54.5 -87t-64.5 -58 t-55.5 -34.5l-22 -11v-12q6 -1 15.5 -4t38 -15t54 -27.5t57 -44t54 -61.5t38 -82.5t15.5 -105.5q0 -182 -136 -296.5t-355 -114.5q-229 0 -364.5 113.5t-137.5 297.5zM248 391q2 -143 99 -227t286 -84q191 0 283 83.5t92 227.5q0 130 -92.5 210.5t-282.5 80.5 q-187 0 -287 -81.5t-98 -209.5zM313 1047q0 -115 82 -190t238 -75q151 0 236 76t85 189q0 120 -85.5 193t-235.5 73q-159 0 -239.5 -71.5t-80.5 -194.5z" />
<glyph unicode="9" horiz-adv-x="1265" d="M145 963q2 66 20 129.5t55.5 122t91 102t132 70t172.5 26.5q247 0 373.5 -172.5t126.5 -503.5q0 -118 -19 -224t-64 -205t-112 -170.5t-170.5 -114.5t-232.5 -43q-187 0 -282 67q-39 27 -25 68q5 15 14 25t15 13l6 3q4 -3 12.5 -9t36 -20.5t57 -25.5t75 -20t91.5 -9 q111 0 198 40t141 105t89.5 154t49.5 179.5t14 188.5h-17q-5 -9 -14 -24t-43.5 -53.5t-75 -68t-108 -53.5t-142.5 -24q-211 0 -338 121t-127 326zM260 963q-1 -163 101 -252.5t274 -89.5q158 0 248 92.5t92 226.5q1 173 -101.5 273t-257.5 100q-170 0 -262 -100t-94 -250z " />
<glyph unicode=":" horiz-adv-x="616" d="M190 104q-3 76 26.5 100.5t90.5 24.5q60 0 91 -24.5t30 -100.5q0 -76 -29 -100t-88 -24q-61 0 -91.5 24t-29.5 100zM190 1022q-3 76 26.5 100.5t90.5 24.5q59 0 89.5 -24.5t29.5 -100.5q0 -76 -29 -100.5t-88 -24.5t-89.5 24.5t-29.5 100.5z" />
<glyph unicode=";" horiz-adv-x="614" d="M190 1022q-3 76 26.5 100.5t90.5 24.5q59 0 89.5 -24.5t29.5 -100.5q0 -76 -29 -100.5t-88 -24.5t-89.5 24.5t-29.5 100.5zM192 -283l1 15q8 0 20.5 1.5t45.5 15.5t58 39t45.5 79t20.5 127q-172 -25 -172 115q0 51 32.5 80.5t84.5 29.5q68 0 104.5 -47.5t36.5 -140.5 t-20 -165t-52.5 -112.5t-68 -61t-72.5 -20.5q-35 0 -50.5 15t-13.5 30z" />
<glyph unicode="?" horiz-adv-x="997" d="M158.5 1254q3.5 19 21.5 38q45 48 138.5 84.5t199.5 36.5q177 0 277.5 -88.5t95.5 -234.5q-2 -67 -36.5 -135.5t-82 -123.5t-95.5 -105t-82.5 -98t-37.5 -85q-16 -15 -43 -15q-61 0 -61 54q0 34 33.5 80t80.5 94.5t94.5 101t81 114t33.5 118.5q0 100 -66 161.5t-192 61.5 q-58 0 -111.5 -13.5t-88.5 -33t-62 -39.5t-39 -33l-12 -14q-4 2 -9.5 5.5t-17 14.5t-17.5 23t-2.5 31zM365 100q-1 43 7 70t26.5 39.5t36.5 16t46 3.5q62 0 94 -24t35 -105q0 -76 -30 -98t-91 -22q-63 0 -93.5 22t-30.5 98z" />
<glyph unicode="@" horiz-adv-x="2123" d="M203 573q0 181 60.5 340t173 280t286 191t385.5 70q164 0 311 -52.5t258 -147t176.5 -237t65.5 -312.5q0 -120 -25.5 -222.5t-66 -171t-92.5 -117t-104.5 -70.5t-102.5 -22q-44 0 -75.5 12.5t-47.5 29.5t-25 46.5t-10.5 52t-1.5 58.5h-12q-8 -18 -36 -47.5t-74.5 -65 t-120.5 -61t-154 -25.5q-190 0 -304 131t-114 338q0 109 33 204t89.5 162t130 115.5t154.5 71.5t164 23q349 0 349 -354v-482q0 -62 10 -89t43 -27q40 0 79.5 18t77 58.5t66 98.5t46 145t17.5 190q0 128 -39.5 236.5t-107 185.5t-157.5 132t-191.5 81t-208.5 26 q-185 0 -338 -63.5t-253 -172t-154 -252t-54 -305.5q0 -137 30 -250.5t78.5 -189t113 -128.5t130 -78.5t132.5 -30.5q1 0 7 -0.5t8 -1t7.5 -1.5t8 -3t6.5 -5t5.5 -7.5t3 -10.5t1.5 -14v-21q0 -37 -45 -37q-75 0 -154 27t-158 89t-141 149.5t-100.5 221t-38.5 291.5zM668 571 q0 -158 87 -267t226 -109q140 0 247.5 88t141.5 196q2 80 2 328q0 110 -59 179t-185 69q-121 0 -225 -57.5t-169.5 -170t-65.5 -256.5z" />
<glyph unicode="A" horiz-adv-x="1353" d="M84 55q6 18 252.5 635t259.5 653q8 26 24 38t48 12h12q22 0 35.5 -3t22.5 -14.5t12.5 -19.5t11.5 -31q11 -32 262 -655.5t254 -630.5q1 -5 1 -10q-1 -9 -5 -17q-8 -12 -31 -12h-24q-20 0 -32 8t-14.5 13.5t-5.5 17.5l-137 330h-711q-26 -68 -75.5 -188.5t-55.5 -137.5 q-13 -43 -51 -43h-39q-23 0 -23 21q0 13 9 34zM352 465h647l-319 819h-12q-11 -28 -64 -169.5t-123 -324t-129 -325.5z" />
<glyph unicode="B" horiz-adv-x="1366" d="M229 1348q2 27 17 36t61 9h389q251 0 367.5 -94t116.5 -250q0 -56 -14.5 -105t-38.5 -81.5t-52.5 -59t-56.5 -41.5t-52 -25.5t-38 -14.5l-15 -3v-12q7 -1 18 -2.5t43.5 -10t62 -21t66 -37.5t62 -57.5t43 -83.5t17.5 -112q-2 -177 -131 -280t-392 -103h-405 q-40 0 -53 18.5t-13 49.5q1 22 1 159v149v172q0 184 -1 360t-1.5 307t-0.5 133zM338 1292l2 -536h356q174 0 271.5 80t97.5 213q0 120 -104 181.5t-269 61.5h-354zM340 100h365q85 0 155.5 15.5t127 48t88.5 88.5t32 131q0 134 -104.5 203t-298.5 69h-365v-555z" />
<glyph unicode="C" horiz-adv-x="1382" d="M152 696v14q0 142 40 265q42 129 122 227.5t209 154.5t294 56q129 0 225.5 -30t151.5 -66q38 -25 38 -53q0 -24 -28 -50l-20 -18q-6 5 -16.5 13t-47 28t-77 35.5t-104 28t-130.5 12.5q-173 0 -297 -80t-185 -217.5t-61 -317.5q0 -179 66.5 -319t191.5 -219.5t289 -79.5 t287 74q16 11 32.5 11t28.5 -20l21 -28q21 -28 -15 -51q-23 -15 -57.5 -31t-118.5 -35.5t-178 -19.5q-163 0 -289.5 53.5t-206.5 150t-121.5 226t-43.5 286.5z" />
<glyph unicode="D" horiz-adv-x="1484" d="M229 74q3 58 6 595q2 322 2 489q0 111 -1 153q0 47 18.5 64.5t60.5 17.5h250q169 0 300.5 -33.5t218.5 -93t143.5 -145.5t81 -185.5t24.5 -218.5v-10q1 -125 -23 -228q-24 -107 -81.5 -197.5t-145.5 -152t-219.5 -95.5t-300.5 -34h-260q-31 0 -52.5 19.5t-21.5 54.5z M340 100h231q181 0 309 44t201 128t105.5 192.5t32.5 252.5q0 97 -19 179t-65.5 156.5t-118.5 126.5t-185 82.5t-258 30.5h-231q0 -43 1 -120q0 -155 -1.5 -451t-1.5 -473v-148z" />
<glyph unicode="E" horiz-adv-x="1273" d="M231 1010q0 146 -0.5 221t0.5 80q0 18 1 28.5t6 25t16.5 21.5t30.5 7h794q35 0 35 -37v-25q0 -23 -6 -31t-27 -8h-741l2 -553q119 0 378.5 1t268.5 1q29 0 29 -34v-37q0 -27 -29 -27q-3 0 -137 0.5t-276.5 0.5t-235.5 -1q0 -69 -2 -263q-1 -116 0 -193v-87q649 0 737 2 q37 0 37 -41v-28q0 -20 -7 -26.5t-30 -6.5h-794q-26 0 -38 23t-10 51q0 16 0.5 101t-0.5 237q-1 306 -2 598z" />
<glyph unicode="F" horiz-adv-x="1206" d="M231 1311q0 47 21.5 64.5t66.5 17.5h701q57 0 57 -39v-21q0 -24 -10 -32.5t-39 -8.5h-692l4 -565q41 0 293 2t336 2q15 0 24 -1.5t17 -10.5t8 -25v-24q0 -17 -10 -29t-25 -12q-477 0 -641 -2q0 -537 2 -549q5 -32 -5 -55t-30 -23h-30q-33 0 -41 14q-6 10 -6 43q0 11 1 25 q5 50 5 170q-4 237 -6 642q-2 289 -1 378v39z" />
<glyph unicode="G" horiz-adv-x="1495" d="M152 696v7q0 150 42 279q43 131 123.5 227t202.5 150t271 54q239 0 413 -92q23 -11 36.5 -25.5t16.5 -37t-22 -46.5q-5 -6 -12.5 -11.5t-12.5 -8.5l-4 -2q-7 5 -19 13.5t-53.5 29.5t-86.5 37t-114 29.5t-140 13.5q-238 0 -382.5 -162t-144.5 -451q0 -158 38.5 -279 t107.5 -194.5t158.5 -110t197.5 -36.5q94 0 169.5 30.5t121.5 78.5t79 106.5t47.5 117.5t22.5 107t8 78l1 31l-373 2q-33 0 -33 26v43q0 31 33 31h446q23 0 30 -8t7 -33q-2 -41 -7 -322q-4 -182 -4 -260q0 -43 1 -55q2 -28 -5.5 -40.5t-25.5 -12.5h-55q-20 0 -27.5 10 t-7.5 33q0 3 2.5 44.5t4.5 85.5t1 56h-18q-5 -10 -15 -27t-47.5 -60t-82 -75.5t-118.5 -59.5t-157 -27q-134 0 -238.5 36t-174 99t-115 154t-65.5 196t-21 231z" />
<glyph unicode="H" horiz-adv-x="1615" d="M234 1374q3 10 12 14.5t24 4.5h35q37 0 37 -60v-12q-2 -22 -2 -168.5t2 -417.5h926v576q0 6 -1.5 21t-1 23.5t3.5 18.5t12 14.5t24 4.5h34q37 0 37 -60v-12q0 -116 2.5 -661.5t5.5 -577.5q0 -6 1 -22q1 -10 1 -17v-5q0 -8 -3.5 -18.5t-12.5 -15t-24 -4.5h-35 q-39 0 -39 62v12q1 18 1 96.5t-0.5 226t-0.5 242.5h-928q4 -524 6 -557q0 -3 1 -15t1 -16.5t-0.5 -15t-3 -15t-7 -10t-12 -8t-18.5 -2.5h-32q-40 0 -40 52q0 10 1 22v33q0 116 -3.5 600t-3.5 580v24q1 6 -1 21q-1 11 -2 19q0 11 4 23z" />
<glyph unicode="I" horiz-adv-x="608" d="M248 74q4 160 4 1237q0 7 -0.5 26.5t0.5 28.5t10 18t27 9h33q18 0 28 -12q9 -11 10 -25v-15.5v-19.5q-4 -143 -4 -629t-2 -610q0 -5 1.5 -26t0.5 -29.5t-10 -17.5t-27 -9h-32q-39 0 -39 62v12z" />
<glyph unicode="J" horiz-adv-x="1095" d="M78 217l35 27q11 7 22 7q19 0 37 -24q47 -55 80 -80q90 -67 211 -67q302 0 305 344q0 81 0.5 303.5t1 413.5t0.5 196q-1 19 -0.5 31t9 18.5t28.5 6.5h35q14 0 22 -5.5t11 -19.5t3.5 -21t0.5 -26q0 -10 -0.5 -190t-1 -395t-0.5 -310v-12q0 -213 -107 -322 q-109 -112 -307 -112q-248 0 -381 176q-10 16 -14 24q-3 6 -3 14q0 14 13 23z" />
<glyph unicode="K" horiz-adv-x="1411" d="M231 63q0 19 0.5 120t0.5 236.5v294.5t-0.5 289t-0.5 224v96v10.5v10.5v9.5t1 9.5t2 8t3 7.5t4.5 6t6 5t8 2.5t10.5 1h35q27 0 35 -15t8 -45q0 -137 -6 -588h321q471 544 527 619q18 29 53 29h51q18 0 26 -10t-3 -25q-72 -80 -270.5 -315.5t-286.5 -346.5 q76 -105 238 -316.5t196 -252.5q28 -33 51 -40t88 -7q7 -17 7 -32q0 -22 -14 -39q-24 -29 -71 -29q-49 0 -81.5 20t-71.5 72q-393 514 -445 577h-313q1 -103 1.5 -254.5t1 -231t1.5 -91.5v-11q0 -61 -41 -61h-33q-18 0 -27 10t-10.5 20.5t-1.5 32.5z" />
<glyph unicode="L" horiz-adv-x="1210" d="M230 1330v10v11q0 12 2.5 18.5t6.5 12.5t12 8.5t19 2.5h31q17 0 26.5 -7t11.5 -21t1 -27t-3.5 -32t-2.5 -30v-111q4 -578 4 -1065q550 0 698 4q45 0 45 -36v-25q0 -43 -43 -43h-741q-66 0 -66 72v1202q0 12 -0.5 29t-0.5 27z" />
<glyph unicode="M" horiz-adv-x="1886" d="M201 57q2 30 27.5 345t49.5 616t25 321q-1 31 11 42.5t42 11.5h66q30 0 47 -9.5t29 -44.5l440 -1024h16q403 952 430 1020q9 28 25 41t28 15t38 2h45q18 0 31 -3.5t19.5 -7t11 -13.5t5.5 -14t2.5 -18t1.5 -16q9 -91 47 -638t43 -615q0 -6 2 -20q2 -11 2 -17q1 -7 -3 -17 q-2 -8 -11 -11t-24 -3h-37q-10 0 -17.5 3t-11.5 6t-6 10.5t-2.5 11.5t-0.5 15q0 10 -1 17q1 29 -17 281q-18 265 -40.5 569t-26.5 369h-14q-23 -60 -211.5 -512.5t-196.5 -476.5q-19 -42 -39.5 -56t-62.5 -14h-29q-47 0 -67.5 12t-35.5 46q-3 8 -198 474t-217 529h-10 q-6 -168 -48.5 -668.5t-44.5 -554.5q0 -43 -7 -51q-7 -10 -27 -10h-39q-26 0 -34 14q-5 10 -6 28q0 7 1 15z" />
<glyph unicode="N" horiz-adv-x="1589" d="M229 1335q2 27 17 42.5t41 15.5h41l903 -1125h16q1 58 1 147v152q-2 198 -4.5 466t-2.5 300v7v9t0.5 9.5t1.5 10.5t3.5 9t5.5 8t7.5 5t10.5 2h41q43 0 43 -72q0 -1188 4 -1239q0 -6 1 -22q1 -10 1 -17v-5q0 -8 -3.5 -18.5t-12 -15t-23.5 -4.5h-39q-13 0 -21 7t-10.5 15 t-5 23t-4.5 21q-8 26 -199 269t-428 537t-256 318h-20q0 -135 2.5 -615.5t3.5 -492.5q-1 -7 -1 -26.5t-1.5 -28.5t-11 -18t-27.5 -9h-33q-39 0 -39 62v12q1 15 1 111v117q0 206 -1 423.5t-1.5 413t-0.5 196.5z" />
<glyph unicode="O" horiz-adv-x="1540" d="M152 696v15q0 145 38 267q40 130 116.5 227.5t198 152.5t275.5 55q191 0 330 -95t208 -255t71 -367v-17q0 -196 -68 -350q-71 -161 -214 -255t-337 -94q-157 0 -276.5 53.5t-193 150.5t-110 225.5t-38.5 286.5zM268 698v-12q0 -96 16 -180q16 -90 54.5 -168.5t96.5 -135 t145 -89.5t196 -33q102 0 186 33.5t141 91t96 136.5t57 168.5t18 188.5q0 129 -29.5 237.5t-88 194.5t-156 134.5t-224.5 48.5q-108 0 -194 -32t-144 -88t-96.5 -134.5t-55.5 -168t-18 -192.5z" />
<glyph unicode="P" horiz-adv-x="1370" d="M231 74q1 33 1 338.5v597t1 301.5q0 18 1 28.5t6 25t17.5 21.5t31.5 7h379q277 0 421.5 -127.5t149.5 -337.5v-8q1 -207 -151 -337q-154 -132 -422 -132h-326q0 -359 2 -369q0 -6 1 -21.5t0.5 -23t-3.5 -18t-12.5 -15t-24.5 -4.5h-33q-39 0 -39 62v12zM342 549h326 q221 0 338.5 103t117.5 276q0 169 -118.5 266.5t-337.5 97.5h-326v-117v-255v-254.5v-116.5z" />
<glyph unicode="Q" horiz-adv-x="1540" d="M150 696q0 151 40 280t117.5 227t201.5 154t282 56q184 0 320.5 -84t207 -231t70.5 -338q0 -85 -13.5 -164t-36.5 -140t-52.5 -116t-62.5 -95.5t-66 -74.5t-62.5 -56t-52.5 -37.5t-37 -22.5l-13 -7q122 -134 227.5 -202.5t211.5 -69.5q2 -10 2 -20q0 -31 -18 -53 q-23 -30 -64 -30q-39 0 -78.5 12.5t-96.5 47.5t-131.5 112t-160.5 193h-11q0 -2 -1.5 -6t-8.5 -14t-17.5 -17.5t-30.5 -13.5t-46 -6q-81 0 -165 25.5t-166.5 82.5t-146 138.5t-103 203t-39.5 266.5zM266 696q0 -160 51.5 -284t139 -197t193.5 -109q101 -34 214 -34h13 q8 3 22.5 10.5t55.5 35t78 61t83 91.5t78.5 124.5t55 162t22.5 201.5q0 86 -16.5 164t-54 150.5t-92.5 125t-138.5 84t-186.5 31.5q-108 0 -196 -33t-147 -89.5t-99 -135.5t-58 -168.5t-18 -190.5z" />
<glyph unicode="R" horiz-adv-x="1423" d="M229 57q3 75 5 654q1 263 1 414q0 181 -2 200q-2 32 16 50t54 18h412q246 0 383.5 -124t142.5 -313q0 -97 -37 -178.5t-96 -133.5t-122 -83.5t-126 -44.5l289 -389q23 -32 45.5 -39.5t87.5 -7.5q7 -17 7 -32q-1 -22 -15 -39q-24 -29 -70 -29q-52 0 -83 21t-68 73 l-301 428h-416q0 -7 -1 -103t-1 -189t2 -142q1 -40 -8 -54t-31 -14h-27q-27 0 -34 13.5t-7 43.5zM334 598h381q187 0 301 92q110 89 110 254v12q-1 64 -27.5 123t-76 107t-129.5 77t-178 29h-375q0 -78 -3 -376t-3 -318z" />
<glyph unicode="S" horiz-adv-x="1204" d="M109 1034q0 162 130.5 270.5t358.5 108.5q120 0 201 -19.5t153 -56.5q62 -36 62 -74q0 -10 -4 -20q-6 -15 -19 -26t-23 -15l-10 -4q-5 5 -14.5 12.5t-42.5 27.5t-71.5 35t-101 27.5t-130.5 12.5q-185 0 -280 -78t-95 -201q0 -42 17 -77.5t41.5 -58.5t63 -43t70 -31 t74.5 -23l256 -70q173 -49 262 -137t89 -229q0 -175 -142.5 -280t-378.5 -105q-123 0 -221 30t-151 68q-24 20 -33.5 38.5t-11.5 45.5q-2 20 11 35t27 21l13 5q5 -6 14 -15.5t42.5 -34t72.5 -43.5t103 -34.5t134 -15.5q188 0 297 77t109 205q0 92 -73 163t-197 102l-250 67 q-73 19 -129 43t-110 62.5t-83.5 98t-29.5 136.5z" />
<glyph unicode="T" horiz-adv-x="1210" d="M68 1333v23q0 21 8.5 29t32.5 8h997q35 0 35 -39v-31v-6q-1 -15 -5 -19q-6 -6 -26 -6h-457q-2 -79 -2 -230.5t1 -314t2 -310t2 -251t1 -104.5q-1 -7 -1 -26.5t-1.5 -28.5t-10.5 -18t-26 -9h-36q-14 0 -22.5 6t-12 18.5t-4 21.5t-0.5 26q3 26 5 542q2 369 1 557v121 q-35 0 -242 1l-207 1q-19 0 -25.5 8.5t-6.5 30.5z" />
<glyph unicode="U" horiz-adv-x="1531" d="M215 649q0 110 1 293q2 184 2 264v51q0 46 -1 78q3 58 37 58h37q6 0 11.5 -0.5t9 -2.5t6 -3.5t4 -5.5t2.5 -5.5t1.5 -8t0.5 -8.5v-10v-10q-1 -36 0 -74v-39q0 -58 1 -240.5t1 -336.5q0 -107 12.5 -191t43 -156.5t80 -120t126 -74.5t178.5 -27q228 0 332 147.5t104 425.5 q0 154 -0.5 317t-1 263.5t-0.5 101.5q0 58 33 58h33q47 0 47 -48v-6q-1 -19 -1 -329.5t-1 -358.5q-2 -126 -18.5 -225t-55.5 -184.5t-100.5 -142t-155 -88t-217.5 -31.5q-126 0 -221.5 31t-157.5 87t-101 141t-55 184t-16 226z" />
<glyph unicode="V" horiz-adv-x="1304" d="M76 1382q4 10 26 11h41q37 0 52 -47q7 -16 108 -296.5t211.5 -586.5t132.5 -365h12q21 54 232 637t225 615q11 29 21.5 36t36.5 7h26q29 0 29 -23q0 -9 -4 -20q-431 -1174 -459 -1274q-10 -36 -38.5 -56t-63.5 -20h-19q-43 0 -67 20t-37 58q-9 26 -231.5 639.5 t-225.5 625.5q-9 22 -9 33q0 3 1 6z" />
<glyph unicode="W" horiz-adv-x="2045" d="M74 1346q-2 8 -2 15q0 14 8 21q12 11 43 11h14q45 0 56 -43q2 -5 35.5 -123t76 -267t89.5 -316t86.5 -314t56.5 -219h12q22 70 112 363t167 542t100 319q17 58 84 58h24q27 0 49 -16t29 -42q3 -10 86 -274t173 -553.5t122 -398.5h10q38 148 187.5 676.5t156.5 555.5 q6 27 19 39.5t37 12.5h22q23 1 36 -11q9 -8 9 -21q0 -6 -2 -13l-364 -1276q-6 -26 -25.5 -49t-50.5 -23h-41q-34 0 -54 15t-32 53q-55 167 -190 601.5t-185 608.5h-8q-91 -273 -377 -1206q-13 -45 -32 -58.5t-58 -13.5h-31q-62 0 -82 72q-8 32 -183.5 638.5t-182.5 635.5z " />
<glyph unicode="X" horiz-adv-x="1239" d="M64 1382q8 12 34 11h39q32 0 53 -33q303 -435 410 -574h10q66 83 229 311t183 263q16 33 57 33h45q28 0 28 -21q0 -14 -13 -33l-465 -641q47 -67 157.5 -218t200.5 -275t109 -154q11 -22 0.5 -36.5t-33.5 -14.5h-37q-33 0 -55 33l-402 573h-12q-77 -96 -409 -571 q-13 -18 -25 -26.5t-35 -8.5h-33q-23 0 -29 15t3 32l465 651q-55 76 -175 239t-194.5 265.5t-97.5 138.5q-10 19 -10 30q-1 7 2 11z" />
<glyph unicode="Y" horiz-adv-x="1269" d="M54 1363q0 10 8 19q8 11 28 11h35q27 0 41.5 -10.5t26.5 -32.5q23 -41 185 -282t249 -368h16l444 658q13 20 25.5 27.5t38.5 7.5h33q23 0 29 -15q2 -5 2 -11q0 -9 -7 -19l-520 -758q1 -30 1 -261.5t1 -246.5q0 -4 2 -21t1.5 -23.5t-3.5 -17.5t-11.5 -15.5t-23.5 -4.5h-32 q-27 0 -37 22.5t-6 51.5q-1 31 -1 82q0 26 1 57q0 93 1 227t1 150q-51 80 -284 412.5t-237 338.5q-7 11 -7 22z" />
<glyph unicode="Z" horiz-adv-x="1206" d="M106 41l5 74q8 11 403 541t461 624v12h-764q-31 0 -31 43v25q0 20 7 26.5t30 6.5h846q30 0 37 -43v-68l-867 -1165v-17q759 0 797 2q19 2 27 -6t8 -30v-33q0 -20 -7 -26.5t-30 -6.5h-883q-36 0 -39 41z" />
<glyph unicode="[" horiz-adv-x="772" d="M219 -176q2 29 2 235q0 118 1 621t1 704q0 25 1.5 38t8.5 27.5t23 20t43 5.5h397q19 0 26 -11t7 -34v-23q0 -20 -10 -26.5t-31 -6.5h-356q-11 -1323 -6 -1540q75 -1 137.5 -0.5t139 1.5t93.5 1q18 0 25.5 -8t7.5 -29v-32q0 -20 -6.5 -26.5t-28.5 -6.5h-407 q-46 0 -58 17.5t-10 72.5z" />
<glyph unicode="\" horiz-adv-x="731" d="M102.5 1377q7.5 16 36.5 16h17q5 0 10 -1t9 -2.5t7.5 -5t6 -5.5t5 -7t4 -7t3.5 -8t3 -8t3 -8.5t2 -7.5q4 -11 186.5 -569.5t229.5 -683.5q15 -41 11 -60.5t-30 -19.5h-26q-11 0 -16 1t-15 5.5t-17.5 17t-13.5 33.5q-46 153 -205.5 642.5t-203.5 617.5q-14 44 -6.5 60z " />
<glyph unicode="]" horiz-adv-x="774" d="M45 -201q0 21 7.5 29t25.5 8q17 0 90.5 -1t132.5 -1.5t133 0.5q2 132 2 745.5t-2 794.5h-356q-18 -2 -26 7t-7 30v23q0 23 6.5 32t26.5 9h418q28 0 38.5 -25t8.5 -57v-1586q0 -27 -15.5 -50t-40.5 -23h-407q-22 0 -28.5 6.5t-6.5 26.5v32z" />
<glyph unicode="a" horiz-adv-x="1173" d="M117 330q6 151 112 242.5t291 95.5h9q106 0 204 -22q102 -24 137 -42v131q0 316 -295 316q-60 0 -117.5 -10t-97 -24.5t-70 -29.5t-44.5 -25l-15 -10q-9 4 -20.5 21t-15 41.5t25.5 44.5q48 36 143.5 62t219.5 26q198 1 300 -109q97 -104 97 -285v-18q-5 -155 -5 -379.5 t7 -304.5q1 -14 1 -26v-15q-2 -16 -15.5 -23t-44.5 -7q-25 0 -38.5 15t-14.5 46t1.5 52t8.5 59h-11q-7 -7 -20.5 -18.5t-55.5 -41t-85.5 -52.5t-108 -41.5t-125.5 -18.5q-94 0 -166 29t-114 79q-41 50 -61 112q-17 53 -17 112v18zM225 330v-6q0 -112 68 -181q70 -71 201 -71 q123 0 228.5 63.5t147.5 143.5v237q-162 59 -340 59q-138 0 -221 -64.5t-84 -180.5z" />
<glyph unicode="b" horiz-adv-x="1226" d="M195 330v1059q-1 11 -1 20q0 19 6 29q8 16 44 16q34 0 45.5 -14t9.5 -45q0 -2 -1 -57.5t-2 -153t-1 -199.5h16q134 162 355 162q208 0 320 -151.5t112 -411.5q0 -269 -148.5 -436.5t-380.5 -167.5q-102 0 -176.5 27.5t-116.5 77t-61.5 110t-19.5 135.5zM295 805 q0 -432 2 -504q5 -106 71 -167.5t201 -61.5q191 0 303.5 140.5t112.5 371.5q0 230 -89.5 350.5t-246.5 120.5q-62 0 -117.5 -18.5t-93.5 -46t-69 -63t-48 -65.5t-26 -57z" />
<glyph unicode="c" horiz-adv-x="1128" d="M141 563q0 163 64 296t182.5 210.5t269.5 77.5q71 0 127 -13.5t89.5 -33t57 -46.5t33.5 -49.5t15 -46.5q3 -17 3 -32q0 -38 -19 -58q-18 -20 -49 -20q-13 0 -29 4q2 19 2 31q0 28 -12 56t-37 55t-72 44t-109 17q-181 -1 -291 -133q-112 -134 -112 -364q0 -228 100 -356 q102 -130 279 -130q54 0 105.5 10t86 24t61.5 28t40 24l12 10q2 -1 4.5 -2t9.5 -6t10.5 -11.5t7 -18t-0.5 -26.5q-7 -44 -102.5 -84t-233.5 -40q-229 0 -360.5 147t-131.5 436z" />
<glyph unicode="d" horiz-adv-x="1261" d="M131 573q3 259 131 416.5t313 157.5q246 0 371 -215h15q-1 43 -1 110v72q1 118 2 183v40q0 36 -1 58q-3 32 4 45.5t34 13.5q39 0 53.5 -12.5t14.5 -42.5q-3 -24 -5.5 -523t-2.5 -815q0 -6 1 -21t1 -23.5t-4 -17.5t-13 -13q-12 -6 -38 -6q-22 0 -35 10.5t-16.5 33t-4 43.5 t1 55.5t0.5 55.5h-10q-4 -8 -12 -21.5t-38 -47.5t-67 -60t-101.5 -47.5t-137.5 -21.5q-138 0 -243.5 78t-159.5 212q-52 130 -52 291v12zM240 578q0 -227 98 -366.5t270 -139.5q97 0 179.5 50t128 128.5t45.5 163.5v346q-12 29 -25 54.5t-47 73.5t-72 81.5t-99 59.5t-130 26 q-53 0 -103 -19.5t-94.5 -59.5t-78 -96t-53 -134t-19.5 -168z" />
<glyph unicode="e" horiz-adv-x="1218" d="M145 569q0 164 59 295t171.5 207t259.5 76q98 0 179 -35t132.5 -92.5t80 -129t28.5 -147.5q0 -64 -4.5 -101t-17.5 -52.5t-24 -18t-36 -2.5h-715l-4 -6q0 -102 23 -188.5t70.5 -155.5t128 -108t186.5 -39q50 0 100 11t84.5 26t64.5 32t43 27t17 14q21 1 37 -26 q9 -11 6 -31.5t-19 -36.5q-36 -36 -129 -72t-207 -36q-132 0 -232 43.5t-161 123.5t-91 186t-30 236zM264 662h678q4 40 4 81q0 78 -34 147.5t-106.5 117t-170.5 47.5q-76 0 -139.5 -28t-104 -71t-69.5 -97.5t-42 -103.5t-16 -93z" />
<glyph unicode="f" horiz-adv-x="772" d="M109 969v18q0 25 18 27l158 24v99q0 139 73 228t209 89q93 0 170 -14q1 -3 1 -9q1 -3 1 -8t-1 -13q0 -15 -4 -26t-15 -20.5t-29 -9.5q-21 0 -61.5 4t-61.5 4q-82 0 -132 -56.5t-50 -168.5v-103h254q24 0 33 -7.5t8 -29.5l-2 -24q-2 -31 -33 -31h-264q0 -76 0.5 -289 t1 -399t0.5 -195q0 -30 -6.5 -44.5t-30.5 -14.5h-24q-11 0 -19 3t-12 7t-5.5 13t-2 15t-0.5 19q0 824 2 885q-101 0 -144 -2q-21 -1 -26.5 5t-5.5 24z" />
<glyph unicode="g" horiz-adv-x="1259" d="M150 776q0 76 27.5 142t80.5 118t139.5 81.5t196.5 29.5h487q1 -2 2.5 -6t3.5 -15t2 -20.5t-3.5 -22t-11.5 -21t-25 -14.5t-41 -6q-35 0 -72 6t-64.5 13.5t-31.5 7.5l-2 -8q21 -9 44 -22.5t54 -39t54.5 -55.5t40 -74.5t16.5 -93.5q0 -118 -66.5 -198.5t-175 -116 t-252.5 -35.5q-104 0 -147.5 -28t-43.5 -93q0 -82 150 -82h264q160 0 243 -61t83 -176q0 -130 -129 -222t-355 -92q-215 0 -334 71q-118 70 -118 192q0 51 19 93q18 39 44 61t51.5 36.5t43.5 19.5l18 5v10q-4 1 -9.5 4t-21 14.5t-27 26t-21 39t-9.5 53.5q0 36 14 66t34 46.5 t40.5 28t34.5 15.5l14 4v10q-10 2 -26 7t-57.5 27.5t-73.5 53t-58 89.5t-26 132zM256 776q0 -70 25.5 -121.5t71 -80.5t101.5 -42.5t124 -13.5q182 0 271 67.5t89 190.5q0 124 -89.5 201.5t-254.5 77.5q-95 0 -164.5 -25.5t-105.5 -68t-52 -88.5t-16 -97zM274 -41 q0 -90 89.5 -142.5t254.5 -52.5q176 0 275.5 67.5t99.5 154.5q0 25 -9 47.5t-30.5 46t-67.5 37.5t-110 14h-346q-144 -41 -155 -154q-1 -9 -1 -18z" />
<glyph unicode="h" horiz-adv-x="1318" d="M201 68q8 156 8 249q2 223 2 1069v7q0 16 0.5 24t4.5 18t14 14.5t26 4.5q38 0 51 -17t10 -48q-4 -55 -5 -121t-1.5 -174t-1.5 -150h15q1 1 5 6q17 20 31.5 36t53.5 49t78.5 55t99.5 39.5t123 17.5q201 0 307 -106.5t106 -323.5v-654q0 -7 2 -22q2 -12 2 -20q0 -10 -4 -22 q-4 -10 -16 -14.5t-33 -4.5q-22 0 -34 4t-17 17t-5.5 22.5t-0.5 35.5v660q0 149 -80.5 242.5t-236.5 93.5q-65 0 -123.5 -18.5t-101.5 -47t-78 -66t-56.5 -72.5t-34.5 -69q-1 -89 -1 -281.5t-1 -226.5q-2 -84 -2 -206q3 -42 -9 -55t-36 -13h-16q-30 0 -38 16q-7 13 -7 39v13 z" />
<glyph unicode="i" horiz-adv-x="579" d="M215 1405q0 56 19 75t57 19q42 0 64 -18.5t22 -75.5q0 -56 -20 -74t-58 -18q-44 0 -64 17.5t-20 74.5zM233 74q5 98 5 243v742v12.5v13t0.5 11t2.5 10.5t5 8t7.5 7t11.5 3.5t16 1.5q41 0 51 -8q8 -7 9 -27q0 -6 -1 -12q-4 -92 -4 -305v-139q2 -325 2 -361q0 -49 1 -120 t1 -80q0 -40 -10 -57t-35 -17h-14q-31 0 -41 18q-8 14 -7 43v13z" />
<glyph unicode="j" horiz-adv-x="610" d="M12 -285q1 15 4.5 26t13.5 20.5t27 9.5q8 0 36.5 -3.5t47.5 -3.5q59 0 96.5 48t38.5 143q2 131 2 271v70q-1 177 -2.5 447t-1.5 332q0 27 8.5 39t34.5 12q44 0 53 -9.5t7 -43.5q-4 -148 -4 -279q0 -17 1 -33q0 -146 2.5 -415.5t2.5 -363.5q0 -150 -66 -231t-172 -81 q-69 0 -127 15q-1 3 -2 9v8.5v12.5zM252 1405q0 58 19.5 76t58.5 18q42 0 63 -18t21 -76q0 -56 -20 -74t-60 -18q-43 0 -62.5 17.5t-19.5 74.5z" />
<glyph unicode="k" horiz-adv-x="1249" d="M199 72q0 47 5 682t5 639v18t2 15t6 15.5t12.5 8.5t20.5 4q40 0 51.5 -12.5t11.5 -44.5q0 -12 -3 -208t-3 -259h15q47 88 149 152.5t252 64.5q171 0 273 -96.5t102 -241.5q0 -56 -17 -105t-44 -83t-60 -62t-65.5 -45t-59.5 -28.5t-44 -15.5l-17 -5q12 -22 49 -73.5 t72 -98.5t93 -124.5t82 -109.5q5 -8 15 -19t17 -18l7 -8q0 -1 -1.5 -3.5t-6.5 -8.5t-11.5 -10.5t-18.5 -8t-27 -3.5q-50 0 -80 38q-22 26 -68.5 92.5t-87 126.5t-99 147t-75.5 112l15 28q42 1 84 11t85 32t75 53.5t52.5 80t20.5 108.5q0 103 -72 174.5t-192 71.5 q-109 0 -190 -37.5t-128.5 -104.5t-70.5 -151.5t-23 -186.5q0 -104 -1 -267.5t-1 -235.5v-11v-14.5t-1 -13t-4 -13.5t-7.5 -9.5t-11.5 -8t-17 -2.5h-18q-23 0 -33.5 9.5t-12 21.5t-1.5 41z" />
<glyph unicode="l" horiz-adv-x="600" d="M201 133v34q0 133 5 622t5 578v19q-2 42 4.5 55t38.5 13q34 0 49.5 -11.5t14.5 -28.5t-1 -36q-3 -73 -8.5 -537.5t-5.5 -705.5q-1 -49 31 -59q12 -4 31 -4q28 0 69 10q36 7 39 -16l2 -31q0 -11 -0.5 -15t-4 -8t-11.5 -8q-15 -8 -48.5 -16t-62.5 -8q-71 0 -109 34t-38 119 z" />
<glyph unicode="m" horiz-adv-x="1978" d="M193 72q8 156 8 245q-1 53 -1 130v83q0 132 1 244.5t1.5 206.5t0.5 98v14v15t1 12t3.5 11.5t7 7.5t11.5 6.5t16 1.5q37 0 51 -16.5t14 -49.5q0 -19 -3 -67.5t-3 -69.5h14q130 203 355 203q246 0 334 -203h10q7 12 23.5 31t52.5 50.5t77 57.5t100.5 45t121.5 19 q192 0 287.5 -113t95.5 -315q0 -47 -3 -261q-2 -161 -2 -301v-91q0 -9 2.5 -28t2.5 -29.5t-11.5 -19.5t-36.5 -9q-28 0 -42 9.5t-16.5 21.5t-2.5 36q0 97 1 318.5t1 353.5q0 151 -75.5 243.5t-209.5 92.5q-119 0 -214.5 -67t-133.5 -146q8 -32 8 -129q0 -66 -2 -277.5 t-2 -378.5q0 -37 -7 -47t-30 -10h-30q-26 0 -33.5 13t-7.5 44q0 73 4 332t4 330q0 153 -68.5 244.5t-203.5 91.5q-265 0 -361 -273q-4 -312 -4 -508q0 -30 -0.5 -80t-0.5 -80t1 -42q3 -43 -6.5 -57.5t-34.5 -14.5h-22q-26 0 -36 17q-8 14 -7 42v13z" />
<glyph unicode="n" horiz-adv-x="1310" d="M193 72q8 156 8 245q0 98 0.5 281.5t1 329t0.5 151.5v11.5v11.5t0.5 10t1.5 10t2.5 8t4.5 7.5t7 4.5t9 4t12 1q42 0 54.5 -14.5t12.5 -51.5q0 -24 -3 -70.5t-3 -66.5h14q1 1 9.5 11t15.5 19t22 24t29.5 27.5t35.5 28.5t42.5 28.5t49 25t56 21t63 13.5t69.5 5 q200 -1 308 -109q105 -106 105 -308v-11q-2 -170 -2 -656q0 -8 2 -22.5t2 -23t-3 -18.5t-13 -14.5t-27 -4.5q-23 0 -37.5 4.5t-20 14t-6.5 15.5t-1 17v4v684q0 149 -81 242.5t-237 93.5q-80 0 -150 -27t-117.5 -70.5t-78.5 -87.5t-47 -88q0 -81 -2 -271.5t-2 -236.5v-206 v-31.5t-10 -26t-31 -10.5h-25q-41 0 -41 58q0 7 1 14z" />
<glyph unicode="o" horiz-adv-x="1255" d="M139 571q2 121 33.5 224t90 182.5t151.5 124.5t211 45q158 0 271.5 -77.5t167.5 -205.5q52 -124 52 -279v-12q-2 -174 -55.5 -306t-165 -211t-268.5 -79q-159 0 -271 78q-112 79 -166 211q-51 125 -51 287v18zM248 571q0 -83 12 -154.5t39.5 -136t70 -110t107.5 -72 t148 -26.5q103 0 179.5 40t120.5 110.5t64.5 157.5t20.5 191q0 100 -23 186.5t-69 153.5t-120.5 105.5t-170.5 38.5q-103 0 -178.5 -38.5t-118.5 -107t-62.5 -152.5t-19.5 -186z" />
<glyph unicode="p" horiz-adv-x="1267" d="M199 -252q1 12 5 260.5t6 571.5q2 180 2 310q0 103 -1 175q0 6 -2.5 27.5t0 32.5t12.5 16q15 6 43 6q37 0 46 -47q7 -39 7 -116v-36h11q4 8 12 21.5t38.5 48t67.5 60.5t100 47.5t134 21.5q137 0 240.5 -78t156.5 -212t53 -304q0 -256 -128.5 -414.5t-311.5 -158.5 q-69 0 -129.5 19t-98 43.5t-70 59t-45 54t-23.5 39.5h-15q1 -32 1 -75q0 -76 -2 -186q-3 -134 -3 -172v-14q1 -19 -2.5 -31.5t-10.5 -17t-12 -5.5t-14 -1h-24q-22 0 -33 11q-10 9 -10 38v6zM309 367q11 -28 26 -57t48.5 -74.5t72 -79.5t97.5 -59t125 -25q142 0 243 129.5 t101 347.5q0 229 -97.5 367.5t-269.5 138.5q-92 0 -173 -49.5t-127 -128.5t-46 -164v-346z" />
<glyph unicode="q" horiz-adv-x="1247" d="M129 541q0 267 152 436.5t383 169.5q190 0 287.5 -97.5t97.5 -254.5q0 -1022 2 -1047v-8q0 -17 -3 -28q-5 -13 -9 -16t-15 -9q-30 -15 -45 -15q-11 0 -17 3t-11 17t-5 40q0 4 2 141t2 283h-14q-48 -70 -139 -123t-219 -53q-215 0 -332 145.5t-117 415.5zM244 539v-13 q0 -214 94 -332q98 -122 250 -122q74 0 137.5 24t107 64t72 84t43.5 92v477q0 101 -77.5 171.5t-206.5 70.5q-190 0 -303.5 -146t-116.5 -370z" />
<glyph unicode="r" horiz-adv-x="942" d="M190 72q0 4 4.5 82t4.5 118v613q1 30 1 61q0 52 -3 109q-1 15 -1 27q0 32 6 46q8 18 46 19q44 0 51 -36q3 -14 3 -42q0 -44 -7 -123h16q15 36 38 69t57 64t82 49.5t104 18.5q125 0 194.5 -70.5t69.5 -179.5q0 -46 -15 -64t-53 -18q-9 0 -16 1.5t-11.5 3t-7.5 6.5t-5 7.5 t-2.5 11.5t-0.5 12.5v16v17.5q0 72 -47 118t-133 46q-54 0 -103 -31t-82 -78.5t-53.5 -101t-25.5 -101.5q-5 -207 -5 -436q0 -115 1 -235q0 -7 0.5 -20t0.5 -18t-2 -13.5t-6 -11.5t-12 -6t-20 -3h-25q-24 0 -34 16q-9 15 -9 49v7z" />
<glyph unicode="s" horiz-adv-x="1075" d="M150 842q0 129 105 217t286 88q216 0 317 -88q20 -19 20 -43q0 -8 -2 -16q-10 -34 -36 -42q-4 4 -12.5 10.5t-37 23t-61 29.5t-83.5 23.5t-105 10.5q-131 0 -207 -61.5t-76 -151.5q0 -63 45 -107t135 -76l199 -69q153 -54 218 -115.5t65 -173.5q0 -140 -112 -230.5 t-319 -90.5q-135 0 -226 40.5t-103 85.5q-7 27 3.5 47t26.5 29l11.5 -11.5t35 -26.5t59.5 -33.5t84 -26.5t109 -12q152 0 238 62.5t86 164.5q0 38 -17.5 69t-51.5 54.5t-67 39t-81 32.5l-207 75q-120 44 -179.5 107t-59.5 166z" />
<glyph unicode="t" horiz-adv-x="909" d="M90 1067v27q0 24 27 24q44 0 74.5 4t51.5 15t33 23.5t18.5 36.5t8.5 47t2 61q0 43 53 43q21 0 31.5 -9.5t9.5 -35.5q0 -28 -2 -89.5t-2 -87.5q26 -2 152.5 -2t208.5 2q37 0 37 -30v-31q0 -31 -37 -31h-366q-10 -208 -11 -749q0 -116 32.5 -164.5t110.5 -48.5 q51 0 103 16.5t86 38.5q23 14 34.5 11.5t20.5 -23.5l8 -19q7 -23 4 -31t-18 -18q-35 -26 -103.5 -46.5t-134.5 -20.5q-135 0 -194 70q-56 67 -56 223v16q1 63 4.5 244t7 335.5t3.5 167.5h-162q-13 0 -21 2t-10.5 7.5t-3 8.5t-0.5 13z" />
<glyph unicode="u" horiz-adv-x="1273" d="M168 410q-1 45 -1 98q0 228 11 592q1 27 10.5 37t30.5 10q67 0 64 -55q-9 -307 -9 -684q0 -163 76 -249.5t228 -86.5q79 0 147 25t115 66.5t79 86t50 92.5q0 81 2 271t2 239v203q-3 43 7 57t36 14h22q27 0 37 -16q8 -13 8 -40v-11q-8 -156 -8 -250q0 -98 -2 -283.5 t-4 -333t-2 -153.5q0 -18 -0.5 -24.5t-4 -17t-13.5 -14t-27 -3.5q-32 0 -45.5 16.5t-13.5 52.5q0 31 5 77.5t5 55.5h-15q-13 -19 -38 -44t-74.5 -65t-122.5 -66.5t-152 -26.5q-201 0 -300.5 103t-102.5 327z" />
<glyph unicode="v" horiz-adv-x="1142" d="M63 1071q-8 19 -8 31q0 24 29 24h37q19 0 29 -6.5t20 -29.5q59 -134 385 -977h14q35 85 201 505t188 472q9 22 19.5 29t32.5 7h41q19 0 25 -14q2 -6 2 -13q0 -10 -5 -22q-24 -48 -198.5 -467.5t-227.5 -554.5q-11 -27 -27 -41t-49 -14h-16q-56 0 -76 51z" />
<glyph unicode="w" horiz-adv-x="1843" d="M68 1061q-7 21 -7 35q0 30 31 30h25q28 0 39.5 -11t19.5 -38q1 -3 147.5 -467t165.5 -526h11q23 52 155.5 463t167.5 528q8 28 23 39.5t49 11.5h37q57 0 72 -51q8 -26 158 -479t167 -510h10q18 36 80.5 233.5t139 451.5t92.5 304q10 27 22.5 39t38.5 12h23q21 0 29 -12 q8 -10 7 -21q0 -13 -6 -30l-329 -991q-5 -15 -9.5 -24t-14 -22t-26 -19.5t-38.5 -6.5h-35q-60 0 -80 55q-8 25 -76.5 239t-138.5 436t-94 314h-13q-24 -84 -95 -304.5t-147 -452t-77 -234.5q-15 -53 -78 -53h-31q-38 0 -60 18.5t-28 40.5q-17 61 -85 268t-146.5 444.5 t-95.5 289.5z" />
<glyph unicode="x" horiz-adv-x="1093" d="M106 1109q10 17 33 17h29q39 0 59 -30q15 -24 144.5 -204t169.5 -239h10q255 356 307 432q26 41 68 41h35q20 0 27 -10q4 -6 4 -13q0 -5 -1 -9q-4 -12 -14 -27q-2 -3 -74.5 -98.5t-160 -213.5t-130.5 -182l369 -524q11 -12 2.5 -30.5t-37.5 -18.5h-28q-12 0 -19 1.5 t-20 11.5t-27 30q-23 36 -148 219.5t-153 226.5h-8q-21 -31 -154 -222t-164 -240q-15 -27 -47 -27h-43q-16 0 -24 15t2 32q9 14 163.5 231.5t204.5 292.5q-46 63 -190.5 256t-177.5 240q-11 16 -11 29q1 7 4 13z" />
<glyph unicode="y" horiz-adv-x="1077" d="M54 1106q3 20 32 20h27q11 0 19 -1.5t12.5 -2.5t8.5 -7t5 -8t5 -12.5t5 -13.5q9 -22 197 -427.5t229 -503.5h12q47 135 142.5 446.5t144.5 480.5q2 5 5 14.5t4.5 13t5 9t8 7.5t12.5 3.5t20 1.5h25q34 0 39 -16q1 -5 1 -11q0 -14 -9 -34l-324 -993q-20 -64 -35 -106 t-35 -88t-38.5 -74.5t-43.5 -56.5t-53.5 -42.5t-65.5 -23.5t-81 -9q-101 0 -189 47q-12 7 -19 12.5t-9 11.5t-2 9.5t2.5 10.5t3.5 10l6 22q7 28 25 28q10 0 24 -9q78 -50 164 -50q83 0 140.5 72.5t109.5 245.5h-23q-28 0 -44 11t-25 38q-14 41 -114 258.5t-203.5 436 t-111.5 237.5q-10 18 -10 35q0 4 1 8z" />
<glyph unicode="z" horiz-adv-x="987" d="M106 43v35q5 11 309 462.5t326 493.5h-587q-16 0 -24.5 7t-8.5 28v27q0 30 35 30h661q32 0 41.5 -11t11.5 -38v-39q-14 -13 -297.5 -433.5t-341.5 -512.5h576q12 0 18 -0.5t13.5 -4t10.5 -11.5t3 -21v-18q0 -11 -3 -19t-7 -11.5t-10 -5.5t-10 -2t-10 0.5t-7 0.5h-649 q-30 0 -40 8.5t-10 34.5z" />
<glyph unicode="{" horiz-adv-x="821" d="M131 551v74q0 19 8 25.5t27 6.5q77 0 117.5 38.5t40.5 109.5q0 26 -19.5 153t-19.5 185q0 311 297 311q96 0 166 -24q39 -13 26 -46l-6 -16q-10 -27 -19.5 -32t-29.5 1q-82 17 -137 17q-96 0 -143.5 -51.5t-47.5 -159.5q0 -41 19.5 -159t19.5 -179q0 -56 -17.5 -99 t-43 -64t-51 -34t-42.5 -16l-18 -2v-15q7 -1 18.5 -3t41 -15.5t52.5 -34t41.5 -63t18.5 -97.5q0 -62 -19.5 -180t-19.5 -157q0 -108 47.5 -159.5t143.5 -51.5q60 0 137 16q20 5 30 -0.5t17 -26.5l6 -18q11 -33 -27 -47q-65 -25 -163 -25q-142 0 -219.5 72.5t-77.5 239.5 q0 51 19.5 173t19.5 164q0 71 -40.5 110.5t-117.5 39.5q-35 0 -35 39z" />
<glyph unicode="|" horiz-adv-x="550" d="M225 -221q2 108 4.5 830t-0.5 808q-1 36 7 47t32 11h19q24 0 32 -11.5t7 -46.5q-3 -73 -8 -819t-1 -819q3 -45 -34 -45h-23q-20 0 -28 10t-7 35z" />
<glyph unicode="}" horiz-adv-x="821" d="M47 1384q-13 33 27 46q70 24 166 24q297 0 297 -311q0 -58 -19.5 -185t-19.5 -153q0 -71 40 -109.5t117 -38.5q19 0 27 -6.5t8 -25.5v-74q0 -39 -35 -39q-77 0 -117 -39t-40 -111q0 -42 19.5 -164t19.5 -173q0 -167 -77.5 -239.5t-219.5 -72.5q-99 0 -164 25 q-38 14 -27 47l6 18q7 21 17 26.5t30 0.5q77 -16 138 -16q96 0 143 51.5t47 159.5q0 39 -19.5 157t-19.5 180q0 40 9.5 73.5t24.5 55t33.5 38t37 25t33.5 13.5t25 7l9 1v15q-7 1 -18.5 3t-41 15t-52.5 34t-41.5 64t-18.5 99q0 61 19.5 179t19.5 159q0 108 -47 159.5 t-143 51.5q-56 0 -138 -17q-20 -6 -29.5 -1t-19.5 32z" />
<glyph unicode="&#xa9;" horiz-adv-x="1937" d="M102 756q0 148 336 315l123 25h10l17 -17q-8 -14 -195 -73q-221 -124 -256 -293h-8q-15 0 -27 43zM156 356v74q0 199 317 492q56 41 88 41l10 -9v-8q-282 -261 -282 -473v-84q0 -106 123 -174v-18l-62 -17q-106 18 -150 60.5t-44 115.5zM315 1087q109 152 273 152 q125 -18 125 -51v-17l-107 17h-26q-143 0 -256 -101h-9zM606 639q12 233 72 233h8q27 -9 27 -51v-149q38 -190 221 -342q149 -82 256 -82h43q77 0 178 82h27l8 -25q-24 -78 -89 -158t-155 -135l-6 4q-86 -23 -163.5 -5.5t-143 64t-118 114.5t-89.5 145t-57 156.5t-19 148.5z M625 1305v16l149 43q102 0 123 -109l-16 -43h-35q0 78 -90 109h-51zM889 881v16l26 25q231 -117 416 -117h53q318 24 318 184l-8 66h8q93 -47 133 -166v-60q0 -134 -301 -174h-115q-203 0 -504 183zM969 1389v16l80 16q122 -9 122 -84q-38 -105 -141 -166h-35v17 q80 83 80 125v16q0 60 -71 60h-35zM1030 1055q0 20 133 41q185 63 248 159v41q-35 50 -61 50l-19 22l35 4q178 -34 178 -117q0 -154 -461 -225q-44 0 -53 25z" />
<glyph unicode="&#xad;" d="M182 682v27q0 20 6.5 26t28.5 6h520q17 0 23 -9.5t6 -31.5v-22q0 -20 -6.5 -26.5t-28.5 -6.5h-518q-19 0 -25 7.5t-6 29.5z" />
<glyph unicode="&#x2000;" horiz-adv-x="792" />
<glyph unicode="&#x2001;" horiz-adv-x="1585" />
<glyph unicode="&#x2002;" horiz-adv-x="792" />
<glyph unicode="&#x2003;" horiz-adv-x="1585" />
<glyph unicode="&#x2004;" horiz-adv-x="528" />
<glyph unicode="&#x2005;" horiz-adv-x="396" />
<glyph unicode="&#x2006;" horiz-adv-x="264" />
<glyph unicode="&#x2007;" horiz-adv-x="264" />
<glyph unicode="&#x2008;" horiz-adv-x="198" />
<glyph unicode="&#x2009;" horiz-adv-x="317" />
<glyph unicode="&#x200a;" horiz-adv-x="88" />
<glyph unicode="&#x2010;" d="M182 682v27q0 20 6.5 26t28.5 6h520q17 0 23 -9.5t6 -31.5v-22q0 -20 -6.5 -26.5t-28.5 -6.5h-518q-19 0 -25 7.5t-6 29.5z" />
<glyph unicode="&#x2011;" d="M182 682v27q0 20 6.5 26t28.5 6h520q17 0 23 -9.5t6 -31.5v-22q0 -20 -6.5 -26.5t-28.5 -6.5h-518q-19 0 -25 7.5t-6 29.5z" />
<glyph unicode="&#x2012;" d="M182 682v27q0 20 6.5 26t28.5 6h520q17 0 23 -9.5t6 -31.5v-22q0 -20 -6.5 -26.5t-28.5 -6.5h-518q-19 0 -25 7.5t-6 29.5z" />
<glyph unicode="&#x2013;" horiz-adv-x="1386" d="M182 682v27q0 20 11.5 26t49.5 6h912q30 0 40.5 -9.5t10.5 -31.5v-22q0 -20 -11.5 -26.5t-49.5 -6.5h-909q-33 0 -43.5 7.5t-10.5 29.5z" />
<glyph unicode="&#x2014;" horiz-adv-x="2410" d="M182 682v27q0 20 23 26t100 6h1823q60 0 81 -9.5t21 -31.5v-22q0 -20 -23 -26.5t-100 -6.5h-1816q-67 0 -88 7.5t-21 29.5z" />
<glyph unicode="&#x202f;" horiz-adv-x="317" />
<glyph unicode="&#x205f;" horiz-adv-x="396" />
<glyph unicode="&#x20ac;" horiz-adv-x="1259" d="M102 547v26q0 21 11 28t32 7h78q-4 58 -4 88q0 61 2 92h-76q-27 0 -35 5.5t-8 31.5v27q0 21 11 28t32 7h88q19 115 65 210t116.5 166t170.5 110.5t222 39.5q117 0 202.5 -30t131.5 -66q19 -15 28 -29t6 -33.5t-24 -40.5l-23 -18q-5 5 -14 13t-40.5 28t-66.5 35.5 t-90.5 28t-113.5 12.5q-184 0 -300.5 -114.5t-152.5 -311.5h533q26 0 34.5 -7t8.5 -28v-21v-6.5v-6.5t-0.5 -5.5t-1 -5.5t-2 -4.5t-3.5 -4.5t-5 -3t-7.5 -2.5t-9.5 -1t-12 -0.5q-9 0 -218.5 -1.5t-328.5 -1.5q-4 -58 -4 -90q0 -61 4 -90h545q26 0 34.5 -7t8.5 -28v-20v-5 q0 -13 -1 -19t-10.5 -11.5t-29.5 -5.5q-9 0 -211.5 -1t-321.5 -1q40 -198 159.5 -314t293.5 -116q142 0 252 74q14 11 29.5 11t27.5 -20l21 -28q18 -29 -13 -51q-129 -86 -317 -86q-241 0 -386 142t-186 388h-88q-27 0 -35 5.5t-8 31.5z" />
<glyph unicode="&#xe000;" horiz-adv-x="1126" d="M0 0v1126h1126v-1126h-1126z" />
<glyph unicode="&#xfb01;" horiz-adv-x="1351" d="M109 969v18q0 25 18 27l158 24v99q0 139 73 228t209 89q93 0 170 -14q1 -3 1.5 -9t0 -21t-4.5 -26t-15 -20.5t-29 -9.5q-21 0 -61.5 4t-61.5 4q-82 0 -132 -56.5t-50 -168.5v-103h254q24 0 33 -7.5t8 -29.5l-2 -24q-2 -31 -33 -31h-264q0 -76 0.5 -289t1 -399t0.5 -195 q0 -30 -6.5 -44.5t-30.5 -14.5h-24q-11 0 -19 3t-12 7t-5.5 13t-2 15t-0.5 19q0 824 2 885q-101 0 -144 -2q-21 -1 -26.5 5t-5.5 24zM987 1405q0 56 19 75t57 19q42 0 64 -18.5t22 -75.5q0 -56 -20 -74t-58 -18q-44 0 -64 17.5t-20 74.5zM1006 74q4 78 4 243v742v12.5v13 t0.5 11t2.5 10.5t5 8t7.5 7t11.5 3.5t16 1.5q41 0 51.5 -8.5t7.5 -38.5q-5 -119 -3.5 -444t1.5 -361q0 -49 1 -120t1 -80q0 -40 -10 -57t-35 -17h-14q-31 0 -40 17t-7 57z" />
<glyph unicode="&#xfb02;" horiz-adv-x="1372" d="M109 969v18q0 25 18 27l158 24v99q0 139 73 228t209 89q93 0 170 -14q1 -3 1.5 -9t0 -21t-4.5 -26t-15 -20.5t-29 -9.5q-21 0 -61.5 4t-61.5 4q-82 0 -132 -56.5t-50 -168.5v-103h254q24 0 33 -7.5t8 -29.5l-2 -24q-2 -31 -33 -31h-264q0 -76 0.5 -289t1 -399t0.5 -195 q0 -30 -6.5 -44.5t-30.5 -14.5h-24q-11 0 -19 3t-12 7t-5.5 13t-2 15t-0.5 19q0 824 2 885q-101 0 -144 -2q-21 -1 -26.5 5t-5.5 24zM973 133q-1 86 5 656.5t5 596.5q-2 42 4.5 55t38.5 13q34 0 50 -11.5t15 -28.5t-1 -36q-3 -75 -9 -540t-6 -703q0 -48 31.5 -58.5t99.5 5.5 q36 7 39 -16l2 -31q0 -11 -0.5 -15t-4 -8t-11.5 -8q-15 -8 -48.5 -16t-62.5 -8q-71 0 -109 34t-38 119z" />
</font>
</defs>
</svg>
